M48
; DRILL file {KiCad (5.99.0-10632-g8f3343b9e3)} date Fri Jun 18 06:45:52 2021
; FORMAT={3:3/ absolute / metric / suppress leading zeros}
; #@! TF.CreationDate,2021-06-18T06:45:52-04:00
; #@! TF.GenerationSoftware,Kicad,Pcbnew,(5.99.0-10632-g8f3343b9e3)
; #@! TF.FileFunction,MixedPlating,1,2
FMAT,2
METRIC,TZ
; #@! TA.AperFunction,Plated,PTH,ViaDrill
T1C0.254
; #@! TA.AperFunction,Plated,PTH,ComponentDrill
T2C0.600
; #@! TA.AperFunction,Plated,PTH,ComponentDrill
T3C0.650
; #@! TA.AperFunction,NonPlated,NPTH,ComponentDrill
T4C0.650
; #@! TA.AperFunction,NonPlated,NPTH,ComponentDrill
T5C2.700
%
G90
G05
T1
X127000Y-92000
X127000Y-101092
X128778Y-88138
X129000Y-116000
X131064Y-125730
X131238Y-123730
X133350Y-112370
X133350Y-112370
X133350Y-113030
X133350Y-113030
X133500Y-92500
X133500Y-97500
X138000Y-130000
X139000Y-82175
X144000Y-80000
X144000Y-82000
X144000Y-84000
X145500Y-86000
X147000Y-130000
X147500Y-86000
X149500Y-86000
X151500Y-86000
X153500Y-86000
X155000Y-130000
X155500Y-86000
X157000Y-80000
X157000Y-82000
X157000Y-84000
X160700Y-110000
X163000Y-121000
X163500Y-108760
X167000Y-92000
X167067Y-124583
X167067Y-124583
X167533Y-124117
X167533Y-124117
X169000Y-110000
X171000Y-80500
X171000Y-99000
X171000Y-101500
X171000Y-103500
X172310Y-89240
X173150Y-114250
X174024Y-96476
X175500Y-90000
T3
X173990Y-99822
X173990Y-101092
T4
X169985Y-122123
X169985Y-127902
T5
X130000Y-82000
X130000Y-130000
X163000Y-82000
X163000Y-130000
T2
G00X168935Y-120693
M15
G01X170035Y-120693
M16
G05
G00X168935Y-129332
M15
G01X170035Y-129332
M16
G05
G00X173265Y-120693
M15
G01X174065Y-120693
M16
G05
G00X173265Y-129332
M15
G01X174065Y-129332
M16
G05
T0
M30
