G04 #@! TF.GenerationSoftware,KiCad,Pcbnew,(5.99.0-10632-g8f3343b9e3)*
G04 #@! TF.CreationDate,2021-06-18T06:45:42-04:00*
G04 #@! TF.ProjectId,rpi-cm4-LiM+-board,7270692d-636d-4342-9d4c-694d2b2d626f,v01*
G04 #@! TF.SameCoordinates,Original*
G04 #@! TF.FileFunction,Legend,Top*
G04 #@! TF.FilePolarity,Positive*
%FSLAX46Y46*%
G04 Gerber Fmt 4.6, Leading zero omitted, Abs format (unit mm)*
G04 Created by KiCad (PCBNEW (5.99.0-10632-g8f3343b9e3)) date 2021-06-18 06:45:42*
%MOMM*%
%LPD*%
G01*
G04 APERTURE LIST*
%ADD10C,0.150000*%
%ADD11C,0.300000*%
%ADD12C,0.015000*%
%ADD13C,0.120000*%
%ADD14C,0.152400*%
%ADD15C,0.200000*%
G04 APERTURE END LIST*
D10*
X174244000Y-104394000D02*
X174244000Y-102362000D01*
X174244000Y-102362000D02*
X173736000Y-103124000D01*
X174244000Y-102362000D02*
X174752000Y-103124000D01*
X174072571Y-114439047D02*
X174072571Y-114134285D01*
X174605904Y-114324761D02*
X173920190Y-114324761D01*
X173844000Y-114286666D01*
X173805904Y-114210476D01*
X173805904Y-114134285D01*
X174605904Y-113867619D02*
X174072571Y-113867619D01*
X173805904Y-113867619D02*
X173844000Y-113905714D01*
X173882095Y-113867619D01*
X173844000Y-113829523D01*
X173805904Y-113867619D01*
X173882095Y-113867619D01*
X174072571Y-113600952D02*
X174072571Y-113296190D01*
X173805904Y-113486666D02*
X174491619Y-113486666D01*
X174567809Y-113448571D01*
X174605904Y-113372380D01*
X174605904Y-113296190D01*
X173805904Y-112191428D02*
X174377333Y-112191428D01*
X174491619Y-112229523D01*
X174567809Y-112305714D01*
X174605904Y-112420000D01*
X174605904Y-112496190D01*
X174072571Y-111467619D02*
X174605904Y-111467619D01*
X174072571Y-111810476D02*
X174491619Y-111810476D01*
X174567809Y-111772380D01*
X174605904Y-111696190D01*
X174605904Y-111581904D01*
X174567809Y-111505714D01*
X174529714Y-111467619D01*
X174605904Y-111086666D02*
X174072571Y-111086666D01*
X174148761Y-111086666D02*
X174110666Y-111048571D01*
X174072571Y-110972380D01*
X174072571Y-110858095D01*
X174110666Y-110781904D01*
X174186857Y-110743809D01*
X174605904Y-110743809D01*
X174186857Y-110743809D02*
X174110666Y-110705714D01*
X174072571Y-110629523D01*
X174072571Y-110515238D01*
X174110666Y-110439047D01*
X174186857Y-110400952D01*
X174605904Y-110400952D01*
X174072571Y-110020000D02*
X174872571Y-110020000D01*
X174110666Y-110020000D02*
X174072571Y-109943809D01*
X174072571Y-109791428D01*
X174110666Y-109715238D01*
X174148761Y-109677142D01*
X174224952Y-109639047D01*
X174453523Y-109639047D01*
X174529714Y-109677142D01*
X174567809Y-109715238D01*
X174605904Y-109791428D01*
X174605904Y-109943809D01*
X174567809Y-110020000D01*
X174567809Y-108991428D02*
X174605904Y-109067619D01*
X174605904Y-109220000D01*
X174567809Y-109296190D01*
X174491619Y-109334285D01*
X174186857Y-109334285D01*
X174110666Y-109296190D01*
X174072571Y-109220000D01*
X174072571Y-109067619D01*
X174110666Y-108991428D01*
X174186857Y-108953333D01*
X174263047Y-108953333D01*
X174339238Y-109334285D01*
X174605904Y-108610476D02*
X174072571Y-108610476D01*
X174224952Y-108610476D02*
X174148761Y-108572380D01*
X174110666Y-108534285D01*
X174072571Y-108458095D01*
X174072571Y-108381904D01*
X174605904Y-107162857D02*
X174186857Y-107162857D01*
X174110666Y-107200952D01*
X174072571Y-107277142D01*
X174072571Y-107429523D01*
X174110666Y-107505714D01*
X174567809Y-107162857D02*
X174605904Y-107239047D01*
X174605904Y-107429523D01*
X174567809Y-107505714D01*
X174491619Y-107543809D01*
X174415428Y-107543809D01*
X174339238Y-107505714D01*
X174301142Y-107429523D01*
X174301142Y-107239047D01*
X174263047Y-107162857D01*
X174072571Y-106896190D02*
X174072571Y-106591428D01*
X173805904Y-106781904D02*
X174491619Y-106781904D01*
X174567809Y-106743809D01*
X174605904Y-106667619D01*
X174605904Y-106591428D01*
X173805904Y-105486666D02*
X174377333Y-105486666D01*
X174491619Y-105524761D01*
X174567809Y-105600952D01*
X174605904Y-105715238D01*
X174605904Y-105791428D01*
X173882095Y-105143809D02*
X173844000Y-105105714D01*
X173805904Y-105029523D01*
X173805904Y-104839047D01*
X173844000Y-104762857D01*
X173882095Y-104724761D01*
X173958285Y-104686666D01*
X174034476Y-104686666D01*
X174148761Y-104724761D01*
X174605904Y-105181904D01*
X174605904Y-104686666D01*
X175596571Y-114502380D02*
X175596571Y-114197619D01*
X175329904Y-114388095D02*
X176015619Y-114388095D01*
X176091809Y-114350000D01*
X176129904Y-114273809D01*
X176129904Y-114197619D01*
X176129904Y-113816666D02*
X176091809Y-113892857D01*
X176053714Y-113930952D01*
X175977523Y-113969047D01*
X175748952Y-113969047D01*
X175672761Y-113930952D01*
X175634666Y-113892857D01*
X175596571Y-113816666D01*
X175596571Y-113702380D01*
X175634666Y-113626190D01*
X175672761Y-113588095D01*
X175748952Y-113550000D01*
X175977523Y-113550000D01*
X176053714Y-113588095D01*
X176091809Y-113626190D01*
X176129904Y-113702380D01*
X176129904Y-113816666D01*
X176129904Y-112254761D02*
X175329904Y-112254761D01*
X176091809Y-112254761D02*
X176129904Y-112330952D01*
X176129904Y-112483333D01*
X176091809Y-112559523D01*
X176053714Y-112597619D01*
X175977523Y-112635714D01*
X175748952Y-112635714D01*
X175672761Y-112597619D01*
X175634666Y-112559523D01*
X175596571Y-112483333D01*
X175596571Y-112330952D01*
X175634666Y-112254761D01*
X176129904Y-111873809D02*
X175596571Y-111873809D01*
X175329904Y-111873809D02*
X175368000Y-111911904D01*
X175406095Y-111873809D01*
X175368000Y-111835714D01*
X175329904Y-111873809D01*
X175406095Y-111873809D01*
X176091809Y-111530952D02*
X176129904Y-111454761D01*
X176129904Y-111302380D01*
X176091809Y-111226190D01*
X176015619Y-111188095D01*
X175977523Y-111188095D01*
X175901333Y-111226190D01*
X175863238Y-111302380D01*
X175863238Y-111416666D01*
X175825142Y-111492857D01*
X175748952Y-111530952D01*
X175710857Y-111530952D01*
X175634666Y-111492857D01*
X175596571Y-111416666D01*
X175596571Y-111302380D01*
X175634666Y-111226190D01*
X176129904Y-110502380D02*
X175710857Y-110502380D01*
X175634666Y-110540476D01*
X175596571Y-110616666D01*
X175596571Y-110769047D01*
X175634666Y-110845238D01*
X176091809Y-110502380D02*
X176129904Y-110578571D01*
X176129904Y-110769047D01*
X176091809Y-110845238D01*
X176015619Y-110883333D01*
X175939428Y-110883333D01*
X175863238Y-110845238D01*
X175825142Y-110769047D01*
X175825142Y-110578571D01*
X175787047Y-110502380D01*
X176129904Y-110121428D02*
X175329904Y-110121428D01*
X175634666Y-110121428D02*
X175596571Y-110045238D01*
X175596571Y-109892857D01*
X175634666Y-109816666D01*
X175672761Y-109778571D01*
X175748952Y-109740476D01*
X175977523Y-109740476D01*
X176053714Y-109778571D01*
X176091809Y-109816666D01*
X176129904Y-109892857D01*
X176129904Y-110045238D01*
X176091809Y-110121428D01*
X176129904Y-109283333D02*
X176091809Y-109359523D01*
X176015619Y-109397619D01*
X175329904Y-109397619D01*
X176091809Y-108673809D02*
X176129904Y-108750000D01*
X176129904Y-108902380D01*
X176091809Y-108978571D01*
X176015619Y-109016666D01*
X175710857Y-109016666D01*
X175634666Y-108978571D01*
X175596571Y-108902380D01*
X175596571Y-108750000D01*
X175634666Y-108673809D01*
X175710857Y-108635714D01*
X175787047Y-108635714D01*
X175863238Y-109016666D01*
X176091809Y-107378571D02*
X176129904Y-107454761D01*
X176129904Y-107607142D01*
X176091809Y-107683333D01*
X176015619Y-107721428D01*
X175710857Y-107721428D01*
X175634666Y-107683333D01*
X175596571Y-107607142D01*
X175596571Y-107454761D01*
X175634666Y-107378571D01*
X175710857Y-107340476D01*
X175787047Y-107340476D01*
X175863238Y-107721428D01*
X176129904Y-106997619D02*
X175329904Y-106997619D01*
X175901333Y-106730952D01*
X175329904Y-106464285D01*
X176129904Y-106464285D01*
X176129904Y-106083333D02*
X175329904Y-106083333D01*
X175901333Y-105816666D01*
X175329904Y-105550000D01*
X176129904Y-105550000D01*
X176053714Y-104711904D02*
X176091809Y-104750000D01*
X176129904Y-104864285D01*
X176129904Y-104940476D01*
X176091809Y-105054761D01*
X176015619Y-105130952D01*
X175939428Y-105169047D01*
X175787047Y-105207142D01*
X175672761Y-105207142D01*
X175520380Y-105169047D01*
X175444190Y-105130952D01*
X175368000Y-105054761D01*
X175329904Y-104940476D01*
X175329904Y-104864285D01*
X175368000Y-104750000D01*
X175406095Y-104711904D01*
X176129904Y-103759523D02*
X175329904Y-103759523D01*
X175634666Y-103759523D02*
X175596571Y-103683333D01*
X175596571Y-103530952D01*
X175634666Y-103454761D01*
X175672761Y-103416666D01*
X175748952Y-103378571D01*
X175977523Y-103378571D01*
X176053714Y-103416666D01*
X176091809Y-103454761D01*
X176129904Y-103530952D01*
X176129904Y-103683333D01*
X176091809Y-103759523D01*
X176129904Y-102921428D02*
X176091809Y-102997619D01*
X176053714Y-103035714D01*
X175977523Y-103073809D01*
X175748952Y-103073809D01*
X175672761Y-103035714D01*
X175634666Y-102997619D01*
X175596571Y-102921428D01*
X175596571Y-102807142D01*
X175634666Y-102730952D01*
X175672761Y-102692857D01*
X175748952Y-102654761D01*
X175977523Y-102654761D01*
X176053714Y-102692857D01*
X176091809Y-102730952D01*
X176129904Y-102807142D01*
X176129904Y-102921428D01*
X176129904Y-102197619D02*
X176091809Y-102273809D01*
X176053714Y-102311904D01*
X175977523Y-102350000D01*
X175748952Y-102350000D01*
X175672761Y-102311904D01*
X175634666Y-102273809D01*
X175596571Y-102197619D01*
X175596571Y-102083333D01*
X175634666Y-102007142D01*
X175672761Y-101969047D01*
X175748952Y-101930952D01*
X175977523Y-101930952D01*
X176053714Y-101969047D01*
X176091809Y-102007142D01*
X176129904Y-102083333D01*
X176129904Y-102197619D01*
X175596571Y-101702380D02*
X175596571Y-101397619D01*
X175329904Y-101588095D02*
X176015619Y-101588095D01*
X176091809Y-101550000D01*
X176129904Y-101473809D01*
X176129904Y-101397619D01*
D11*
X133986571Y-105616285D02*
X133891333Y-105711523D01*
X133605619Y-105806761D01*
X133415142Y-105806761D01*
X133129428Y-105711523D01*
X132938952Y-105521047D01*
X132843714Y-105330571D01*
X132748476Y-104949619D01*
X132748476Y-104663904D01*
X132843714Y-104282952D01*
X132938952Y-104092476D01*
X133129428Y-103902000D01*
X133415142Y-103806761D01*
X133605619Y-103806761D01*
X133891333Y-103902000D01*
X133986571Y-103997238D01*
X135129428Y-105806761D02*
X134938952Y-105711523D01*
X134843714Y-105616285D01*
X134748476Y-105425809D01*
X134748476Y-104854380D01*
X134843714Y-104663904D01*
X134938952Y-104568666D01*
X135129428Y-104473428D01*
X135415142Y-104473428D01*
X135605619Y-104568666D01*
X135700857Y-104663904D01*
X135796095Y-104854380D01*
X135796095Y-105425809D01*
X135700857Y-105616285D01*
X135605619Y-105711523D01*
X135415142Y-105806761D01*
X135129428Y-105806761D01*
X136653238Y-105806761D02*
X136653238Y-104473428D01*
X136653238Y-104663904D02*
X136748476Y-104568666D01*
X136938952Y-104473428D01*
X137224666Y-104473428D01*
X137415142Y-104568666D01*
X137510380Y-104759142D01*
X137510380Y-105806761D01*
X137510380Y-104759142D02*
X137605619Y-104568666D01*
X137796095Y-104473428D01*
X138081809Y-104473428D01*
X138272285Y-104568666D01*
X138367523Y-104759142D01*
X138367523Y-105806761D01*
X139319904Y-104473428D02*
X139319904Y-106473428D01*
X139319904Y-104568666D02*
X139510380Y-104473428D01*
X139891333Y-104473428D01*
X140081809Y-104568666D01*
X140177047Y-104663904D01*
X140272285Y-104854380D01*
X140272285Y-105425809D01*
X140177047Y-105616285D01*
X140081809Y-105711523D01*
X139891333Y-105806761D01*
X139510380Y-105806761D01*
X139319904Y-105711523D01*
X141986571Y-104473428D02*
X141986571Y-105806761D01*
X141129428Y-104473428D02*
X141129428Y-105521047D01*
X141224666Y-105711523D01*
X141415142Y-105806761D01*
X141700857Y-105806761D01*
X141891333Y-105711523D01*
X141986571Y-105616285D01*
X142653238Y-104473428D02*
X143415142Y-104473428D01*
X142938952Y-103806761D02*
X142938952Y-105521047D01*
X143034190Y-105711523D01*
X143224666Y-105806761D01*
X143415142Y-105806761D01*
X144843714Y-105711523D02*
X144653238Y-105806761D01*
X144272285Y-105806761D01*
X144081809Y-105711523D01*
X143986571Y-105521047D01*
X143986571Y-104759142D01*
X144081809Y-104568666D01*
X144272285Y-104473428D01*
X144653238Y-104473428D01*
X144843714Y-104568666D01*
X144938952Y-104759142D01*
X144938952Y-104949619D01*
X143986571Y-105140095D01*
X147319904Y-105806761D02*
X147319904Y-103806761D01*
X147986571Y-105235333D01*
X148653238Y-103806761D01*
X148653238Y-105806761D01*
X149891333Y-105806761D02*
X149700857Y-105711523D01*
X149605619Y-105616285D01*
X149510380Y-105425809D01*
X149510380Y-104854380D01*
X149605619Y-104663904D01*
X149700857Y-104568666D01*
X149891333Y-104473428D01*
X150177047Y-104473428D01*
X150367523Y-104568666D01*
X150462761Y-104663904D01*
X150558000Y-104854380D01*
X150558000Y-105425809D01*
X150462761Y-105616285D01*
X150367523Y-105711523D01*
X150177047Y-105806761D01*
X149891333Y-105806761D01*
X152272285Y-105806761D02*
X152272285Y-103806761D01*
X152272285Y-105711523D02*
X152081809Y-105806761D01*
X151700857Y-105806761D01*
X151510380Y-105711523D01*
X151415142Y-105616285D01*
X151319904Y-105425809D01*
X151319904Y-104854380D01*
X151415142Y-104663904D01*
X151510380Y-104568666D01*
X151700857Y-104473428D01*
X152081809Y-104473428D01*
X152272285Y-104568666D01*
X154081809Y-104473428D02*
X154081809Y-105806761D01*
X153224666Y-104473428D02*
X153224666Y-105521047D01*
X153319904Y-105711523D01*
X153510380Y-105806761D01*
X153796095Y-105806761D01*
X153986571Y-105711523D01*
X154081809Y-105616285D01*
X155319904Y-105806761D02*
X155129428Y-105711523D01*
X155034190Y-105521047D01*
X155034190Y-103806761D01*
X156843714Y-105711523D02*
X156653238Y-105806761D01*
X156272285Y-105806761D01*
X156081809Y-105711523D01*
X155986571Y-105521047D01*
X155986571Y-104759142D01*
X156081809Y-104568666D01*
X156272285Y-104473428D01*
X156653238Y-104473428D01*
X156843714Y-104568666D01*
X156938952Y-104759142D01*
X156938952Y-104949619D01*
X155986571Y-105140095D01*
X160177047Y-104473428D02*
X160177047Y-105806761D01*
X159700857Y-103711523D02*
X159224666Y-105140095D01*
X160462761Y-105140095D01*
D10*
X169833333Y-109882380D02*
X169500000Y-109406190D01*
X169261904Y-109882380D02*
X169261904Y-108882380D01*
X169642857Y-108882380D01*
X169738095Y-108930000D01*
X169785714Y-108977619D01*
X169833333Y-109072857D01*
X169833333Y-109215714D01*
X169785714Y-109310952D01*
X169738095Y-109358571D01*
X169642857Y-109406190D01*
X169261904Y-109406190D01*
X170690476Y-109215714D02*
X170690476Y-109882380D01*
X170452380Y-108834761D02*
X170214285Y-109549047D01*
X170833333Y-109549047D01*
X169333333Y-111357142D02*
X169285714Y-111404761D01*
X169142857Y-111452380D01*
X169047619Y-111452380D01*
X168904761Y-111404761D01*
X168809523Y-111309523D01*
X168761904Y-111214285D01*
X168714285Y-111023809D01*
X168714285Y-110880952D01*
X168761904Y-110690476D01*
X168809523Y-110595238D01*
X168904761Y-110500000D01*
X169047619Y-110452380D01*
X169142857Y-110452380D01*
X169285714Y-110500000D01*
X169333333Y-110547619D01*
X170333333Y-111452380D02*
X170000000Y-110976190D01*
X169761904Y-111452380D02*
X169761904Y-110452380D01*
X170142857Y-110452380D01*
X170238095Y-110500000D01*
X170285714Y-110547619D01*
X170333333Y-110642857D01*
X170333333Y-110785714D01*
X170285714Y-110880952D01*
X170238095Y-110928571D01*
X170142857Y-110976190D01*
X169761904Y-110976190D01*
X171285714Y-111452380D02*
X170714285Y-111452380D01*
X171000000Y-111452380D02*
X171000000Y-110452380D01*
X170904761Y-110595238D01*
X170809523Y-110690476D01*
X170714285Y-110738095D01*
X169876130Y-96338154D02*
X170685654Y-96338154D01*
X170780892Y-96290535D01*
X170828511Y-96242916D01*
X170876130Y-96147678D01*
X170876130Y-95957202D01*
X170828511Y-95861964D01*
X170780892Y-95814345D01*
X170685654Y-95766726D01*
X169876130Y-95766726D01*
X170876130Y-94766726D02*
X170876130Y-95338154D01*
X170876130Y-95052440D02*
X169876130Y-95052440D01*
X170018988Y-95147678D01*
X170114226Y-95242916D01*
X170161845Y-95338154D01*
X175306130Y-87742916D02*
X174829940Y-88076250D01*
X175306130Y-88314345D02*
X174306130Y-88314345D01*
X174306130Y-87933392D01*
X174353750Y-87838154D01*
X174401369Y-87790535D01*
X174496607Y-87742916D01*
X174639464Y-87742916D01*
X174734702Y-87790535D01*
X174782321Y-87838154D01*
X174829940Y-87933392D01*
X174829940Y-88314345D01*
X174401369Y-87361964D02*
X174353750Y-87314345D01*
X174306130Y-87219107D01*
X174306130Y-86981011D01*
X174353750Y-86885773D01*
X174401369Y-86838154D01*
X174496607Y-86790535D01*
X174591845Y-86790535D01*
X174734702Y-86838154D01*
X175306130Y-87409583D01*
X175306130Y-86790535D01*
D12*
X166782380Y-127270833D02*
X167496666Y-127270833D01*
X167639523Y-127318452D01*
X167734761Y-127413690D01*
X167782380Y-127556547D01*
X167782380Y-127651785D01*
X167782380Y-126270833D02*
X167782380Y-126842261D01*
X167782380Y-126556547D02*
X166782380Y-126556547D01*
X166925238Y-126651785D01*
X167020476Y-126747023D01*
X167068095Y-126842261D01*
D10*
X172306130Y-92314345D02*
X171306130Y-92314345D01*
X171306130Y-92076250D01*
X171353750Y-91933392D01*
X171448988Y-91838154D01*
X171544226Y-91790535D01*
X171734702Y-91742916D01*
X171877559Y-91742916D01*
X172068035Y-91790535D01*
X172163273Y-91838154D01*
X172258511Y-91933392D01*
X172306130Y-92076250D01*
X172306130Y-92314345D01*
X171401369Y-91361964D02*
X171353750Y-91314345D01*
X171306130Y-91219107D01*
X171306130Y-90981011D01*
X171353750Y-90885773D01*
X171401369Y-90838154D01*
X171496607Y-90790535D01*
X171591845Y-90790535D01*
X171734702Y-90838154D01*
X172306130Y-91409583D01*
X172306130Y-90790535D01*
X175313580Y-91706366D02*
X174837390Y-92039700D01*
X175313580Y-92277795D02*
X174313580Y-92277795D01*
X174313580Y-91896842D01*
X174361200Y-91801604D01*
X174408819Y-91753985D01*
X174504057Y-91706366D01*
X174646914Y-91706366D01*
X174742152Y-91753985D01*
X174789771Y-91801604D01*
X174837390Y-91896842D01*
X174837390Y-92277795D01*
X174313580Y-91373033D02*
X174313580Y-90753985D01*
X174694533Y-91087319D01*
X174694533Y-90944461D01*
X174742152Y-90849223D01*
X174789771Y-90801604D01*
X174885009Y-90753985D01*
X175123104Y-90753985D01*
X175218342Y-90801604D01*
X175265961Y-90849223D01*
X175313580Y-90944461D01*
X175313580Y-91230176D01*
X175265961Y-91325414D01*
X175218342Y-91373033D01*
X172306130Y-88314345D02*
X171306130Y-88314345D01*
X171306130Y-88076250D01*
X171353750Y-87933392D01*
X171448988Y-87838154D01*
X171544226Y-87790535D01*
X171734702Y-87742916D01*
X171877559Y-87742916D01*
X172068035Y-87790535D01*
X172163273Y-87838154D01*
X172258511Y-87933392D01*
X172306130Y-88076250D01*
X172306130Y-88314345D01*
X172306130Y-86790535D02*
X172306130Y-87361964D01*
X172306130Y-87076250D02*
X171306130Y-87076250D01*
X171448988Y-87171488D01*
X171544226Y-87266726D01*
X171591845Y-87361964D01*
X173572380Y-116729166D02*
X173096190Y-117062500D01*
X173572380Y-117300595D02*
X172572380Y-117300595D01*
X172572380Y-116919642D01*
X172620000Y-116824404D01*
X172667619Y-116776785D01*
X172762857Y-116729166D01*
X172905714Y-116729166D01*
X173000952Y-116776785D01*
X173048571Y-116824404D01*
X173096190Y-116919642D01*
X173096190Y-117300595D01*
X173572380Y-115776785D02*
X173572380Y-116348214D01*
X173572380Y-116062500D02*
X172572380Y-116062500D01*
X172715238Y-116157738D01*
X172810476Y-116252976D01*
X172858095Y-116348214D01*
X173656666Y-97579380D02*
X173656666Y-98293666D01*
X173609047Y-98436523D01*
X173513809Y-98531761D01*
X173370952Y-98579380D01*
X173275714Y-98579380D01*
X174085238Y-97674619D02*
X174132857Y-97627000D01*
X174228095Y-97579380D01*
X174466190Y-97579380D01*
X174561428Y-97627000D01*
X174609047Y-97674619D01*
X174656666Y-97769857D01*
X174656666Y-97865095D01*
X174609047Y-98007952D01*
X174037619Y-98579380D01*
X174656666Y-98579380D01*
D13*
X170254724Y-108522500D02*
X169745276Y-108522500D01*
X170254724Y-107477500D02*
X169745276Y-107477500D01*
D14*
X170000000Y-119800600D02*
X169619000Y-119038600D01*
X170000000Y-119800600D02*
X169492000Y-119038600D01*
X172108200Y-112574300D02*
X171463040Y-112574300D01*
X168536960Y-112574300D02*
X167891800Y-112574300D01*
X170000000Y-119800600D02*
X170381000Y-119038600D01*
X170000000Y-119800600D02*
X170508000Y-119038600D01*
X170000000Y-119800600D02*
X170635000Y-119038600D01*
X169365000Y-119800600D02*
X170635000Y-119800600D01*
X167891800Y-112574300D02*
X167891800Y-117425700D01*
X170000000Y-119800600D02*
X170254000Y-119038600D01*
X170000000Y-118784600D02*
X170000000Y-120054600D01*
X170000000Y-119800600D02*
X169365000Y-119038600D01*
X170000000Y-119800600D02*
X170127000Y-119038600D01*
X167891800Y-117425700D02*
X168536960Y-117425700D01*
X171463040Y-117425700D02*
X172108200Y-117425700D01*
X169365000Y-119038600D02*
X170635000Y-119038600D01*
X170000000Y-119800600D02*
X169873000Y-119038600D01*
X170000000Y-119800600D02*
X169746000Y-119038600D01*
X172108200Y-117425700D02*
X172108200Y-112574300D01*
D13*
X171263750Y-94876250D02*
X171263750Y-96776250D01*
X173583750Y-96276250D02*
X173583750Y-94876250D01*
X173946250Y-87321526D02*
X173946250Y-87830974D01*
X172901250Y-87321526D02*
X172901250Y-87830974D01*
D15*
X171015000Y-129802500D02*
X172265000Y-129802500D01*
X176265000Y-129802500D02*
X176265000Y-120222500D01*
X171015000Y-120222500D02*
X172265000Y-120222500D01*
X176265000Y-120222500D02*
X174985000Y-120222500D01*
X174985000Y-129802500D02*
X176265000Y-129802500D01*
D13*
X171158750Y-92376250D02*
X171158750Y-90091250D01*
X169688750Y-90091250D02*
X169688750Y-92376250D01*
X171158750Y-90091250D02*
X169688750Y-90091250D01*
X173953700Y-91284976D02*
X173953700Y-91794424D01*
X172908700Y-91284976D02*
X172908700Y-91794424D01*
X171158750Y-88376250D02*
X171158750Y-86091250D01*
X169688750Y-86091250D02*
X169688750Y-88376250D01*
X171158750Y-86091250D02*
X169688750Y-86091250D01*
X174027500Y-116817224D02*
X174027500Y-116307776D01*
X175072500Y-116817224D02*
X175072500Y-116307776D01*
X172880000Y-100582000D02*
X172880000Y-101787000D01*
X172880000Y-99062000D02*
X173990000Y-99062000D01*
X172880000Y-100582000D02*
X173426529Y-100582000D01*
X172880000Y-99822000D02*
X172880000Y-99062000D01*
X175100000Y-100582000D02*
X175100000Y-101787000D01*
X174553471Y-100582000D02*
X175100000Y-100582000D01*
X172880000Y-101787000D02*
X173682470Y-101787000D01*
X174297530Y-101787000D02*
X175100000Y-101787000D01*
X131430000Y-114900000D02*
X131430000Y-113900000D01*
X127650000Y-92100000D02*
X127650000Y-93100000D01*
X161570000Y-92100000D02*
X161570000Y-93100000D01*
X165350000Y-92100000D02*
X165350000Y-93100000D01*
X166500000Y-130000000D02*
X166500000Y-82000000D01*
X131430000Y-114900000D02*
X127650000Y-114900000D01*
X165350000Y-114900000D02*
X161570000Y-114900000D01*
X131430000Y-92100000D02*
X131430000Y-93100000D01*
X127650000Y-114900000D02*
X127650000Y-113900000D01*
X131430000Y-92100000D02*
X127650000Y-92100000D01*
X126500000Y-82000000D02*
X126500000Y-130000000D01*
X165350000Y-92100000D02*
X161570000Y-92100000D01*
X163000000Y-78500000D02*
X130000000Y-78500000D01*
X130000000Y-133500000D02*
X163000000Y-133500000D01*
X126500000Y-82000000D02*
G75*
G02*
X130000000Y-78500000I3500000J0D01*
G01*
X166500000Y-130000000D02*
G75*
G02*
X163000000Y-133500000I-3500000J0D01*
G01*
X163000000Y-78500000D02*
G75*
G02*
X166500000Y-82000000I0J-3500000D01*
G01*
X130000000Y-133500000D02*
G75*
G02*
X126500000Y-130000000I0J3500000D01*
G01*
M02*
