G04 #@! TF.GenerationSoftware,KiCad,Pcbnew,(5.99.0-10632-g8f3343b9e3)*
G04 #@! TF.CreationDate,2021-06-18T06:45:42-04:00*
G04 #@! TF.ProjectId,rpi-cm4-LiM+-board,7270692d-636d-4342-9d4c-694d2b2d626f,v01*
G04 #@! TF.SameCoordinates,Original*
G04 #@! TF.FileFunction,Soldermask,Top*
G04 #@! TF.FilePolarity,Negative*
%FSLAX46Y46*%
G04 Gerber Fmt 4.6, Leading zero omitted, Abs format (unit mm)*
G04 Created by KiCad (PCBNEW (5.99.0-10632-g8f3343b9e3)) date 2021-06-18 06:45:42*
%MOMM*%
%LPD*%
G01*
G04 APERTURE LIST*
G04 Aperture macros list*
%AMRoundRect*
0 Rectangle with rounded corners*
0 $1 Rounding radius*
0 $2 $3 $4 $5 $6 $7 $8 $9 X,Y pos of 4 corners*
0 Add a 4 corners polygon primitive as box body*
4,1,4,$2,$3,$4,$5,$6,$7,$8,$9,$2,$3,0*
0 Add four circle primitives for the rounded corners*
1,1,$1+$1,$2,$3*
1,1,$1+$1,$4,$5*
1,1,$1+$1,$6,$7*
1,1,$1+$1,$8,$9*
0 Add four rect primitives between the rounded corners*
20,1,$1+$1,$2,$3,$4,$5,0*
20,1,$1+$1,$4,$5,$6,$7,0*
20,1,$1+$1,$6,$7,$8,$9,0*
20,1,$1+$1,$8,$9,$2,$3,0*%
G04 Aperture macros list end*
%ADD10C,2.000000*%
%ADD11RoundRect,0.237500X0.250000X0.237500X-0.250000X0.237500X-0.250000X-0.237500X0.250000X-0.237500X0*%
%ADD12R,2.260600X2.311400*%
%ADD13R,0.400000X0.650000*%
%ADD14RoundRect,0.237500X-0.237500X0.250000X-0.237500X-0.250000X0.237500X-0.250000X0.237500X0.250000X0*%
%ADD15R,1.150000X0.600000*%
%ADD16R,1.150000X0.300000*%
%ADD17O,2.000000X1.000000*%
%ADD18O,2.100000X1.050000*%
%ADD19C,0.650000*%
%ADD20RoundRect,0.218750X-0.256250X0.218750X-0.256250X-0.218750X0.256250X-0.218750X0.256250X0.218750X0*%
%ADD21RoundRect,0.237500X0.237500X-0.250000X0.237500X0.250000X-0.237500X0.250000X-0.237500X-0.250000X0*%
%ADD22R,1.000000X1.000000*%
%ADD23O,1.000000X1.000000*%
%ADD24C,6.100000*%
%ADD25R,0.700000X0.200000*%
G04 APERTURE END LIST*
D10*
X135128000Y-80518000D03*
D11*
X170912500Y-108000000D03*
X169087500Y-108000000D03*
D10*
X171958000Y-131572000D03*
D12*
X170000000Y-116993900D03*
X170000000Y-113006100D03*
D13*
X171773750Y-96526250D03*
X172423750Y-96526250D03*
X173073750Y-96526250D03*
X173073750Y-94626250D03*
X171773750Y-94626250D03*
D14*
X173423750Y-86663750D03*
X173423750Y-88488750D03*
D15*
X168910000Y-128212500D03*
X168910000Y-127412500D03*
D16*
X168910000Y-126262500D03*
X168910000Y-125262500D03*
X168910000Y-124762500D03*
X168910000Y-123762500D03*
D15*
X168910000Y-121812500D03*
X168910000Y-122612500D03*
D16*
X168910000Y-123262500D03*
X168910000Y-124262500D03*
X168910000Y-125762500D03*
X168910000Y-126762500D03*
D17*
X173665000Y-129332500D03*
X173665000Y-120692500D03*
D18*
X169485000Y-129332500D03*
X169485000Y-120692500D03*
D19*
X169985000Y-127902500D03*
X169985000Y-122122500D03*
D20*
X170423750Y-90788750D03*
X170423750Y-92363750D03*
D14*
X173431200Y-90627200D03*
X173431200Y-92452200D03*
D20*
X170423750Y-86788750D03*
X170423750Y-88363750D03*
D21*
X174550000Y-117475000D03*
X174550000Y-115650000D03*
D22*
X173990000Y-99822000D03*
D23*
X173990000Y-101092000D03*
D10*
X173000000Y-80500000D03*
D24*
X163000000Y-82000000D03*
X130000000Y-130000000D03*
X130000000Y-82000000D03*
X163000000Y-130000000D03*
D25*
X165000000Y-113300000D03*
X161920000Y-113300000D03*
X165000000Y-112900000D03*
X161920000Y-112900000D03*
X165000000Y-112500000D03*
X161920000Y-112500000D03*
X165000000Y-112100000D03*
X161920000Y-112100000D03*
X165000000Y-111700000D03*
X161920000Y-111700000D03*
X165000000Y-111300000D03*
X161920000Y-111300000D03*
X165000000Y-110900000D03*
X161920000Y-110900000D03*
X165000000Y-110500000D03*
X161920000Y-110500000D03*
X165000000Y-110100000D03*
X161920000Y-110100000D03*
X165000000Y-109700000D03*
X161920000Y-109700000D03*
X165000000Y-109300000D03*
X161920000Y-109300000D03*
X165000000Y-108900000D03*
X161920000Y-108900000D03*
X165000000Y-108500000D03*
X161920000Y-108500000D03*
X165000000Y-108100000D03*
X161920000Y-108100000D03*
X165000000Y-107700000D03*
X161920000Y-107700000D03*
X165000000Y-107300000D03*
X161920000Y-107300000D03*
X165000000Y-106900000D03*
X161920000Y-106900000D03*
X165000000Y-106500000D03*
X161920000Y-106500000D03*
X165000000Y-106100000D03*
X161920000Y-106100000D03*
X165000000Y-105700000D03*
X161920000Y-105700000D03*
X165000000Y-105300000D03*
X161920000Y-105300000D03*
X165000000Y-104900000D03*
X161920000Y-104900000D03*
X165000000Y-104500000D03*
X161920000Y-104500000D03*
X165000000Y-104100000D03*
X161920000Y-104100000D03*
X165000000Y-103700000D03*
X161920000Y-103700000D03*
X165000000Y-103300000D03*
X161920000Y-103300000D03*
X165000000Y-102900000D03*
X161920000Y-102900000D03*
X165000000Y-102500000D03*
X161920000Y-102500000D03*
X165000000Y-102100000D03*
X161920000Y-102100000D03*
X165000000Y-101700000D03*
X161920000Y-101700000D03*
X165000000Y-101300000D03*
X161920000Y-101300000D03*
X165000000Y-100900000D03*
X161920000Y-100900000D03*
X165000000Y-100500000D03*
X161920000Y-100500000D03*
X165000000Y-100100000D03*
X161920000Y-100100000D03*
X165000000Y-99700000D03*
X161920000Y-99700000D03*
X165000000Y-99300000D03*
X161920000Y-99300000D03*
X165000000Y-98900000D03*
X161920000Y-98900000D03*
X165000000Y-98500000D03*
X161920000Y-98500000D03*
X165000000Y-98100000D03*
X161920000Y-98100000D03*
X165000000Y-97700000D03*
X161920000Y-97700000D03*
X165000000Y-97300000D03*
X161920000Y-97300000D03*
X165000000Y-96900000D03*
X161920000Y-96900000D03*
X165000000Y-96500000D03*
X161920000Y-96500000D03*
X165000000Y-96100000D03*
X161920000Y-96100000D03*
X165000000Y-95700000D03*
X161920000Y-95700000D03*
X165000000Y-95300000D03*
X161920000Y-95300000D03*
X165000000Y-94900000D03*
X161920000Y-94900000D03*
X165000000Y-94500000D03*
X161920000Y-94500000D03*
X165000000Y-94100000D03*
X161920000Y-94100000D03*
X165000000Y-93700000D03*
X161920000Y-93700000D03*
X131080000Y-113300000D03*
X128000000Y-113300000D03*
X131080000Y-112900000D03*
X128000000Y-112900000D03*
X131080000Y-112500000D03*
X128000000Y-112500000D03*
X131080000Y-112100000D03*
X128000000Y-112100000D03*
X131080000Y-111700000D03*
X128000000Y-111700000D03*
X131080000Y-111300000D03*
X128000000Y-111300000D03*
X131080000Y-110900000D03*
X128000000Y-110900000D03*
X131080000Y-110500000D03*
X128000000Y-110500000D03*
X131080000Y-110100000D03*
X128000000Y-110100000D03*
X131080000Y-109700000D03*
X128000000Y-109700000D03*
X131080000Y-109300000D03*
X128000000Y-109300000D03*
X131080000Y-108900000D03*
X128000000Y-108900000D03*
X131080000Y-108500000D03*
X128000000Y-108500000D03*
X131080000Y-108100000D03*
X128000000Y-108100000D03*
X131080000Y-107700000D03*
X128000000Y-107700000D03*
X131080000Y-107300000D03*
X128000000Y-107300000D03*
X131080000Y-106900000D03*
X128000000Y-106900000D03*
X131080000Y-106500000D03*
X128000000Y-106500000D03*
X131080000Y-106100000D03*
X128000000Y-106100000D03*
X131080000Y-105700000D03*
X128000000Y-105700000D03*
X131080000Y-105300000D03*
X128000000Y-105300000D03*
X131080000Y-104900000D03*
X128000000Y-104900000D03*
X131080000Y-104500000D03*
X128000000Y-104500000D03*
X131080000Y-104100000D03*
X128000000Y-104100000D03*
X131080000Y-103700000D03*
X128000000Y-103700000D03*
X131080000Y-103300000D03*
X128000000Y-103300000D03*
X131080000Y-102900000D03*
X128000000Y-102900000D03*
X131080000Y-102500000D03*
X128000000Y-102500000D03*
X131080000Y-102100000D03*
X128000000Y-102100000D03*
X131080000Y-101700000D03*
X128000000Y-101700000D03*
X131080000Y-101300000D03*
X128000000Y-101300000D03*
X131080000Y-100900000D03*
X128000000Y-100900000D03*
X131080000Y-100500000D03*
X128000000Y-100500000D03*
X131080000Y-100100000D03*
X128000000Y-100100000D03*
X131080000Y-99700000D03*
X128000000Y-99700000D03*
X131080000Y-99300000D03*
X128000000Y-99300000D03*
X131080000Y-98900000D03*
X128000000Y-98900000D03*
X131080000Y-98500000D03*
X128000000Y-98500000D03*
X131080000Y-98100000D03*
X128000000Y-98100000D03*
X131080000Y-97700000D03*
X128000000Y-97700000D03*
X131080000Y-97300000D03*
X128000000Y-97300000D03*
X131080000Y-96900000D03*
X128000000Y-96900000D03*
X131080000Y-96500000D03*
X128000000Y-96500000D03*
X131080000Y-96100000D03*
X128000000Y-96100000D03*
X131080000Y-95700000D03*
X128000000Y-95700000D03*
X131080000Y-95300000D03*
X128000000Y-95300000D03*
X131080000Y-94900000D03*
X128000000Y-94900000D03*
X131080000Y-94500000D03*
X128000000Y-94500000D03*
X131080000Y-94100000D03*
X128000000Y-94100000D03*
X131080000Y-93700000D03*
X128000000Y-93700000D03*
M02*
