G04 #@! TF.GenerationSoftware,KiCad,Pcbnew,(5.99.0-10632-g8f3343b9e3)*
G04 #@! TF.CreationDate,2021-06-18T06:45:42-04:00*
G04 #@! TF.ProjectId,rpi-cm4-LiM+-board,7270692d-636d-4342-9d4c-694d2b2d626f,v01*
G04 #@! TF.SameCoordinates,Original*
G04 #@! TF.FileFunction,Copper,L1,Top*
G04 #@! TF.FilePolarity,Positive*
%FSLAX46Y46*%
G04 Gerber Fmt 4.6, Leading zero omitted, Abs format (unit mm)*
G04 Created by KiCad (PCBNEW (5.99.0-10632-g8f3343b9e3)) date 2021-06-18 06:45:42*
%MOMM*%
%LPD*%
G01*
G04 APERTURE LIST*
G04 Aperture macros list*
%AMRoundRect*
0 Rectangle with rounded corners*
0 $1 Rounding radius*
0 $2 $3 $4 $5 $6 $7 $8 $9 X,Y pos of 4 corners*
0 Add a 4 corners polygon primitive as box body*
4,1,4,$2,$3,$4,$5,$6,$7,$8,$9,$2,$3,0*
0 Add four circle primitives for the rounded corners*
1,1,$1+$1,$2,$3*
1,1,$1+$1,$4,$5*
1,1,$1+$1,$6,$7*
1,1,$1+$1,$8,$9*
0 Add four rect primitives between the rounded corners*
20,1,$1+$1,$2,$3,$4,$5,0*
20,1,$1+$1,$4,$5,$6,$7,0*
20,1,$1+$1,$6,$7,$8,$9,0*
20,1,$1+$1,$8,$9,$2,$3,0*%
G04 Aperture macros list end*
G04 #@! TA.AperFunction,SMDPad,CuDef*
%ADD10C,1.000000*%
G04 #@! TD*
G04 #@! TA.AperFunction,SMDPad,CuDef*
%ADD11RoundRect,0.237500X0.250000X0.237500X-0.250000X0.237500X-0.250000X-0.237500X0.250000X-0.237500X0*%
G04 #@! TD*
G04 #@! TA.AperFunction,SMDPad,CuDef*
%ADD12R,2.260600X2.311400*%
G04 #@! TD*
G04 #@! TA.AperFunction,SMDPad,CuDef*
%ADD13R,0.400000X0.650000*%
G04 #@! TD*
G04 #@! TA.AperFunction,SMDPad,CuDef*
%ADD14RoundRect,0.237500X-0.237500X0.250000X-0.237500X-0.250000X0.237500X-0.250000X0.237500X0.250000X0*%
G04 #@! TD*
G04 #@! TA.AperFunction,SMDPad,CuDef*
%ADD15R,1.150000X0.600000*%
G04 #@! TD*
G04 #@! TA.AperFunction,SMDPad,CuDef*
%ADD16R,1.150000X0.300000*%
G04 #@! TD*
G04 #@! TA.AperFunction,ComponentPad*
%ADD17O,2.000000X1.000000*%
G04 #@! TD*
G04 #@! TA.AperFunction,ComponentPad*
%ADD18O,2.100000X1.050000*%
G04 #@! TD*
G04 #@! TA.AperFunction,SMDPad,CuDef*
%ADD19RoundRect,0.218750X-0.256250X0.218750X-0.256250X-0.218750X0.256250X-0.218750X0.256250X0.218750X0*%
G04 #@! TD*
G04 #@! TA.AperFunction,SMDPad,CuDef*
%ADD20RoundRect,0.237500X0.237500X-0.250000X0.237500X0.250000X-0.237500X0.250000X-0.237500X-0.250000X0*%
G04 #@! TD*
G04 #@! TA.AperFunction,ComponentPad*
%ADD21R,1.000000X1.000000*%
G04 #@! TD*
G04 #@! TA.AperFunction,ComponentPad*
%ADD22O,1.000000X1.000000*%
G04 #@! TD*
G04 #@! TA.AperFunction,SMDPad,CuDef*
%ADD23R,0.700000X0.200000*%
G04 #@! TD*
G04 #@! TA.AperFunction,ViaPad*
%ADD24C,0.508000*%
G04 #@! TD*
G04 #@! TA.AperFunction,Conductor*
%ADD25C,0.200000*%
G04 #@! TD*
G04 #@! TA.AperFunction,Conductor*
%ADD26C,0.800000*%
G04 #@! TD*
G04 #@! TA.AperFunction,Conductor*
%ADD27C,1.350000*%
G04 #@! TD*
G04 #@! TA.AperFunction,Conductor*
%ADD28C,0.600000*%
G04 #@! TD*
G04 #@! TA.AperFunction,Conductor*
%ADD29C,0.300000*%
G04 #@! TD*
G04 #@! TA.AperFunction,Conductor*
%ADD30C,0.152400*%
G04 #@! TD*
G04 APERTURE END LIST*
D10*
X135128000Y-80518000D03*
D11*
X170912500Y-108000000D03*
X169087500Y-108000000D03*
D10*
X171958000Y-131572000D03*
D12*
X170000000Y-116993900D03*
X170000000Y-113006100D03*
D13*
X171773750Y-96526250D03*
X172423750Y-96526250D03*
X173073750Y-96526250D03*
X173073750Y-94626250D03*
X171773750Y-94626250D03*
D14*
X173423750Y-86663750D03*
X173423750Y-88488750D03*
D15*
X168910000Y-128212500D03*
X168910000Y-127412500D03*
D16*
X168910000Y-126262500D03*
X168910000Y-125262500D03*
X168910000Y-124762500D03*
X168910000Y-123762500D03*
D15*
X168910000Y-121812500D03*
X168910000Y-122612500D03*
D16*
X168910000Y-123262500D03*
X168910000Y-124262500D03*
X168910000Y-125762500D03*
X168910000Y-126762500D03*
D17*
X173665000Y-129332500D03*
X173665000Y-120692500D03*
D18*
X169485000Y-129332500D03*
X169485000Y-120692500D03*
D19*
X170423750Y-90788750D03*
X170423750Y-92363750D03*
D14*
X173431200Y-90627200D03*
X173431200Y-92452200D03*
D19*
X170423750Y-86788750D03*
X170423750Y-88363750D03*
D20*
X174550000Y-117475000D03*
X174550000Y-115650000D03*
D21*
X173990000Y-99822000D03*
D22*
X173990000Y-101092000D03*
D10*
X173000000Y-80500000D03*
D23*
X165000000Y-113300000D03*
X161920000Y-113300000D03*
X165000000Y-112900000D03*
X161920000Y-112900000D03*
X165000000Y-112500000D03*
X161920000Y-112500000D03*
X165000000Y-112100000D03*
X161920000Y-112100000D03*
X165000000Y-111700000D03*
X161920000Y-111700000D03*
X165000000Y-111300000D03*
X161920000Y-111300000D03*
X165000000Y-110900000D03*
X161920000Y-110900000D03*
X165000000Y-110500000D03*
X161920000Y-110500000D03*
X165000000Y-110100000D03*
X161920000Y-110100000D03*
X165000000Y-109700000D03*
X161920000Y-109700000D03*
X165000000Y-109300000D03*
X161920000Y-109300000D03*
X165000000Y-108900000D03*
X161920000Y-108900000D03*
X165000000Y-108500000D03*
X161920000Y-108500000D03*
X165000000Y-108100000D03*
X161920000Y-108100000D03*
X165000000Y-107700000D03*
X161920000Y-107700000D03*
X165000000Y-107300000D03*
X161920000Y-107300000D03*
X165000000Y-106900000D03*
X161920000Y-106900000D03*
X165000000Y-106500000D03*
X161920000Y-106500000D03*
X165000000Y-106100000D03*
X161920000Y-106100000D03*
X165000000Y-105700000D03*
X161920000Y-105700000D03*
X165000000Y-105300000D03*
X161920000Y-105300000D03*
X165000000Y-104900000D03*
X161920000Y-104900000D03*
X165000000Y-104500000D03*
X161920000Y-104500000D03*
X165000000Y-104100000D03*
X161920000Y-104100000D03*
X165000000Y-103700000D03*
X161920000Y-103700000D03*
X165000000Y-103300000D03*
X161920000Y-103300000D03*
X165000000Y-102900000D03*
X161920000Y-102900000D03*
X165000000Y-102500000D03*
X161920000Y-102500000D03*
X165000000Y-102100000D03*
X161920000Y-102100000D03*
X165000000Y-101700000D03*
X161920000Y-101700000D03*
X165000000Y-101300000D03*
X161920000Y-101300000D03*
X165000000Y-100900000D03*
X161920000Y-100900000D03*
X165000000Y-100500000D03*
X161920000Y-100500000D03*
X165000000Y-100100000D03*
X161920000Y-100100000D03*
X165000000Y-99700000D03*
X161920000Y-99700000D03*
X165000000Y-99300000D03*
X161920000Y-99300000D03*
X165000000Y-98900000D03*
X161920000Y-98900000D03*
X165000000Y-98500000D03*
X161920000Y-98500000D03*
X165000000Y-98100000D03*
X161920000Y-98100000D03*
X165000000Y-97700000D03*
X161920000Y-97700000D03*
X165000000Y-97300000D03*
X161920000Y-97300000D03*
X165000000Y-96900000D03*
X161920000Y-96900000D03*
X165000000Y-96500000D03*
X161920000Y-96500000D03*
X165000000Y-96100000D03*
X161920000Y-96100000D03*
X165000000Y-95700000D03*
X161920000Y-95700000D03*
X165000000Y-95300000D03*
X161920000Y-95300000D03*
X165000000Y-94900000D03*
X161920000Y-94900000D03*
X165000000Y-94500000D03*
X161920000Y-94500000D03*
X165000000Y-94100000D03*
X161920000Y-94100000D03*
X165000000Y-93700000D03*
X161920000Y-93700000D03*
X131080000Y-113300000D03*
X128000000Y-113300000D03*
X131080000Y-112900000D03*
X128000000Y-112900000D03*
X131080000Y-112500000D03*
X128000000Y-112500000D03*
X131080000Y-112100000D03*
X128000000Y-112100000D03*
X131080000Y-111700000D03*
X128000000Y-111700000D03*
X131080000Y-111300000D03*
X128000000Y-111300000D03*
X131080000Y-110900000D03*
X128000000Y-110900000D03*
X131080000Y-110500000D03*
X128000000Y-110500000D03*
X131080000Y-110100000D03*
X128000000Y-110100000D03*
X131080000Y-109700000D03*
X128000000Y-109700000D03*
X131080000Y-109300000D03*
X128000000Y-109300000D03*
X131080000Y-108900000D03*
X128000000Y-108900000D03*
X131080000Y-108500000D03*
X128000000Y-108500000D03*
X131080000Y-108100000D03*
X128000000Y-108100000D03*
X131080000Y-107700000D03*
X128000000Y-107700000D03*
X131080000Y-107300000D03*
X128000000Y-107300000D03*
X131080000Y-106900000D03*
X128000000Y-106900000D03*
X131080000Y-106500000D03*
X128000000Y-106500000D03*
X131080000Y-106100000D03*
X128000000Y-106100000D03*
X131080000Y-105700000D03*
X128000000Y-105700000D03*
X131080000Y-105300000D03*
X128000000Y-105300000D03*
X131080000Y-104900000D03*
X128000000Y-104900000D03*
X131080000Y-104500000D03*
X128000000Y-104500000D03*
X131080000Y-104100000D03*
X128000000Y-104100000D03*
X131080000Y-103700000D03*
X128000000Y-103700000D03*
X131080000Y-103300000D03*
X128000000Y-103300000D03*
X131080000Y-102900000D03*
X128000000Y-102900000D03*
X131080000Y-102500000D03*
X128000000Y-102500000D03*
X131080000Y-102100000D03*
X128000000Y-102100000D03*
X131080000Y-101700000D03*
X128000000Y-101700000D03*
X131080000Y-101300000D03*
X128000000Y-101300000D03*
X131080000Y-100900000D03*
X128000000Y-100900000D03*
X131080000Y-100500000D03*
X128000000Y-100500000D03*
X131080000Y-100100000D03*
X128000000Y-100100000D03*
X131080000Y-99700000D03*
X128000000Y-99700000D03*
X131080000Y-99300000D03*
X128000000Y-99300000D03*
X131080000Y-98900000D03*
X128000000Y-98900000D03*
X131080000Y-98500000D03*
X128000000Y-98500000D03*
X131080000Y-98100000D03*
X128000000Y-98100000D03*
X131080000Y-97700000D03*
X128000000Y-97700000D03*
X131080000Y-97300000D03*
X128000000Y-97300000D03*
X131080000Y-96900000D03*
X128000000Y-96900000D03*
X131080000Y-96500000D03*
X128000000Y-96500000D03*
X131080000Y-96100000D03*
X128000000Y-96100000D03*
X131080000Y-95700000D03*
X128000000Y-95700000D03*
X131080000Y-95300000D03*
X128000000Y-95300000D03*
X131080000Y-94900000D03*
X128000000Y-94900000D03*
X131080000Y-94500000D03*
X128000000Y-94500000D03*
X131080000Y-94100000D03*
X128000000Y-94100000D03*
X131080000Y-93700000D03*
X128000000Y-93700000D03*
D24*
X155000000Y-130000000D03*
X171000000Y-103500000D03*
X127000000Y-92000000D03*
X171000000Y-80500000D03*
X144000000Y-82000000D03*
X145500000Y-86000000D03*
X128778000Y-88138000D03*
X157000000Y-82000000D03*
X131064000Y-125730000D03*
X171000000Y-101500000D03*
X139000000Y-82175000D03*
X144000000Y-84000000D03*
X155500000Y-86000000D03*
X133500000Y-92500000D03*
X144000000Y-80000000D03*
X133500000Y-97500000D03*
X173150000Y-114250000D03*
X157000000Y-84000000D03*
X147000000Y-130000000D03*
X129000000Y-116000000D03*
X138000000Y-130000000D03*
X153500000Y-86000000D03*
X175500000Y-90000000D03*
X157000000Y-80000000D03*
X131238000Y-123730000D03*
X147500000Y-86000000D03*
X151500000Y-86000000D03*
X163000000Y-121000000D03*
X167000000Y-92000000D03*
X149500000Y-86000000D03*
X169000000Y-110000000D03*
X174023750Y-96476250D03*
X127000000Y-101092000D03*
X171000000Y-99000000D03*
X160700000Y-110000000D03*
X172310000Y-89240000D03*
X163500000Y-108760000D03*
X167066513Y-124583487D03*
X133350000Y-113030200D03*
X133350000Y-113030200D03*
X167066513Y-124583487D03*
X133350000Y-112369800D03*
X133350000Y-112369800D03*
X167533487Y-124116513D03*
X167533487Y-124116513D03*
D25*
X131080000Y-107300000D02*
X132200000Y-107300000D01*
X162810880Y-105300000D02*
X164410880Y-106900000D01*
X127000000Y-103400000D02*
X127000000Y-102700000D01*
X162909120Y-102900000D02*
X162509120Y-103300000D01*
X161920000Y-101700000D02*
X163600000Y-101700000D01*
X162508631Y-107300489D02*
X161920489Y-107300489D01*
X163100000Y-98900000D02*
X161920000Y-98900000D01*
X161920000Y-100500000D02*
X162400000Y-100500000D01*
X164410880Y-106900000D02*
X165000000Y-106900000D01*
X162810880Y-109300000D02*
X163405440Y-109894560D01*
X128000000Y-108500000D02*
X128786800Y-108500000D01*
X173073750Y-96526250D02*
X173973750Y-96526250D01*
X131088911Y-110900000D02*
X131089400Y-110900489D01*
X163700000Y-102900000D02*
X165000000Y-102900000D01*
X128000000Y-98900000D02*
X131080000Y-98900000D01*
X128000000Y-97700000D02*
X131080000Y-97700000D01*
X161920489Y-107300489D02*
X161920000Y-107300000D01*
X131080000Y-100100000D02*
X132100000Y-100100000D01*
X164109120Y-104900000D02*
X165000000Y-104900000D01*
X173973750Y-96526250D02*
X174023750Y-96476250D01*
X161920000Y-105300000D02*
X162810880Y-105300000D01*
X163500000Y-101600000D02*
X163500000Y-102700000D01*
X162509120Y-103300000D02*
X164109120Y-104900000D01*
X131080000Y-110900000D02*
X132200000Y-110900000D01*
D26*
X169720000Y-120680000D02*
X169150000Y-121250000D01*
D25*
X165000000Y-113300000D02*
X164410880Y-113300000D01*
X126900000Y-106200000D02*
X127060391Y-106039609D01*
X131080000Y-109700000D02*
X132200000Y-109700000D01*
X132200000Y-107300000D02*
X132200000Y-108500000D01*
X129438400Y-104013000D02*
X129438400Y-104546400D01*
X173990000Y-101092000D02*
X171408000Y-101092000D01*
X128000000Y-103700000D02*
X129125400Y-103700000D01*
X162509120Y-105300000D02*
X161920000Y-105300000D01*
X165000000Y-99300000D02*
X165589120Y-99300000D01*
X164459197Y-108900000D02*
X165000000Y-108900000D01*
X169145000Y-121800000D02*
X169150000Y-121795000D01*
X132100000Y-100100000D02*
X132200000Y-100200000D01*
X161920000Y-107300000D02*
X162859197Y-107300000D01*
X128000000Y-101300000D02*
X127208000Y-101300000D01*
X131080489Y-110900489D02*
X131080000Y-110900000D01*
X131080000Y-102500000D02*
X132100000Y-102500000D01*
X131080489Y-96499511D02*
X131080000Y-96500000D01*
X131080000Y-98900000D02*
X132200000Y-98900000D01*
X165649511Y-99360391D02*
X165649511Y-100439609D01*
X131080000Y-108500000D02*
X132200000Y-108500000D01*
X170000000Y-111000000D02*
X169000000Y-110000000D01*
X163500000Y-112200000D02*
X163500000Y-109989120D01*
X131080000Y-106100000D02*
X132200000Y-106100000D01*
X163500000Y-112389120D02*
X163500000Y-112200000D01*
X128000000Y-95300000D02*
X131080000Y-95300000D01*
X161920000Y-110900000D02*
X165000000Y-110900000D01*
X165000000Y-102900000D02*
X162909120Y-102900000D01*
X165589120Y-100500000D02*
X165000000Y-100500000D01*
X131080000Y-101300000D02*
X132200000Y-101300000D01*
X129438400Y-104546400D02*
X129084800Y-104900000D01*
X131080000Y-95300000D02*
X132200000Y-95300000D01*
X132200000Y-98900000D02*
X132200000Y-100200000D01*
X128000000Y-109700000D02*
X131080000Y-109700000D01*
X164700000Y-92000000D02*
X167000000Y-92000000D01*
X132200000Y-95300000D02*
X132200000Y-96500000D01*
X131080000Y-97700000D02*
X132200000Y-97700000D01*
X130026800Y-106100000D02*
X131080000Y-106100000D01*
X132200000Y-108500000D02*
X132200000Y-109700000D01*
X165649511Y-100439609D02*
X165589120Y-100500000D01*
X164410880Y-110900000D02*
X165000000Y-110900000D01*
X165589120Y-99300000D02*
X165649511Y-99360391D01*
X132200000Y-94100000D02*
X132200000Y-95300000D01*
X161920000Y-94100000D02*
X162600000Y-94100000D01*
X173150000Y-114250000D02*
X174550000Y-115650000D01*
X131080000Y-94100000D02*
X132200000Y-94100000D01*
X165000000Y-104900000D02*
X162909120Y-104900000D01*
X165000000Y-99300000D02*
X163500000Y-99300000D01*
X128000000Y-110900000D02*
X131088911Y-110900000D01*
X163500000Y-102700000D02*
X163700000Y-102900000D01*
X132200000Y-109700000D02*
X132200000Y-110900000D01*
X171408000Y-101092000D02*
X171000000Y-101500000D01*
X161920000Y-113300000D02*
X163500000Y-113300000D01*
X131241311Y-96500000D02*
X131241800Y-96499511D01*
X126900000Y-107200000D02*
X126900000Y-106200000D01*
X131080000Y-96500000D02*
X132200000Y-96500000D01*
X132200000Y-97700000D02*
X132200000Y-98900000D01*
X163500000Y-109989120D02*
X162946489Y-109435609D01*
X163500000Y-113300000D02*
X165000000Y-113300000D01*
X162859197Y-107300000D02*
X164459197Y-108900000D01*
X127060391Y-106039609D02*
X127350489Y-106039609D01*
D26*
X169145000Y-128745000D02*
X169720000Y-129320000D01*
D25*
X128000000Y-112100000D02*
X131080000Y-112100000D01*
X132100000Y-102500000D02*
X132200000Y-102600000D01*
X127350489Y-106039609D02*
X127410880Y-106100000D01*
X163405440Y-109894560D02*
X164410880Y-110900000D01*
X131089400Y-110900489D02*
X131080489Y-110900489D01*
X131241800Y-96499511D02*
X131080489Y-96499511D01*
X162400000Y-100500000D02*
X163500000Y-101600000D01*
D26*
X169150000Y-121250000D02*
X169150000Y-121500000D01*
D25*
X169150000Y-121795000D02*
X169150000Y-121500000D01*
X170000000Y-113006100D02*
X170000000Y-111000000D01*
X128826800Y-104900000D02*
X130026800Y-106100000D01*
X162909120Y-104900000D02*
X162509120Y-105300000D01*
X127410880Y-106100000D02*
X128000000Y-106100000D01*
X163600000Y-101700000D02*
X165000000Y-101700000D01*
X127300000Y-103700000D02*
X127000000Y-103400000D01*
X128000000Y-102500000D02*
X131080000Y-102500000D01*
X161920000Y-103300000D02*
X162509120Y-103300000D01*
X132200000Y-102600000D02*
X132200000Y-106100000D01*
X127000000Y-107300000D02*
X126900000Y-107200000D01*
X132200000Y-96500000D02*
X132200000Y-97700000D01*
X132200000Y-106100000D02*
X132200000Y-107300000D01*
X128000000Y-106100000D02*
X131080000Y-106100000D01*
X129084800Y-104900000D02*
X128000000Y-104900000D01*
X163500000Y-113300000D02*
X163500000Y-112200000D01*
X128000000Y-100100000D02*
X131080000Y-100100000D01*
X132200000Y-100200000D02*
X132200000Y-101300000D01*
X161920000Y-100500000D02*
X165000000Y-100500000D01*
X128000000Y-94100000D02*
X131080000Y-94100000D01*
X132200000Y-110900000D02*
X132200000Y-111900000D01*
X127208000Y-101300000D02*
X127000000Y-101092000D01*
X132200000Y-101300000D02*
X132200000Y-102600000D01*
X128786800Y-108500000D02*
X129986800Y-107300000D01*
D26*
X169145000Y-128495000D02*
X169145000Y-128745000D01*
D25*
X132000000Y-112100000D02*
X131080000Y-112100000D01*
X128000000Y-104900000D02*
X128826800Y-104900000D01*
X129986800Y-107300000D02*
X131080000Y-107300000D01*
X127000000Y-102700000D02*
X127200000Y-102500000D01*
X127200000Y-102500000D02*
X128000000Y-102500000D01*
X129125400Y-103700000D02*
X129438400Y-104013000D01*
X161920000Y-109300000D02*
X162810880Y-109300000D01*
X132200000Y-111900000D02*
X132000000Y-112100000D01*
X128000000Y-103700000D02*
X127300000Y-103700000D01*
X131080000Y-108500000D02*
X128000000Y-108500000D01*
X128000000Y-96500000D02*
X131241311Y-96500000D01*
X163500000Y-99300000D02*
X163100000Y-98900000D01*
X162600000Y-94100000D02*
X164700000Y-92000000D01*
X161920000Y-112100000D02*
X165000000Y-112100000D01*
X128000000Y-101300000D02*
X131080000Y-101300000D01*
X163500000Y-101600000D02*
X163600000Y-101700000D01*
X128000000Y-107300000D02*
X127000000Y-107300000D01*
X163500000Y-109989120D02*
X163405440Y-109894560D01*
X165000000Y-96500000D02*
X166000000Y-96500000D01*
D27*
X170000000Y-116993900D02*
X168606100Y-116993900D01*
D25*
X165000000Y-97300000D02*
X166000000Y-97300000D01*
D27*
X165850000Y-122550000D02*
X165450000Y-122950000D01*
D25*
X166000000Y-97700000D02*
X166400000Y-98100000D01*
D28*
X169145000Y-122600000D02*
X167250000Y-122600000D01*
D27*
X166400000Y-96900000D02*
X166400000Y-96100000D01*
D25*
X165000000Y-97700000D02*
X166000000Y-97700000D01*
D27*
X167200000Y-122550000D02*
X165850000Y-122550000D01*
X166400000Y-98100000D02*
X166400000Y-96900000D01*
D28*
X167250000Y-122600000D02*
X167200000Y-122550000D01*
D25*
X165000000Y-96100000D02*
X166400000Y-96100000D01*
D27*
X165450000Y-122950000D02*
X165450000Y-126000000D01*
X168606100Y-116993900D02*
X167506100Y-116993900D01*
X167200000Y-119793900D02*
X167200000Y-122550000D01*
D28*
X168050000Y-127400000D02*
X167200000Y-126550000D01*
D27*
X166000000Y-126550000D02*
X167200000Y-126550000D01*
D25*
X166000000Y-97300000D02*
X166400000Y-96900000D01*
D27*
X167506100Y-116993900D02*
X167200000Y-117300000D01*
D28*
X169145000Y-127400000D02*
X168050000Y-127400000D01*
D25*
X167200000Y-119793900D02*
X167206100Y-119793900D01*
X165000000Y-96900000D02*
X166400000Y-96900000D01*
X166000000Y-96500000D02*
X166400000Y-96100000D01*
X165000000Y-98100000D02*
X166400000Y-98100000D01*
D27*
X167200000Y-117300000D02*
X167200000Y-98900000D01*
X167200000Y-98900000D02*
X166400000Y-98100000D01*
X167200000Y-119793900D02*
X167200000Y-117300000D01*
X165450000Y-126000000D02*
X166000000Y-126550000D01*
D29*
X167540000Y-91720000D02*
X167540000Y-91110000D01*
X160500000Y-96500000D02*
X160500000Y-92020000D01*
X170423750Y-92363750D02*
X171723750Y-93663750D01*
X170446250Y-94626250D02*
X167540000Y-91720000D01*
D25*
X160800000Y-98100000D02*
X160500000Y-97800000D01*
D29*
X171773750Y-94626250D02*
X170446250Y-94626250D01*
X171773750Y-93713750D02*
X171773750Y-94626250D01*
X160500000Y-97800000D02*
X160500000Y-96800000D01*
D25*
X160600000Y-96900000D02*
X160500000Y-96800000D01*
X161920000Y-98100000D02*
X160800000Y-98100000D01*
X161920000Y-96900000D02*
X160600000Y-96900000D01*
D29*
X169423750Y-91363750D02*
X170423750Y-92363750D01*
X167240000Y-90810000D02*
X161710000Y-90810000D01*
X161710000Y-90810000D02*
X160500000Y-92020000D01*
X170423750Y-88363750D02*
X169423750Y-89363750D01*
X167540000Y-91110000D02*
X167240000Y-90810000D01*
X169423750Y-89363750D02*
X169423750Y-91363750D01*
D25*
X161920000Y-96500000D02*
X160500000Y-96500000D01*
D29*
X160500000Y-96800000D02*
X160500000Y-96500000D01*
D25*
X170423750Y-86788750D02*
X173298750Y-86788750D01*
X173298750Y-86788750D02*
X173423750Y-86663750D01*
X170423750Y-90788750D02*
X173298750Y-90788750D01*
X173298750Y-90788750D02*
X173423750Y-90663750D01*
X161000000Y-109700000D02*
X160700000Y-110000000D01*
X161300000Y-109700000D02*
X161000000Y-109700000D01*
X161920000Y-109700000D02*
X161300000Y-109700000D01*
X163500000Y-108760000D02*
X164040000Y-109300000D01*
X173423750Y-88488750D02*
X173061250Y-88488750D01*
X173436250Y-88476250D02*
X173423750Y-88488750D01*
X173061250Y-88488750D02*
X172310000Y-89240000D01*
X164040000Y-109300000D02*
X165000000Y-109300000D01*
X167894000Y-95504000D02*
X167894000Y-96012000D01*
X167894000Y-96012000D02*
X170328489Y-98446489D01*
X167290000Y-94900000D02*
X167894000Y-95504000D01*
X165000000Y-94900000D02*
X167290000Y-94900000D01*
X172360489Y-98446489D02*
X173736000Y-99822000D01*
X173736000Y-99822000D02*
X173990000Y-99822000D01*
X170328489Y-98446489D02*
X172360489Y-98446489D01*
X172423750Y-97051250D02*
X172075000Y-97400000D01*
X165589120Y-94500000D02*
X165000000Y-94500000D01*
X172423750Y-96526250D02*
X172423750Y-96825530D01*
X170140000Y-97400000D02*
X168700000Y-95960000D01*
X168700000Y-95960000D02*
X168700000Y-95300000D01*
X172423750Y-96526250D02*
X172423750Y-97051250D01*
X165649511Y-94439609D02*
X165589120Y-94500000D01*
X167839609Y-94439609D02*
X165649511Y-94439609D01*
X172075000Y-97400000D02*
X170140000Y-97400000D01*
X168700000Y-95300000D02*
X167839609Y-94439609D01*
D30*
X168237500Y-124762500D02*
X167850000Y-125150000D01*
X168062500Y-125762500D02*
X168910000Y-125762500D01*
X131605001Y-112900000D02*
X131652601Y-112852400D01*
X167286240Y-124583487D02*
X167066513Y-124583487D01*
X131652601Y-112852400D02*
X133172201Y-112852401D01*
X168910000Y-124762500D02*
X167496973Y-124762500D01*
X167850000Y-125150000D02*
X167850000Y-125550000D01*
X167333567Y-124599094D02*
X167301847Y-124599094D01*
X167496973Y-124762500D02*
X167333567Y-124599094D01*
X167850000Y-125550000D02*
X168062500Y-125762500D01*
X133172201Y-112852401D02*
X133350000Y-113030200D01*
X131080000Y-112900000D02*
X131605001Y-112900000D01*
X167301847Y-124599094D02*
X167286240Y-124583487D01*
X168910000Y-124762500D02*
X168237500Y-124762500D01*
X133172201Y-112547599D02*
X133350000Y-112369800D01*
X168079200Y-124457700D02*
X167623227Y-124457700D01*
X131080000Y-112500000D02*
X131605001Y-112500000D01*
X169631500Y-125262500D02*
X169926000Y-124968000D01*
X169926000Y-124968000D02*
X169926000Y-124460000D01*
X169728500Y-124262500D02*
X168910000Y-124262500D01*
X131605001Y-112500000D02*
X131652601Y-112547600D01*
X167533487Y-124367960D02*
X167533487Y-124116513D01*
X168152511Y-124384389D02*
X168079200Y-124457700D01*
X168788111Y-124384389D02*
X168152511Y-124384389D01*
X168910000Y-125262500D02*
X169631500Y-125262500D01*
X169926000Y-124460000D02*
X169728500Y-124262500D01*
X131652601Y-112547600D02*
X133172201Y-112547599D01*
X167623227Y-124457700D02*
X167533487Y-124367960D01*
X168910000Y-124262500D02*
X168788111Y-124384389D01*
D25*
X161920000Y-96100000D02*
X161920000Y-95700000D01*
X168910000Y-126262500D02*
X170887500Y-126262500D01*
X174550000Y-118800000D02*
X174550000Y-117475000D01*
X175600000Y-119850000D02*
X175600000Y-121700000D01*
X175600000Y-121700000D02*
X171475000Y-125825000D01*
X171475000Y-125825000D02*
X171325000Y-125825000D01*
X170887500Y-126262500D02*
X171325000Y-125825000D01*
X175600000Y-119800000D02*
X175600000Y-119850000D01*
X175600000Y-119850000D02*
X174550000Y-118800000D01*
X173073750Y-93826250D02*
X173423750Y-93476250D01*
X173073750Y-94626250D02*
X173073750Y-93826250D01*
X173423750Y-93476250D02*
X173423750Y-92488750D01*
X172000000Y-121255002D02*
X172000000Y-109087500D01*
X169145000Y-123250000D02*
X170005002Y-123250000D01*
X170005002Y-123250000D02*
X172000000Y-121255002D01*
X172000000Y-109087500D02*
X170912500Y-108000000D01*
G04 #@! TA.AperFunction,Conductor*
G36*
X144906862Y-78434931D02*
G01*
X144969199Y-78490157D01*
X144998731Y-78568027D01*
X145000000Y-78589000D01*
X145000000Y-85000000D01*
X156000000Y-85000000D01*
X156000000Y-82106635D01*
X159946361Y-82106635D01*
X159978062Y-82451632D01*
X160048614Y-82790822D01*
X160157109Y-83119844D01*
X160302154Y-83434470D01*
X160304710Y-83438683D01*
X160304711Y-83438684D01*
X160479317Y-83726427D01*
X160481882Y-83730654D01*
X160693985Y-84004588D01*
X160935734Y-84252751D01*
X160957677Y-84270679D01*
X161200205Y-84468833D01*
X161200212Y-84468838D01*
X161204022Y-84471951D01*
X161208158Y-84474611D01*
X161208163Y-84474615D01*
X161491245Y-84656700D01*
X161491253Y-84656704D01*
X161495400Y-84659372D01*
X161806121Y-84812603D01*
X161810749Y-84814265D01*
X161810757Y-84814268D01*
X162127550Y-84928008D01*
X162127555Y-84928009D01*
X162132191Y-84929674D01*
X162136983Y-84930802D01*
X162136992Y-84930805D01*
X162341124Y-84978871D01*
X162469418Y-85009080D01*
X162813466Y-85049801D01*
X162818404Y-85049823D01*
X162818411Y-85049823D01*
X162985817Y-85050553D01*
X163159913Y-85051313D01*
X163306664Y-85035241D01*
X163499403Y-85014133D01*
X163499409Y-85014132D01*
X163504303Y-85013596D01*
X163509103Y-85012510D01*
X163509108Y-85012509D01*
X163648485Y-84980971D01*
X163842210Y-84937135D01*
X163846851Y-84935514D01*
X163846859Y-84935512D01*
X164035554Y-84869616D01*
X164169289Y-84822914D01*
X164481336Y-84672401D01*
X164485495Y-84669777D01*
X164485502Y-84669773D01*
X164770163Y-84490164D01*
X164774338Y-84487530D01*
X165044529Y-84270679D01*
X165288434Y-84024636D01*
X165301451Y-84008125D01*
X165499856Y-83756448D01*
X165502919Y-83752563D01*
X165685226Y-83457959D01*
X165833010Y-83144610D01*
X165944373Y-82816547D01*
X165948942Y-82795503D01*
X166016834Y-82482814D01*
X166016835Y-82482810D01*
X166017882Y-82477986D01*
X166052592Y-82133279D01*
X166053174Y-82106635D01*
X166055426Y-82003400D01*
X166055426Y-82003395D01*
X166055500Y-82000000D01*
X166042168Y-81765204D01*
X166036139Y-81659038D01*
X166036139Y-81659037D01*
X166035859Y-81654108D01*
X165977188Y-81312662D01*
X165880241Y-80980053D01*
X165857419Y-80925628D01*
X165748171Y-80665101D01*
X165748167Y-80665093D01*
X165746265Y-80660557D01*
X165711299Y-80598120D01*
X171999299Y-80598120D01*
X172039468Y-80797334D01*
X172118874Y-80984403D01*
X172234273Y-81151685D01*
X172380952Y-81292345D01*
X172552919Y-81400638D01*
X172743149Y-81472141D01*
X172751856Y-81473520D01*
X172888190Y-81495113D01*
X172943871Y-81503932D01*
X173089623Y-81497313D01*
X173138078Y-81495113D01*
X173146886Y-81494713D01*
X173155428Y-81492552D01*
X173155432Y-81492551D01*
X173248350Y-81469039D01*
X173343901Y-81444861D01*
X173500715Y-81369054D01*
X173518927Y-81360250D01*
X173518928Y-81360249D01*
X173526868Y-81356411D01*
X173584090Y-81312662D01*
X173628586Y-81278642D01*
X173688312Y-81232978D01*
X173821639Y-81079603D01*
X173908400Y-80925628D01*
X173917078Y-80910227D01*
X173917079Y-80910225D01*
X173921403Y-80902551D01*
X173965558Y-80765022D01*
X173980834Y-80717444D01*
X173980835Y-80717440D01*
X173983527Y-80709055D01*
X173985480Y-80691082D01*
X174000411Y-80553631D01*
X174005475Y-80507020D01*
X174005500Y-80500000D01*
X174004562Y-80490759D01*
X173994402Y-80390746D01*
X173984963Y-80297816D01*
X173929046Y-80119382D01*
X173926828Y-80112305D01*
X173926827Y-80112303D01*
X173924191Y-80103891D01*
X173825666Y-79926148D01*
X173693412Y-79771845D01*
X173686449Y-79766444D01*
X173686447Y-79766442D01*
X173551019Y-79661394D01*
X173532834Y-79647288D01*
X173524923Y-79643395D01*
X173524921Y-79643394D01*
X173358401Y-79561456D01*
X173358399Y-79561455D01*
X173350489Y-79557563D01*
X173187154Y-79515017D01*
X173162358Y-79508558D01*
X173162356Y-79508558D01*
X173153827Y-79506336D01*
X172950882Y-79495700D01*
X172749942Y-79526090D01*
X172559218Y-79596263D01*
X172386499Y-79703353D01*
X172380095Y-79709409D01*
X172245255Y-79836921D01*
X172238841Y-79842986D01*
X172233785Y-79850207D01*
X172233784Y-79850208D01*
X172162612Y-79951853D01*
X172122277Y-80009457D01*
X172041567Y-80195967D01*
X172039766Y-80204588D01*
X172039765Y-80204591D01*
X172006756Y-80362598D01*
X172000008Y-80394897D01*
X171999977Y-80403710D01*
X171999977Y-80403712D01*
X171999758Y-80466504D01*
X171999299Y-80598120D01*
X165711299Y-80598120D01*
X165576983Y-80358281D01*
X165412863Y-80130305D01*
X165377453Y-80081118D01*
X165377452Y-80081117D01*
X165374569Y-80077112D01*
X165141628Y-79820663D01*
X164881154Y-79592233D01*
X164660351Y-79439057D01*
X164600545Y-79397568D01*
X164600542Y-79397566D01*
X164596494Y-79394758D01*
X164477230Y-79330675D01*
X164295658Y-79233113D01*
X164295654Y-79233111D01*
X164291310Y-79230777D01*
X163969524Y-79102397D01*
X163964763Y-79101099D01*
X163964760Y-79101098D01*
X163640044Y-79012570D01*
X163640036Y-79012568D01*
X163635274Y-79011270D01*
X163371297Y-78970640D01*
X163297737Y-78959318D01*
X163297735Y-78959318D01*
X163292857Y-78958567D01*
X163287927Y-78958373D01*
X163287924Y-78958373D01*
X163034913Y-78948432D01*
X162946674Y-78944965D01*
X162766249Y-78958373D01*
X162606088Y-78970275D01*
X162606087Y-78970275D01*
X162601177Y-78970640D01*
X162260808Y-79035261D01*
X162121176Y-79078618D01*
X161934661Y-79136532D01*
X161934655Y-79136534D01*
X161929941Y-79137998D01*
X161612832Y-79277530D01*
X161484171Y-79352563D01*
X161317826Y-79449572D01*
X161317821Y-79449575D01*
X161313557Y-79452062D01*
X161230396Y-79514161D01*
X161039916Y-79656398D01*
X161039911Y-79656402D01*
X161035962Y-79659351D01*
X161032368Y-79662732D01*
X160811918Y-79870112D01*
X160783619Y-79896733D01*
X160559769Y-80161154D01*
X160367292Y-80449217D01*
X160208662Y-80757216D01*
X160206916Y-80761825D01*
X160206914Y-80761829D01*
X160156777Y-80894163D01*
X160085918Y-81081193D01*
X160000638Y-81416983D01*
X159953919Y-81760268D01*
X159946361Y-82106635D01*
X156000000Y-82106635D01*
X156000000Y-78589000D01*
X156019931Y-78508138D01*
X156075157Y-78445801D01*
X156153027Y-78416269D01*
X156174000Y-78415000D01*
X173250025Y-78415000D01*
X173277336Y-78418080D01*
X173277949Y-78418304D01*
X173287429Y-78419245D01*
X173459614Y-78421406D01*
X173466500Y-78421628D01*
X173542114Y-78425591D01*
X173551173Y-78426304D01*
X173633253Y-78434931D01*
X173799344Y-78452388D01*
X173808374Y-78453577D01*
X173865965Y-78462698D01*
X173874917Y-78464357D01*
X174118996Y-78516237D01*
X174127839Y-78518361D01*
X174184186Y-78533460D01*
X174192918Y-78536046D01*
X174430212Y-78613147D01*
X174438800Y-78616188D01*
X174493282Y-78637102D01*
X174501697Y-78640588D01*
X174600037Y-78684372D01*
X174729614Y-78742063D01*
X174737791Y-78745963D01*
X174789825Y-78772476D01*
X174797816Y-78776815D01*
X175013888Y-78901565D01*
X175021655Y-78906324D01*
X175070580Y-78938096D01*
X175078087Y-78943256D01*
X175117045Y-78971560D01*
X175279944Y-79089913D01*
X175287142Y-79095436D01*
X175294134Y-79101098D01*
X175332508Y-79132173D01*
X175339434Y-79138088D01*
X175524829Y-79305019D01*
X175531437Y-79311289D01*
X175572713Y-79352565D01*
X175578983Y-79359173D01*
X175745912Y-79544566D01*
X175751827Y-79551492D01*
X175788564Y-79596858D01*
X175794087Y-79604056D01*
X175873185Y-79712925D01*
X175940744Y-79805913D01*
X175945904Y-79813420D01*
X175977676Y-79862345D01*
X175982435Y-79870112D01*
X176107184Y-80086183D01*
X176111531Y-80094189D01*
X176138014Y-80146165D01*
X176141936Y-80154387D01*
X176243423Y-80382330D01*
X176246909Y-80390746D01*
X176267810Y-80445195D01*
X176270851Y-80453783D01*
X176347955Y-80691088D01*
X176350541Y-80699819D01*
X176365637Y-80756155D01*
X176367764Y-80765010D01*
X176419650Y-81009114D01*
X176421303Y-81018038D01*
X176430424Y-81075633D01*
X176431613Y-81084661D01*
X176457694Y-81332809D01*
X176458408Y-81341889D01*
X176462370Y-81417478D01*
X176462594Y-81424384D01*
X176464407Y-81568879D01*
X176465674Y-81575945D01*
X176465675Y-81575951D01*
X176466267Y-81579250D01*
X176469000Y-81609969D01*
X176469000Y-130700025D01*
X176465920Y-130727336D01*
X176465696Y-130727949D01*
X176464755Y-130737429D01*
X176463763Y-130816547D01*
X176462595Y-130909595D01*
X176462370Y-130916520D01*
X176458408Y-130992108D01*
X176457694Y-131001187D01*
X176431616Y-131249320D01*
X176430427Y-131258353D01*
X176421300Y-131315978D01*
X176419641Y-131324930D01*
X176367762Y-131568996D01*
X176365635Y-131577854D01*
X176350544Y-131634174D01*
X176347957Y-131642907D01*
X176274985Y-131867496D01*
X176270850Y-131880221D01*
X176267808Y-131888811D01*
X176246908Y-131943255D01*
X176243423Y-131951669D01*
X176141944Y-132179597D01*
X176138022Y-132187820D01*
X176111525Y-132239823D01*
X176107187Y-132247812D01*
X175982409Y-132463934D01*
X175977688Y-132471637D01*
X175945893Y-132520597D01*
X175940770Y-132528052D01*
X175794087Y-132729944D01*
X175788555Y-132737153D01*
X175751827Y-132782508D01*
X175745911Y-132789435D01*
X175578990Y-132974820D01*
X175572720Y-132981428D01*
X175531429Y-133022719D01*
X175524820Y-133028990D01*
X175339422Y-133195922D01*
X175332494Y-133201838D01*
X175287165Y-133238544D01*
X175279940Y-133244089D01*
X175078077Y-133390751D01*
X175070570Y-133395910D01*
X175021657Y-133427675D01*
X175013889Y-133432435D01*
X174797817Y-133557184D01*
X174789811Y-133561531D01*
X174737835Y-133588014D01*
X174729613Y-133591936D01*
X174501668Y-133693424D01*
X174493256Y-133696908D01*
X174438811Y-133717808D01*
X174430224Y-133720849D01*
X174192899Y-133797960D01*
X174184175Y-133800544D01*
X174127845Y-133815638D01*
X174119000Y-133817762D01*
X173874915Y-133869644D01*
X173865984Y-133871299D01*
X173808365Y-133880425D01*
X173799341Y-133881613D01*
X173551189Y-133907694D01*
X173542110Y-133908408D01*
X173466522Y-133912370D01*
X173459616Y-133912594D01*
X173315121Y-133914407D01*
X173304704Y-133916276D01*
X173274011Y-133919009D01*
X168748566Y-133919532D01*
X165848367Y-133919867D01*
X140151685Y-133922839D01*
X129124815Y-133924114D01*
X129097512Y-133921036D01*
X129096925Y-133920822D01*
X129087445Y-133919881D01*
X128915257Y-133917720D01*
X128908373Y-133917498D01*
X128832756Y-133913535D01*
X128823700Y-133912822D01*
X128575552Y-133886742D01*
X128566523Y-133885553D01*
X128508897Y-133876426D01*
X128499944Y-133874767D01*
X128255874Y-133822887D01*
X128247020Y-133820761D01*
X128190700Y-133805670D01*
X128181967Y-133803083D01*
X127944653Y-133725976D01*
X127936063Y-133722934D01*
X127881619Y-133702034D01*
X127873205Y-133698549D01*
X127645277Y-133597070D01*
X127637054Y-133593148D01*
X127585051Y-133566651D01*
X127577062Y-133562313D01*
X127360940Y-133437535D01*
X127353237Y-133432814D01*
X127304277Y-133401019D01*
X127296822Y-133395896D01*
X127094930Y-133249213D01*
X127087721Y-133243681D01*
X127042366Y-133206953D01*
X127035439Y-133201037D01*
X126850054Y-133034116D01*
X126843446Y-133027846D01*
X126802155Y-132986555D01*
X126795884Y-132979946D01*
X126744828Y-132923242D01*
X126628948Y-132794543D01*
X126623036Y-132787620D01*
X126586330Y-132742291D01*
X126580785Y-132735066D01*
X126434123Y-132533203D01*
X126428964Y-132525696D01*
X126397199Y-132476783D01*
X126392439Y-132469015D01*
X126267690Y-132252943D01*
X126263343Y-132244937D01*
X126236860Y-132192961D01*
X126232938Y-132184739D01*
X126131450Y-131956794D01*
X126127964Y-131948378D01*
X126125998Y-131943255D01*
X126107066Y-131893936D01*
X126104025Y-131885350D01*
X126026914Y-131648025D01*
X126024327Y-131639291D01*
X126022956Y-131634174D01*
X126009236Y-131582971D01*
X126007112Y-131574124D01*
X125981797Y-131455029D01*
X125955230Y-131330041D01*
X125953572Y-131321094D01*
X125944450Y-131263499D01*
X125943261Y-131254467D01*
X125917180Y-131006315D01*
X125916466Y-130997236D01*
X125912504Y-130921648D01*
X125912279Y-130914722D01*
X125912207Y-130908927D01*
X125910467Y-130770247D01*
X125909200Y-130763181D01*
X125909199Y-130763175D01*
X125908607Y-130759876D01*
X125905874Y-130729157D01*
X125905874Y-130106635D01*
X126946361Y-130106635D01*
X126953125Y-130180244D01*
X126970148Y-130365500D01*
X126978062Y-130451632D01*
X126983544Y-130477986D01*
X127037010Y-130735032D01*
X127048614Y-130790822D01*
X127157109Y-131119844D01*
X127159175Y-131124326D01*
X127159176Y-131124328D01*
X127285702Y-131398784D01*
X127302154Y-131434470D01*
X127304710Y-131438683D01*
X127304711Y-131438684D01*
X127321831Y-131466897D01*
X127481882Y-131730654D01*
X127693985Y-132004588D01*
X127736556Y-132048288D01*
X127921505Y-132238144D01*
X127935734Y-132252751D01*
X128031156Y-132330714D01*
X128200205Y-132468833D01*
X128200212Y-132468838D01*
X128204022Y-132471951D01*
X128208158Y-132474611D01*
X128208163Y-132474615D01*
X128491245Y-132656700D01*
X128491253Y-132656704D01*
X128495400Y-132659372D01*
X128638469Y-132729926D01*
X128755461Y-132787620D01*
X128806121Y-132812603D01*
X128810749Y-132814265D01*
X128810757Y-132814268D01*
X129127550Y-132928008D01*
X129127555Y-132928009D01*
X129132191Y-132929674D01*
X129136983Y-132930802D01*
X129136992Y-132930805D01*
X129365154Y-132984529D01*
X129469418Y-133009080D01*
X129813466Y-133049801D01*
X129818404Y-133049823D01*
X129818411Y-133049823D01*
X129985817Y-133050553D01*
X130159913Y-133051313D01*
X130316937Y-133034116D01*
X130499403Y-133014133D01*
X130499409Y-133014132D01*
X130504303Y-133013596D01*
X130509103Y-133012510D01*
X130509108Y-133012509D01*
X130697154Y-132969958D01*
X130842210Y-132937135D01*
X130846851Y-132935514D01*
X130846859Y-132935512D01*
X131040898Y-132867750D01*
X131169289Y-132822914D01*
X131481336Y-132672401D01*
X131485495Y-132669777D01*
X131485502Y-132669773D01*
X131727851Y-132516861D01*
X131774338Y-132487530D01*
X132044529Y-132270679D01*
X132288434Y-132024636D01*
X132301451Y-132008125D01*
X132448748Y-131821278D01*
X132502919Y-131752563D01*
X132685226Y-131457959D01*
X132833010Y-131144610D01*
X132858415Y-131069772D01*
X132932834Y-130850539D01*
X132944373Y-130816547D01*
X132948942Y-130795503D01*
X133016834Y-130482814D01*
X133016835Y-130482810D01*
X133017882Y-130477986D01*
X133052592Y-130133279D01*
X133053174Y-130106635D01*
X159946361Y-130106635D01*
X159953125Y-130180244D01*
X159970148Y-130365500D01*
X159978062Y-130451632D01*
X159983544Y-130477986D01*
X160037010Y-130735032D01*
X160048614Y-130790822D01*
X160157109Y-131119844D01*
X160159175Y-131124326D01*
X160159176Y-131124328D01*
X160285702Y-131398784D01*
X160302154Y-131434470D01*
X160304710Y-131438683D01*
X160304711Y-131438684D01*
X160321831Y-131466897D01*
X160481882Y-131730654D01*
X160693985Y-132004588D01*
X160736556Y-132048288D01*
X160921505Y-132238144D01*
X160935734Y-132252751D01*
X161031156Y-132330714D01*
X161200205Y-132468833D01*
X161200212Y-132468838D01*
X161204022Y-132471951D01*
X161208158Y-132474611D01*
X161208163Y-132474615D01*
X161491245Y-132656700D01*
X161491253Y-132656704D01*
X161495400Y-132659372D01*
X161638469Y-132729926D01*
X161755461Y-132787620D01*
X161806121Y-132812603D01*
X161810749Y-132814265D01*
X161810757Y-132814268D01*
X162127550Y-132928008D01*
X162127555Y-132928009D01*
X162132191Y-132929674D01*
X162136983Y-132930802D01*
X162136992Y-132930805D01*
X162365154Y-132984529D01*
X162469418Y-133009080D01*
X162813466Y-133049801D01*
X162818404Y-133049823D01*
X162818411Y-133049823D01*
X162985817Y-133050553D01*
X163159913Y-133051313D01*
X163316937Y-133034116D01*
X163499403Y-133014133D01*
X163499409Y-133014132D01*
X163504303Y-133013596D01*
X163509103Y-133012510D01*
X163509108Y-133012509D01*
X163697154Y-132969958D01*
X163842210Y-132937135D01*
X163846851Y-132935514D01*
X163846859Y-132935512D01*
X164040898Y-132867750D01*
X164169289Y-132822914D01*
X164481336Y-132672401D01*
X164485495Y-132669777D01*
X164485502Y-132669773D01*
X164727851Y-132516861D01*
X164774338Y-132487530D01*
X165044529Y-132270679D01*
X165288434Y-132024636D01*
X165301451Y-132008125D01*
X165448748Y-131821278D01*
X165502919Y-131752563D01*
X165553936Y-131670120D01*
X170957299Y-131670120D01*
X170997468Y-131869334D01*
X171076874Y-132056403D01*
X171192273Y-132223685D01*
X171338952Y-132364345D01*
X171510919Y-132472638D01*
X171701149Y-132544141D01*
X171709856Y-132545520D01*
X171846190Y-132567113D01*
X171901871Y-132575932D01*
X172047623Y-132569313D01*
X172096078Y-132567113D01*
X172104886Y-132566713D01*
X172113428Y-132564552D01*
X172113432Y-132564551D01*
X172251556Y-132529600D01*
X172301901Y-132516861D01*
X172484868Y-132428411D01*
X172646312Y-132304978D01*
X172779639Y-132151603D01*
X172849205Y-132028143D01*
X172875078Y-131982227D01*
X172875079Y-131982225D01*
X172879403Y-131974551D01*
X172889705Y-131942465D01*
X172938834Y-131789444D01*
X172938835Y-131789440D01*
X172941527Y-131781055D01*
X172947462Y-131726427D01*
X172962983Y-131583547D01*
X172963475Y-131579020D01*
X172963500Y-131572000D01*
X172942963Y-131369816D01*
X172882191Y-131175891D01*
X172783666Y-130998148D01*
X172651412Y-130843845D01*
X172644449Y-130838444D01*
X172644447Y-130838442D01*
X172497802Y-130724693D01*
X172490834Y-130719288D01*
X172482923Y-130715395D01*
X172482921Y-130715394D01*
X172316401Y-130633456D01*
X172316399Y-130633455D01*
X172308489Y-130629563D01*
X172168633Y-130593133D01*
X172120358Y-130580558D01*
X172120356Y-130580558D01*
X172111827Y-130578336D01*
X171908882Y-130567700D01*
X171707942Y-130598090D01*
X171517218Y-130668263D01*
X171344499Y-130775353D01*
X171196841Y-130914986D01*
X171191785Y-130922207D01*
X171191784Y-130922208D01*
X171098552Y-131055358D01*
X171080277Y-131081457D01*
X170999567Y-131267967D01*
X170997766Y-131276588D01*
X170997765Y-131276591D01*
X170969164Y-131413498D01*
X170958008Y-131466897D01*
X170957299Y-131670120D01*
X165553936Y-131670120D01*
X165685226Y-131457959D01*
X165833010Y-131144610D01*
X165858415Y-131069772D01*
X165932834Y-130850539D01*
X165944373Y-130816547D01*
X165948942Y-130795503D01*
X166016834Y-130482814D01*
X166016835Y-130482810D01*
X166017882Y-130477986D01*
X166052592Y-130133279D01*
X166053174Y-130106635D01*
X166055426Y-130003400D01*
X166055426Y-130003395D01*
X166055500Y-130000000D01*
X166042168Y-129765204D01*
X166036139Y-129659038D01*
X166036139Y-129659037D01*
X166035859Y-129654108D01*
X166024969Y-129590733D01*
X167961851Y-129590733D01*
X167962913Y-129603543D01*
X167995182Y-129713183D01*
X168001524Y-129728881D01*
X168087495Y-129893326D01*
X168096773Y-129907505D01*
X168213048Y-130052124D01*
X168224891Y-130064217D01*
X168367048Y-130183501D01*
X168381016Y-130193065D01*
X168543635Y-130282465D01*
X168559199Y-130289135D01*
X168736075Y-130345244D01*
X168752643Y-130348765D01*
X168897006Y-130364959D01*
X168906692Y-130365500D01*
X169209871Y-130365500D01*
X169227213Y-130361225D01*
X169231000Y-130351240D01*
X169231000Y-129607629D01*
X169229307Y-129600760D01*
X169739000Y-129600760D01*
X169739000Y-130344371D01*
X169743275Y-130361713D01*
X169753260Y-130365500D01*
X170056753Y-130365500D01*
X170065208Y-130365087D01*
X170203150Y-130351561D01*
X170219759Y-130348272D01*
X170397403Y-130294639D01*
X170413066Y-130288183D01*
X170576906Y-130201067D01*
X170591016Y-130191692D01*
X170734817Y-130074411D01*
X170746832Y-130062480D01*
X170865116Y-129919500D01*
X170874588Y-129905457D01*
X170962848Y-129742223D01*
X170969409Y-129726616D01*
X171006535Y-129606681D01*
X171007470Y-129590733D01*
X172192788Y-129590733D01*
X172193850Y-129603547D01*
X172223361Y-129703814D01*
X172229703Y-129719513D01*
X172313416Y-129879642D01*
X172322690Y-129893813D01*
X172435910Y-130034631D01*
X172447753Y-130046725D01*
X172586173Y-130162873D01*
X172600140Y-130172437D01*
X172758486Y-130259488D01*
X172774044Y-130266156D01*
X172946278Y-130320792D01*
X172962836Y-130324312D01*
X173102333Y-130339958D01*
X173112022Y-130340500D01*
X173389871Y-130340500D01*
X173407213Y-130336225D01*
X173411000Y-130326240D01*
X173411000Y-129607629D01*
X173409307Y-129600760D01*
X173919000Y-129600760D01*
X173919000Y-130319371D01*
X173923275Y-130336713D01*
X173933260Y-130340500D01*
X174211754Y-130340500D01*
X174220212Y-130340087D01*
X174353295Y-130327038D01*
X174369905Y-130323749D01*
X174542874Y-130271526D01*
X174558539Y-130265069D01*
X174718072Y-130180244D01*
X174732182Y-130170869D01*
X174872201Y-130056672D01*
X174884216Y-130044741D01*
X174999389Y-129905521D01*
X175008864Y-129891474D01*
X175094799Y-129732539D01*
X175101364Y-129716923D01*
X175135489Y-129606683D01*
X175136507Y-129589311D01*
X175123352Y-129586500D01*
X173940129Y-129586500D01*
X173922787Y-129590775D01*
X173919000Y-129600760D01*
X173409307Y-129600760D01*
X173406725Y-129590287D01*
X173396740Y-129586500D01*
X172209962Y-129586500D01*
X172192788Y-129590733D01*
X171007470Y-129590733D01*
X171007553Y-129589311D01*
X170994399Y-129586500D01*
X169760129Y-129586500D01*
X169742787Y-129590775D01*
X169739000Y-129600760D01*
X169229307Y-129600760D01*
X169226725Y-129590287D01*
X169216740Y-129586500D01*
X167979026Y-129586500D01*
X167961851Y-129590733D01*
X166024969Y-129590733D01*
X165977188Y-129312662D01*
X165880241Y-128980053D01*
X165822511Y-128842382D01*
X165748171Y-128665101D01*
X165748167Y-128665093D01*
X165746265Y-128660557D01*
X165576983Y-128358281D01*
X165374569Y-128077112D01*
X165178731Y-127861510D01*
X165144948Y-127824318D01*
X165141628Y-127820663D01*
X164881154Y-127592233D01*
X164738211Y-127493070D01*
X164600545Y-127397568D01*
X164600542Y-127397566D01*
X164596494Y-127394758D01*
X164501485Y-127343708D01*
X164295658Y-127233113D01*
X164295654Y-127233111D01*
X164291310Y-127230777D01*
X163969524Y-127102397D01*
X163964763Y-127101099D01*
X163964760Y-127101098D01*
X163640044Y-127012570D01*
X163640036Y-127012568D01*
X163635274Y-127011270D01*
X163371297Y-126970640D01*
X163297737Y-126959318D01*
X163297735Y-126959318D01*
X163292857Y-126958567D01*
X163287927Y-126958373D01*
X163287924Y-126958373D01*
X163034913Y-126948432D01*
X162946674Y-126944965D01*
X162766249Y-126958373D01*
X162606088Y-126970275D01*
X162606087Y-126970275D01*
X162601177Y-126970640D01*
X162260808Y-127035261D01*
X162110415Y-127081959D01*
X161934661Y-127136532D01*
X161934655Y-127136534D01*
X161929941Y-127137998D01*
X161612832Y-127277530D01*
X161506234Y-127339696D01*
X161317826Y-127449572D01*
X161317821Y-127449575D01*
X161313557Y-127452062D01*
X161210262Y-127529196D01*
X161039916Y-127656398D01*
X161039911Y-127656402D01*
X161035962Y-127659351D01*
X161032368Y-127662732D01*
X160867947Y-127817405D01*
X160783619Y-127896733D01*
X160559769Y-128161154D01*
X160367292Y-128449217D01*
X160208662Y-128757216D01*
X160206916Y-128761825D01*
X160206914Y-128761829D01*
X160176395Y-128842382D01*
X160085918Y-129081193D01*
X160000638Y-129416983D01*
X159953919Y-129760268D01*
X159946361Y-130106635D01*
X133053174Y-130106635D01*
X133055426Y-130003400D01*
X133055426Y-130003395D01*
X133055500Y-130000000D01*
X133042168Y-129765204D01*
X133036139Y-129659038D01*
X133036139Y-129659037D01*
X133035859Y-129654108D01*
X132977188Y-129312662D01*
X132880241Y-128980053D01*
X132822511Y-128842382D01*
X132748171Y-128665101D01*
X132748167Y-128665093D01*
X132746265Y-128660557D01*
X132576983Y-128358281D01*
X132374569Y-128077112D01*
X132178731Y-127861510D01*
X132144948Y-127824318D01*
X132141628Y-127820663D01*
X131881154Y-127592233D01*
X131738211Y-127493070D01*
X131600545Y-127397568D01*
X131600542Y-127397566D01*
X131596494Y-127394758D01*
X131501485Y-127343708D01*
X131295658Y-127233113D01*
X131295654Y-127233111D01*
X131291310Y-127230777D01*
X130969524Y-127102397D01*
X130964763Y-127101099D01*
X130964760Y-127101098D01*
X130640044Y-127012570D01*
X130640036Y-127012568D01*
X130635274Y-127011270D01*
X130371297Y-126970640D01*
X130297737Y-126959318D01*
X130297735Y-126959318D01*
X130292857Y-126958567D01*
X130287927Y-126958373D01*
X130287924Y-126958373D01*
X130034913Y-126948432D01*
X129946674Y-126944965D01*
X129766249Y-126958373D01*
X129606088Y-126970275D01*
X129606087Y-126970275D01*
X129601177Y-126970640D01*
X129260808Y-127035261D01*
X129110415Y-127081959D01*
X128934661Y-127136532D01*
X128934655Y-127136534D01*
X128929941Y-127137998D01*
X128612832Y-127277530D01*
X128506234Y-127339696D01*
X128317826Y-127449572D01*
X128317821Y-127449575D01*
X128313557Y-127452062D01*
X128210262Y-127529196D01*
X128039916Y-127656398D01*
X128039911Y-127656402D01*
X128035962Y-127659351D01*
X128032368Y-127662732D01*
X127867947Y-127817405D01*
X127783619Y-127896733D01*
X127559769Y-128161154D01*
X127367292Y-128449217D01*
X127208662Y-128757216D01*
X127206916Y-128761825D01*
X127206914Y-128761829D01*
X127176395Y-128842382D01*
X127085918Y-129081193D01*
X127000638Y-129416983D01*
X126953919Y-129760268D01*
X126946361Y-130106635D01*
X125905874Y-130106635D01*
X125905874Y-94006218D01*
X127137000Y-94006218D01*
X127137000Y-94196906D01*
X127137220Y-94203081D01*
X127141557Y-94263709D01*
X127144849Y-94281954D01*
X127179853Y-94401168D01*
X127190086Y-94423575D01*
X127262300Y-94535944D01*
X127261260Y-94536613D01*
X127293457Y-94599634D01*
X127296730Y-94617892D01*
X127305378Y-94687269D01*
X127302078Y-94687680D01*
X127304714Y-94738786D01*
X127295353Y-94794886D01*
X127262385Y-94871365D01*
X127255227Y-94880194D01*
X127226582Y-94913252D01*
X127213268Y-94933969D01*
X127162951Y-95044149D01*
X127156009Y-95067791D01*
X127137885Y-95193846D01*
X127137000Y-95206218D01*
X127137000Y-95396906D01*
X127137220Y-95403081D01*
X127141557Y-95463709D01*
X127144849Y-95481954D01*
X127179853Y-95601168D01*
X127190086Y-95623575D01*
X127262300Y-95735944D01*
X127261260Y-95736613D01*
X127293457Y-95799634D01*
X127296730Y-95817892D01*
X127305378Y-95887269D01*
X127302078Y-95887680D01*
X127304714Y-95938786D01*
X127295353Y-95994886D01*
X127262385Y-96071365D01*
X127255227Y-96080194D01*
X127226582Y-96113252D01*
X127213268Y-96133969D01*
X127162951Y-96244149D01*
X127156009Y-96267791D01*
X127137885Y-96393846D01*
X127137000Y-96406218D01*
X127137000Y-96596906D01*
X127137220Y-96603081D01*
X127141557Y-96663709D01*
X127144849Y-96681954D01*
X127179853Y-96801168D01*
X127190086Y-96823575D01*
X127262300Y-96935944D01*
X127261260Y-96936613D01*
X127293457Y-96999634D01*
X127296730Y-97017892D01*
X127304952Y-97083848D01*
X127305378Y-97087269D01*
X127302078Y-97087680D01*
X127304714Y-97138786D01*
X127295353Y-97194886D01*
X127262385Y-97271365D01*
X127255227Y-97280194D01*
X127226582Y-97313252D01*
X127213268Y-97333969D01*
X127162951Y-97444149D01*
X127156009Y-97467791D01*
X127137885Y-97593846D01*
X127137000Y-97606218D01*
X127137000Y-97796906D01*
X127137220Y-97803081D01*
X127141557Y-97863709D01*
X127144849Y-97881954D01*
X127179853Y-98001168D01*
X127190086Y-98023575D01*
X127262300Y-98135944D01*
X127261260Y-98136613D01*
X127293457Y-98199634D01*
X127296730Y-98217892D01*
X127305378Y-98287269D01*
X127302078Y-98287680D01*
X127304714Y-98338786D01*
X127295353Y-98394886D01*
X127262385Y-98471365D01*
X127255227Y-98480194D01*
X127226582Y-98513252D01*
X127213268Y-98533969D01*
X127162951Y-98644149D01*
X127156009Y-98667791D01*
X127137885Y-98793846D01*
X127137000Y-98806218D01*
X127137000Y-98996906D01*
X127137220Y-99003081D01*
X127141557Y-99063709D01*
X127144849Y-99081954D01*
X127179853Y-99201168D01*
X127190086Y-99223575D01*
X127262300Y-99335944D01*
X127261260Y-99336613D01*
X127293457Y-99399634D01*
X127296730Y-99417892D01*
X127305378Y-99487269D01*
X127302078Y-99487680D01*
X127304714Y-99538786D01*
X127295353Y-99594886D01*
X127262385Y-99671365D01*
X127255227Y-99680194D01*
X127226582Y-99713252D01*
X127213268Y-99733969D01*
X127162951Y-99844149D01*
X127156009Y-99867791D01*
X127137885Y-99993846D01*
X127137000Y-100006218D01*
X127137000Y-100196906D01*
X127137220Y-100203081D01*
X127141557Y-100263709D01*
X127144849Y-100281954D01*
X127179853Y-100401168D01*
X127190086Y-100423575D01*
X127262300Y-100535944D01*
X127261260Y-100536613D01*
X127293457Y-100599634D01*
X127296730Y-100617892D01*
X127305378Y-100687269D01*
X127302078Y-100687680D01*
X127304714Y-100738786D01*
X127295353Y-100794886D01*
X127262385Y-100871365D01*
X127255227Y-100880194D01*
X127226582Y-100913252D01*
X127213268Y-100933969D01*
X127162951Y-101044149D01*
X127156009Y-101067791D01*
X127137885Y-101193846D01*
X127137000Y-101206218D01*
X127137000Y-101396906D01*
X127137220Y-101403081D01*
X127141557Y-101463709D01*
X127144849Y-101481954D01*
X127179853Y-101601168D01*
X127190086Y-101623575D01*
X127262300Y-101735944D01*
X127261260Y-101736613D01*
X127293457Y-101799634D01*
X127296730Y-101817892D01*
X127305378Y-101887269D01*
X127302078Y-101887680D01*
X127304714Y-101938786D01*
X127295353Y-101994886D01*
X127262385Y-102071365D01*
X127255227Y-102080194D01*
X127226582Y-102113252D01*
X127213268Y-102133969D01*
X127162951Y-102244149D01*
X127156009Y-102267791D01*
X127137885Y-102393846D01*
X127137000Y-102406218D01*
X127137000Y-102596906D01*
X127137220Y-102603081D01*
X127141557Y-102663709D01*
X127144849Y-102681954D01*
X127179853Y-102801168D01*
X127190086Y-102823575D01*
X127262300Y-102935944D01*
X127261260Y-102936613D01*
X127293457Y-102999634D01*
X127296730Y-103017892D01*
X127305378Y-103087269D01*
X127302078Y-103087680D01*
X127304714Y-103138786D01*
X127295353Y-103194886D01*
X127262385Y-103271365D01*
X127255227Y-103280194D01*
X127226582Y-103313252D01*
X127213268Y-103333969D01*
X127162951Y-103444149D01*
X127156009Y-103467791D01*
X127137885Y-103593846D01*
X127137000Y-103606218D01*
X127137000Y-103796906D01*
X127137220Y-103803081D01*
X127141557Y-103863709D01*
X127144849Y-103881954D01*
X127179853Y-104001168D01*
X127190086Y-104023575D01*
X127262300Y-104135944D01*
X127261260Y-104136613D01*
X127293457Y-104199634D01*
X127296730Y-104217892D01*
X127305378Y-104287269D01*
X127302078Y-104287680D01*
X127304714Y-104338786D01*
X127295353Y-104394886D01*
X127262385Y-104471365D01*
X127255227Y-104480194D01*
X127226582Y-104513252D01*
X127213268Y-104533969D01*
X127162951Y-104644149D01*
X127156009Y-104667791D01*
X127137885Y-104793846D01*
X127137000Y-104806218D01*
X127137000Y-104996906D01*
X127137220Y-105003081D01*
X127141557Y-105063709D01*
X127144849Y-105081954D01*
X127179853Y-105201168D01*
X127190086Y-105223575D01*
X127262300Y-105335944D01*
X127261260Y-105336613D01*
X127293457Y-105399634D01*
X127296730Y-105417892D01*
X127305378Y-105487269D01*
X127302078Y-105487680D01*
X127304714Y-105538786D01*
X127295353Y-105594886D01*
X127262385Y-105671365D01*
X127255227Y-105680194D01*
X127226582Y-105713252D01*
X127213268Y-105733969D01*
X127162951Y-105844149D01*
X127156009Y-105867791D01*
X127137885Y-105993846D01*
X127137000Y-106006218D01*
X127137000Y-106196906D01*
X127137220Y-106203081D01*
X127141557Y-106263709D01*
X127144849Y-106281954D01*
X127179853Y-106401168D01*
X127190086Y-106423575D01*
X127262300Y-106535944D01*
X127261260Y-106536613D01*
X127293457Y-106599634D01*
X127296730Y-106617892D01*
X127305378Y-106687269D01*
X127302078Y-106687680D01*
X127304714Y-106738786D01*
X127295353Y-106794886D01*
X127262385Y-106871365D01*
X127255227Y-106880194D01*
X127226582Y-106913252D01*
X127213268Y-106933969D01*
X127162951Y-107044149D01*
X127156009Y-107067791D01*
X127137885Y-107193846D01*
X127137000Y-107206218D01*
X127137000Y-107396906D01*
X127137220Y-107403081D01*
X127141557Y-107463709D01*
X127144849Y-107481954D01*
X127179853Y-107601168D01*
X127190086Y-107623575D01*
X127262300Y-107735944D01*
X127261260Y-107736613D01*
X127293457Y-107799634D01*
X127296730Y-107817892D01*
X127305378Y-107887269D01*
X127302078Y-107887680D01*
X127304714Y-107938786D01*
X127295353Y-107994886D01*
X127262385Y-108071365D01*
X127255227Y-108080194D01*
X127226582Y-108113252D01*
X127213268Y-108133969D01*
X127162951Y-108244149D01*
X127156009Y-108267791D01*
X127137885Y-108393846D01*
X127137000Y-108406218D01*
X127137000Y-108596906D01*
X127137220Y-108603081D01*
X127141557Y-108663709D01*
X127144849Y-108681954D01*
X127179853Y-108801168D01*
X127190086Y-108823575D01*
X127262300Y-108935944D01*
X127261260Y-108936613D01*
X127293457Y-108999634D01*
X127296730Y-109017892D01*
X127305378Y-109087269D01*
X127302078Y-109087680D01*
X127304714Y-109138786D01*
X127295353Y-109194886D01*
X127262385Y-109271365D01*
X127255227Y-109280194D01*
X127226582Y-109313252D01*
X127213268Y-109333969D01*
X127162951Y-109444149D01*
X127156009Y-109467791D01*
X127137885Y-109593846D01*
X127137000Y-109606218D01*
X127137000Y-109796906D01*
X127137220Y-109803081D01*
X127141557Y-109863709D01*
X127144849Y-109881954D01*
X127179853Y-110001168D01*
X127190086Y-110023575D01*
X127262300Y-110135944D01*
X127261260Y-110136613D01*
X127293457Y-110199634D01*
X127296730Y-110217892D01*
X127305378Y-110287269D01*
X127302078Y-110287680D01*
X127304714Y-110338786D01*
X127295353Y-110394886D01*
X127262385Y-110471365D01*
X127255227Y-110480194D01*
X127226582Y-110513252D01*
X127213268Y-110533969D01*
X127162951Y-110644149D01*
X127156009Y-110667791D01*
X127137885Y-110793846D01*
X127137000Y-110806218D01*
X127137000Y-110996906D01*
X127137220Y-111003081D01*
X127141557Y-111063709D01*
X127144849Y-111081954D01*
X127179853Y-111201168D01*
X127190086Y-111223575D01*
X127262300Y-111335944D01*
X127261260Y-111336613D01*
X127293457Y-111399634D01*
X127296730Y-111417892D01*
X127304504Y-111480254D01*
X127305378Y-111487269D01*
X127302078Y-111487680D01*
X127304714Y-111538786D01*
X127295353Y-111594886D01*
X127262385Y-111671365D01*
X127255227Y-111680194D01*
X127226582Y-111713252D01*
X127213268Y-111733969D01*
X127162951Y-111844149D01*
X127156009Y-111867791D01*
X127137885Y-111993846D01*
X127137000Y-112006218D01*
X127137000Y-112196906D01*
X127137220Y-112203081D01*
X127141557Y-112263709D01*
X127144849Y-112281954D01*
X127179853Y-112401168D01*
X127190086Y-112423575D01*
X127262300Y-112535944D01*
X127261260Y-112536613D01*
X127293457Y-112599634D01*
X127296730Y-112617892D01*
X127303793Y-112674550D01*
X127305378Y-112687269D01*
X127302078Y-112687680D01*
X127304714Y-112738786D01*
X127295685Y-112792896D01*
X127294500Y-112800000D01*
X127294500Y-113000000D01*
X127299674Y-113041510D01*
X127305378Y-113087270D01*
X127302078Y-113087681D01*
X127304714Y-113138786D01*
X127295685Y-113192896D01*
X127294500Y-113200000D01*
X127294500Y-113400000D01*
X127305378Y-113487270D01*
X127310440Y-113498810D01*
X127310441Y-113498814D01*
X127323294Y-113528114D01*
X127352387Y-113594440D01*
X127362149Y-113605044D01*
X127362150Y-113605046D01*
X127421882Y-113669932D01*
X127421884Y-113669933D01*
X127431647Y-113680539D01*
X127534569Y-113736238D01*
X127650000Y-113755500D01*
X128350000Y-113755500D01*
X128437270Y-113744622D01*
X128448810Y-113739560D01*
X128448814Y-113739559D01*
X128496352Y-113718706D01*
X128544440Y-113697613D01*
X128555044Y-113687851D01*
X128555046Y-113687850D01*
X128619932Y-113628118D01*
X128619933Y-113628116D01*
X128630539Y-113618353D01*
X128686238Y-113515431D01*
X128705500Y-113400000D01*
X128705500Y-113200000D01*
X128694622Y-113112730D01*
X128697922Y-113112319D01*
X128695286Y-113061214D01*
X128704315Y-113007104D01*
X128704315Y-113007099D01*
X128705500Y-113000000D01*
X128705500Y-112800000D01*
X128694622Y-112712730D01*
X128697922Y-112712319D01*
X128695286Y-112661214D01*
X128704647Y-112605114D01*
X128737615Y-112528635D01*
X128744773Y-112519806D01*
X128773418Y-112486748D01*
X128786732Y-112466031D01*
X128837049Y-112355851D01*
X128843991Y-112332209D01*
X128862115Y-112206154D01*
X128863000Y-112193782D01*
X128863000Y-112003094D01*
X128862780Y-111996919D01*
X128858443Y-111936291D01*
X128855151Y-111918046D01*
X128820147Y-111798832D01*
X128809914Y-111776425D01*
X128737700Y-111664056D01*
X128738740Y-111663387D01*
X128706543Y-111600366D01*
X128703270Y-111582108D01*
X128694622Y-111512731D01*
X128697922Y-111512320D01*
X128695286Y-111461214D01*
X128704647Y-111405114D01*
X128737615Y-111328635D01*
X128744773Y-111319806D01*
X128773418Y-111286748D01*
X128786732Y-111266031D01*
X128837049Y-111155851D01*
X128843991Y-111132209D01*
X128862115Y-111006154D01*
X128863000Y-110993782D01*
X128863000Y-110803094D01*
X128862780Y-110796919D01*
X128858443Y-110736291D01*
X128855151Y-110718046D01*
X128820147Y-110598832D01*
X128809914Y-110576425D01*
X128737700Y-110464056D01*
X128738740Y-110463387D01*
X128706543Y-110400366D01*
X128703270Y-110382108D01*
X128694622Y-110312731D01*
X128697922Y-110312320D01*
X128695286Y-110261214D01*
X128704647Y-110205114D01*
X128737615Y-110128635D01*
X128744773Y-110119806D01*
X128773418Y-110086748D01*
X128786732Y-110066031D01*
X128837049Y-109955851D01*
X128843991Y-109932209D01*
X128862115Y-109806154D01*
X128863000Y-109793782D01*
X128863000Y-109603094D01*
X128862780Y-109596919D01*
X128858443Y-109536291D01*
X128855151Y-109518046D01*
X128820147Y-109398832D01*
X128809914Y-109376425D01*
X128737700Y-109264056D01*
X128738740Y-109263387D01*
X128706543Y-109200366D01*
X128703270Y-109182108D01*
X128694959Y-109115431D01*
X128694622Y-109112731D01*
X128697922Y-109112320D01*
X128695286Y-109061214D01*
X128704647Y-109005114D01*
X128737615Y-108928635D01*
X128744773Y-108919806D01*
X128773418Y-108886748D01*
X128786732Y-108866031D01*
X128837049Y-108755851D01*
X128843991Y-108732209D01*
X128862115Y-108606154D01*
X128863000Y-108593782D01*
X128863000Y-108403094D01*
X128862780Y-108396919D01*
X128858443Y-108336291D01*
X128855151Y-108318046D01*
X128820147Y-108198832D01*
X128809914Y-108176425D01*
X128737700Y-108064056D01*
X128738740Y-108063387D01*
X128706543Y-108000366D01*
X128703270Y-107982108D01*
X128694622Y-107912731D01*
X128697922Y-107912320D01*
X128695286Y-107861214D01*
X128704647Y-107805114D01*
X128737615Y-107728635D01*
X128744773Y-107719806D01*
X128773418Y-107686748D01*
X128786732Y-107666031D01*
X128837049Y-107555851D01*
X128843991Y-107532209D01*
X128862115Y-107406154D01*
X128863000Y-107393782D01*
X128863000Y-107203094D01*
X128862780Y-107196919D01*
X128858443Y-107136291D01*
X128855151Y-107118046D01*
X128820147Y-106998832D01*
X128809914Y-106976425D01*
X128737700Y-106864056D01*
X128738740Y-106863387D01*
X128706543Y-106800366D01*
X128703270Y-106782108D01*
X128694622Y-106712731D01*
X128697922Y-106712320D01*
X128695286Y-106661214D01*
X128704647Y-106605114D01*
X128737615Y-106528635D01*
X128744773Y-106519806D01*
X128773418Y-106486748D01*
X128786732Y-106466031D01*
X128837049Y-106355851D01*
X128843991Y-106332209D01*
X128862115Y-106206154D01*
X128863000Y-106193782D01*
X128863000Y-106003094D01*
X128862780Y-105996919D01*
X128858443Y-105936291D01*
X128855151Y-105918046D01*
X128820147Y-105798832D01*
X128809914Y-105776425D01*
X128737700Y-105664056D01*
X128738740Y-105663387D01*
X128706543Y-105600366D01*
X128703270Y-105582108D01*
X128694622Y-105512731D01*
X128697922Y-105512320D01*
X128695286Y-105461214D01*
X128704647Y-105405114D01*
X128737615Y-105328635D01*
X128744773Y-105319806D01*
X128773418Y-105286748D01*
X128786732Y-105266031D01*
X128837049Y-105155851D01*
X128843991Y-105132209D01*
X128862115Y-105006154D01*
X128863000Y-104993782D01*
X128863000Y-104803094D01*
X128862780Y-104796919D01*
X128858443Y-104736291D01*
X128855151Y-104718046D01*
X128820147Y-104598832D01*
X128809914Y-104576425D01*
X128737700Y-104464056D01*
X128738740Y-104463387D01*
X128706543Y-104400366D01*
X128703270Y-104382108D01*
X128694622Y-104312731D01*
X128697922Y-104312320D01*
X128695286Y-104261214D01*
X128704647Y-104205114D01*
X128737615Y-104128635D01*
X128744773Y-104119806D01*
X128773418Y-104086748D01*
X128786732Y-104066031D01*
X128837049Y-103955851D01*
X128843991Y-103932209D01*
X128862115Y-103806154D01*
X128863000Y-103793782D01*
X128863000Y-103603094D01*
X128862780Y-103596919D01*
X128858443Y-103536291D01*
X128855151Y-103518046D01*
X128820147Y-103398832D01*
X128809914Y-103376425D01*
X128737700Y-103264056D01*
X128738740Y-103263387D01*
X128706543Y-103200366D01*
X128703270Y-103182108D01*
X128694622Y-103112731D01*
X128697922Y-103112320D01*
X128695286Y-103061214D01*
X128704647Y-103005114D01*
X128737615Y-102928635D01*
X128744773Y-102919806D01*
X128773418Y-102886748D01*
X128786732Y-102866031D01*
X128837049Y-102755851D01*
X128843991Y-102732209D01*
X128862115Y-102606154D01*
X128863000Y-102593782D01*
X128863000Y-102403094D01*
X128862780Y-102396919D01*
X128858443Y-102336291D01*
X128855151Y-102318046D01*
X128820147Y-102198832D01*
X128809914Y-102176425D01*
X128737700Y-102064056D01*
X128738740Y-102063387D01*
X128706543Y-102000366D01*
X128703270Y-101982108D01*
X128694622Y-101912731D01*
X128697922Y-101912320D01*
X128695286Y-101861214D01*
X128704647Y-101805114D01*
X128737615Y-101728635D01*
X128744773Y-101719806D01*
X128773418Y-101686748D01*
X128786732Y-101666031D01*
X128837049Y-101555851D01*
X128843991Y-101532209D01*
X128862115Y-101406154D01*
X128863000Y-101393782D01*
X128863000Y-101203094D01*
X128862780Y-101196919D01*
X128858443Y-101136291D01*
X128855151Y-101118046D01*
X128820147Y-100998832D01*
X128809914Y-100976425D01*
X128737700Y-100864056D01*
X128738740Y-100863387D01*
X128706543Y-100800366D01*
X128703270Y-100782108D01*
X128694622Y-100712731D01*
X128697922Y-100712320D01*
X128695286Y-100661214D01*
X128704647Y-100605114D01*
X128737615Y-100528635D01*
X128744773Y-100519806D01*
X128773418Y-100486748D01*
X128786732Y-100466031D01*
X128837049Y-100355851D01*
X128843991Y-100332209D01*
X128862115Y-100206154D01*
X128863000Y-100193782D01*
X128863000Y-100003094D01*
X128862780Y-99996919D01*
X128858443Y-99936291D01*
X128855151Y-99918046D01*
X128820147Y-99798832D01*
X128809914Y-99776425D01*
X128737700Y-99664056D01*
X128738740Y-99663387D01*
X128706543Y-99600366D01*
X128703270Y-99582108D01*
X128694622Y-99512731D01*
X128697922Y-99512320D01*
X128695286Y-99461214D01*
X128704647Y-99405114D01*
X128737615Y-99328635D01*
X128744773Y-99319806D01*
X128773418Y-99286748D01*
X128786732Y-99266031D01*
X128837049Y-99155851D01*
X128843991Y-99132209D01*
X128862115Y-99006154D01*
X128863000Y-98993782D01*
X128863000Y-98803094D01*
X128862780Y-98796919D01*
X128858443Y-98736291D01*
X128855151Y-98718046D01*
X128820147Y-98598832D01*
X128809914Y-98576425D01*
X128737700Y-98464056D01*
X128738740Y-98463387D01*
X128706543Y-98400366D01*
X128703270Y-98382108D01*
X128694622Y-98312731D01*
X128697922Y-98312320D01*
X128695286Y-98261214D01*
X128704647Y-98205114D01*
X128737615Y-98128635D01*
X128744773Y-98119806D01*
X128773418Y-98086748D01*
X128786732Y-98066031D01*
X128837049Y-97955851D01*
X128843991Y-97932209D01*
X128862115Y-97806154D01*
X128863000Y-97793782D01*
X128863000Y-97603094D01*
X128862780Y-97596919D01*
X128858443Y-97536291D01*
X128855151Y-97518046D01*
X128820147Y-97398832D01*
X128809914Y-97376425D01*
X128737700Y-97264056D01*
X128738740Y-97263387D01*
X128706543Y-97200366D01*
X128703270Y-97182108D01*
X128696698Y-97129388D01*
X128694622Y-97112731D01*
X128697922Y-97112320D01*
X128695286Y-97061214D01*
X128704647Y-97005114D01*
X128737615Y-96928635D01*
X128744773Y-96919806D01*
X128773418Y-96886748D01*
X128786732Y-96866031D01*
X128837049Y-96755851D01*
X128843991Y-96732209D01*
X128862115Y-96606154D01*
X128863000Y-96593782D01*
X128863000Y-96403094D01*
X128862780Y-96396919D01*
X128858443Y-96336288D01*
X128855151Y-96318046D01*
X128820147Y-96198832D01*
X128809914Y-96176425D01*
X128737700Y-96064056D01*
X128738740Y-96063387D01*
X128706543Y-96000366D01*
X128703270Y-95982108D01*
X128695617Y-95920711D01*
X128694622Y-95912731D01*
X128697922Y-95912320D01*
X128695286Y-95861214D01*
X128704647Y-95805114D01*
X128737615Y-95728635D01*
X128744773Y-95719806D01*
X128773418Y-95686748D01*
X128786732Y-95666031D01*
X128837049Y-95555851D01*
X128843991Y-95532209D01*
X128862115Y-95406154D01*
X128863000Y-95393782D01*
X128863000Y-95203094D01*
X128862780Y-95196919D01*
X128858443Y-95136291D01*
X128855151Y-95118046D01*
X128820147Y-94998832D01*
X128809914Y-94976425D01*
X128737700Y-94864056D01*
X128738740Y-94863387D01*
X128706543Y-94800366D01*
X128703270Y-94782108D01*
X128694622Y-94712731D01*
X128697922Y-94712320D01*
X128695286Y-94661214D01*
X128704647Y-94605114D01*
X128737615Y-94528635D01*
X128744773Y-94519806D01*
X128773418Y-94486748D01*
X128786732Y-94466031D01*
X128837049Y-94355851D01*
X128843991Y-94332209D01*
X128862115Y-94206154D01*
X128863000Y-94193782D01*
X128863000Y-94006218D01*
X130217000Y-94006218D01*
X130217000Y-94196906D01*
X130217220Y-94203081D01*
X130221557Y-94263709D01*
X130224849Y-94281954D01*
X130259853Y-94401168D01*
X130270086Y-94423575D01*
X130342300Y-94535944D01*
X130341260Y-94536613D01*
X130373457Y-94599634D01*
X130376730Y-94617892D01*
X130385378Y-94687269D01*
X130382078Y-94687680D01*
X130384714Y-94738786D01*
X130375353Y-94794886D01*
X130342385Y-94871365D01*
X130335227Y-94880194D01*
X130306582Y-94913252D01*
X130293268Y-94933969D01*
X130242951Y-95044149D01*
X130236009Y-95067791D01*
X130217885Y-95193846D01*
X130217000Y-95206218D01*
X130217000Y-95396906D01*
X130217220Y-95403081D01*
X130221557Y-95463709D01*
X130224849Y-95481954D01*
X130259853Y-95601168D01*
X130270086Y-95623575D01*
X130342300Y-95735944D01*
X130341260Y-95736613D01*
X130373457Y-95799634D01*
X130376730Y-95817892D01*
X130385378Y-95887269D01*
X130382078Y-95887680D01*
X130384714Y-95938786D01*
X130375353Y-95994886D01*
X130342385Y-96071365D01*
X130335227Y-96080194D01*
X130306582Y-96113252D01*
X130293268Y-96133969D01*
X130242951Y-96244149D01*
X130236009Y-96267791D01*
X130217885Y-96393846D01*
X130217000Y-96406218D01*
X130217000Y-96596906D01*
X130217220Y-96603081D01*
X130221557Y-96663709D01*
X130224849Y-96681954D01*
X130259853Y-96801168D01*
X130270086Y-96823575D01*
X130342300Y-96935944D01*
X130341260Y-96936613D01*
X130373457Y-96999634D01*
X130376730Y-97017892D01*
X130384952Y-97083848D01*
X130385378Y-97087269D01*
X130382078Y-97087680D01*
X130384714Y-97138786D01*
X130375353Y-97194886D01*
X130342385Y-97271365D01*
X130335227Y-97280194D01*
X130306582Y-97313252D01*
X130293268Y-97333969D01*
X130242951Y-97444149D01*
X130236009Y-97467791D01*
X130217885Y-97593846D01*
X130217000Y-97606218D01*
X130217000Y-97796906D01*
X130217220Y-97803081D01*
X130221557Y-97863709D01*
X130224849Y-97881954D01*
X130259853Y-98001168D01*
X130270086Y-98023575D01*
X130342300Y-98135944D01*
X130341260Y-98136613D01*
X130373457Y-98199634D01*
X130376730Y-98217892D01*
X130385378Y-98287269D01*
X130382078Y-98287680D01*
X130384714Y-98338786D01*
X130375353Y-98394886D01*
X130342385Y-98471365D01*
X130335227Y-98480194D01*
X130306582Y-98513252D01*
X130293268Y-98533969D01*
X130242951Y-98644149D01*
X130236009Y-98667791D01*
X130217885Y-98793846D01*
X130217000Y-98806218D01*
X130217000Y-98996906D01*
X130217220Y-99003081D01*
X130221557Y-99063709D01*
X130224849Y-99081954D01*
X130259853Y-99201168D01*
X130270086Y-99223575D01*
X130342300Y-99335944D01*
X130341260Y-99336613D01*
X130373457Y-99399634D01*
X130376730Y-99417892D01*
X130385378Y-99487269D01*
X130382078Y-99487680D01*
X130384714Y-99538786D01*
X130375353Y-99594886D01*
X130342385Y-99671365D01*
X130335227Y-99680194D01*
X130306582Y-99713252D01*
X130293268Y-99733969D01*
X130242951Y-99844149D01*
X130236009Y-99867791D01*
X130217885Y-99993846D01*
X130217000Y-100006218D01*
X130217000Y-100196906D01*
X130217220Y-100203081D01*
X130221557Y-100263709D01*
X130224849Y-100281954D01*
X130259853Y-100401168D01*
X130270086Y-100423575D01*
X130342300Y-100535944D01*
X130341260Y-100536613D01*
X130373457Y-100599634D01*
X130376730Y-100617892D01*
X130385378Y-100687269D01*
X130382078Y-100687680D01*
X130384714Y-100738786D01*
X130375353Y-100794886D01*
X130342385Y-100871365D01*
X130335227Y-100880194D01*
X130306582Y-100913252D01*
X130293268Y-100933969D01*
X130242951Y-101044149D01*
X130236009Y-101067791D01*
X130217885Y-101193846D01*
X130217000Y-101206218D01*
X130217000Y-101396906D01*
X130217220Y-101403081D01*
X130221557Y-101463709D01*
X130224849Y-101481954D01*
X130259853Y-101601168D01*
X130270086Y-101623575D01*
X130342300Y-101735944D01*
X130341260Y-101736613D01*
X130373457Y-101799634D01*
X130376730Y-101817892D01*
X130385378Y-101887269D01*
X130382078Y-101887680D01*
X130384714Y-101938786D01*
X130375353Y-101994886D01*
X130342385Y-102071365D01*
X130335227Y-102080194D01*
X130306582Y-102113252D01*
X130293268Y-102133969D01*
X130242951Y-102244149D01*
X130236009Y-102267791D01*
X130217885Y-102393846D01*
X130217000Y-102406218D01*
X130217000Y-102596906D01*
X130217220Y-102603081D01*
X130221557Y-102663709D01*
X130224849Y-102681954D01*
X130259853Y-102801168D01*
X130270086Y-102823575D01*
X130342300Y-102935944D01*
X130341260Y-102936613D01*
X130373457Y-102999634D01*
X130376730Y-103017892D01*
X130385378Y-103087269D01*
X130382078Y-103087680D01*
X130384714Y-103138786D01*
X130375685Y-103192896D01*
X130374500Y-103200000D01*
X130374500Y-103400000D01*
X130376730Y-103417892D01*
X130385378Y-103487270D01*
X130382078Y-103487681D01*
X130384714Y-103538786D01*
X130375685Y-103592896D01*
X130374500Y-103600000D01*
X130374500Y-103800000D01*
X130376730Y-103817892D01*
X130385378Y-103887270D01*
X130382078Y-103887681D01*
X130384714Y-103938786D01*
X130375685Y-103992896D01*
X130374500Y-104000000D01*
X130374500Y-104200000D01*
X130376730Y-104217892D01*
X130385378Y-104287270D01*
X130382078Y-104287681D01*
X130384714Y-104338786D01*
X130375685Y-104392896D01*
X130374500Y-104400000D01*
X130374500Y-104600000D01*
X130380003Y-104644149D01*
X130385378Y-104687270D01*
X130382078Y-104687681D01*
X130384714Y-104738786D01*
X130375685Y-104792896D01*
X130374500Y-104800000D01*
X130374500Y-105000000D01*
X130380003Y-105044149D01*
X130385378Y-105087270D01*
X130382078Y-105087681D01*
X130384714Y-105138786D01*
X130375685Y-105192896D01*
X130374500Y-105200000D01*
X130374500Y-105400000D01*
X130376730Y-105417892D01*
X130385378Y-105487270D01*
X130382078Y-105487681D01*
X130384714Y-105538786D01*
X130375353Y-105594886D01*
X130342385Y-105671365D01*
X130335227Y-105680194D01*
X130306582Y-105713252D01*
X130293268Y-105733969D01*
X130242951Y-105844149D01*
X130236009Y-105867791D01*
X130217885Y-105993846D01*
X130217000Y-106006218D01*
X130217000Y-106196906D01*
X130217220Y-106203081D01*
X130221557Y-106263709D01*
X130224849Y-106281954D01*
X130259853Y-106401168D01*
X130270086Y-106423575D01*
X130342300Y-106535944D01*
X130341260Y-106536613D01*
X130373457Y-106599634D01*
X130376730Y-106617892D01*
X130385378Y-106687269D01*
X130382078Y-106687680D01*
X130384714Y-106738786D01*
X130375353Y-106794886D01*
X130342385Y-106871365D01*
X130335227Y-106880194D01*
X130306582Y-106913252D01*
X130293268Y-106933969D01*
X130242951Y-107044149D01*
X130236009Y-107067791D01*
X130217885Y-107193846D01*
X130217000Y-107206218D01*
X130217000Y-107396906D01*
X130217220Y-107403081D01*
X130221557Y-107463709D01*
X130224849Y-107481954D01*
X130259853Y-107601168D01*
X130270086Y-107623575D01*
X130342300Y-107735944D01*
X130341260Y-107736613D01*
X130373457Y-107799634D01*
X130376730Y-107817892D01*
X130385378Y-107887269D01*
X130382078Y-107887680D01*
X130384714Y-107938786D01*
X130375353Y-107994886D01*
X130342385Y-108071365D01*
X130335227Y-108080194D01*
X130306582Y-108113252D01*
X130293268Y-108133969D01*
X130242951Y-108244149D01*
X130236009Y-108267791D01*
X130217885Y-108393846D01*
X130217000Y-108406218D01*
X130217000Y-108596906D01*
X130217220Y-108603081D01*
X130221557Y-108663709D01*
X130224849Y-108681954D01*
X130259853Y-108801168D01*
X130270086Y-108823575D01*
X130342300Y-108935944D01*
X130341260Y-108936613D01*
X130373457Y-108999634D01*
X130376730Y-109017892D01*
X130385378Y-109087269D01*
X130382078Y-109087680D01*
X130384714Y-109138786D01*
X130375353Y-109194886D01*
X130342385Y-109271365D01*
X130335227Y-109280194D01*
X130306582Y-109313252D01*
X130293268Y-109333969D01*
X130242951Y-109444149D01*
X130236009Y-109467791D01*
X130217885Y-109593846D01*
X130217000Y-109606218D01*
X130217000Y-109796906D01*
X130217220Y-109803081D01*
X130221557Y-109863709D01*
X130224849Y-109881954D01*
X130259853Y-110001168D01*
X130270086Y-110023575D01*
X130342300Y-110135944D01*
X130341260Y-110136613D01*
X130373457Y-110199634D01*
X130376730Y-110217892D01*
X130385378Y-110287269D01*
X130382078Y-110287680D01*
X130384714Y-110338786D01*
X130375353Y-110394886D01*
X130342385Y-110471365D01*
X130335227Y-110480194D01*
X130306582Y-110513252D01*
X130293268Y-110533969D01*
X130242951Y-110644149D01*
X130236009Y-110667791D01*
X130217885Y-110793846D01*
X130217000Y-110806218D01*
X130217000Y-110996906D01*
X130217220Y-111003081D01*
X130221557Y-111063709D01*
X130224849Y-111081954D01*
X130259853Y-111201168D01*
X130270086Y-111223575D01*
X130342300Y-111335944D01*
X130341260Y-111336613D01*
X130373457Y-111399634D01*
X130376730Y-111417892D01*
X130384504Y-111480254D01*
X130385378Y-111487269D01*
X130382078Y-111487680D01*
X130384714Y-111538786D01*
X130375353Y-111594886D01*
X130342385Y-111671365D01*
X130335227Y-111680194D01*
X130306582Y-111713252D01*
X130293268Y-111733969D01*
X130242951Y-111844149D01*
X130236009Y-111867791D01*
X130217885Y-111993846D01*
X130217000Y-112006218D01*
X130217000Y-112196906D01*
X130217220Y-112203081D01*
X130221557Y-112263709D01*
X130224849Y-112281954D01*
X130259853Y-112401168D01*
X130270086Y-112423575D01*
X130342300Y-112535944D01*
X130341260Y-112536613D01*
X130373457Y-112599634D01*
X130376730Y-112617892D01*
X130383793Y-112674550D01*
X130385378Y-112687269D01*
X130382078Y-112687680D01*
X130384714Y-112738786D01*
X130375685Y-112792896D01*
X130374500Y-112800000D01*
X130374500Y-113000000D01*
X130379674Y-113041510D01*
X130385378Y-113087270D01*
X130382078Y-113087681D01*
X130384714Y-113138786D01*
X130375685Y-113192896D01*
X130374500Y-113200000D01*
X130374500Y-113400000D01*
X130385378Y-113487270D01*
X130390440Y-113498810D01*
X130390441Y-113498814D01*
X130403294Y-113528114D01*
X130432387Y-113594440D01*
X130442149Y-113605044D01*
X130442150Y-113605046D01*
X130501882Y-113669932D01*
X130501884Y-113669933D01*
X130511647Y-113680539D01*
X130614569Y-113736238D01*
X130730000Y-113755500D01*
X131430000Y-113755500D01*
X131517270Y-113744622D01*
X131528810Y-113739560D01*
X131528814Y-113739559D01*
X131576352Y-113718706D01*
X131624440Y-113697613D01*
X131635044Y-113687851D01*
X131635046Y-113687850D01*
X131699932Y-113628118D01*
X131699933Y-113628116D01*
X131710539Y-113618353D01*
X131766238Y-113515431D01*
X131781418Y-113424460D01*
X131814386Y-113347982D01*
X131879119Y-113295585D01*
X131953044Y-113279100D01*
X132389264Y-113279101D01*
X132693496Y-113279101D01*
X132774358Y-113299032D01*
X132831540Y-113347177D01*
X132919018Y-113461182D01*
X133045250Y-113558042D01*
X133055786Y-113562406D01*
X133181709Y-113614566D01*
X133181711Y-113614566D01*
X133192250Y-113618932D01*
X133350000Y-113639700D01*
X133507750Y-113618932D01*
X133518289Y-113614566D01*
X133518291Y-113614566D01*
X133644214Y-113562406D01*
X133654750Y-113558042D01*
X133780982Y-113461182D01*
X133877842Y-113334950D01*
X133938732Y-113187950D01*
X133959500Y-113030200D01*
X133938732Y-112872450D01*
X133906503Y-112794643D01*
X133894882Y-112766587D01*
X133882351Y-112684253D01*
X133894882Y-112633413D01*
X133934366Y-112538091D01*
X133934366Y-112538089D01*
X133938732Y-112527550D01*
X133959500Y-112369800D01*
X133938732Y-112212050D01*
X133877842Y-112065050D01*
X133780982Y-111938818D01*
X133654750Y-111841958D01*
X133590853Y-111815491D01*
X133518291Y-111785434D01*
X133518289Y-111785434D01*
X133507750Y-111781068D01*
X133350000Y-111760300D01*
X133192250Y-111781068D01*
X133181711Y-111785434D01*
X133181709Y-111785434D01*
X133109147Y-111815491D01*
X133045250Y-111841958D01*
X132919018Y-111938818D01*
X132912073Y-111947869D01*
X132831540Y-112052823D01*
X132766503Y-112104842D01*
X132693496Y-112120899D01*
X132543846Y-112120899D01*
X132113646Y-112120900D01*
X132032785Y-112100969D01*
X131970448Y-112045744D01*
X131940916Y-111967874D01*
X131940090Y-111959315D01*
X131938443Y-111936291D01*
X131935151Y-111918046D01*
X131900147Y-111798832D01*
X131889914Y-111776425D01*
X131817700Y-111664056D01*
X131818740Y-111663387D01*
X131786543Y-111600366D01*
X131783270Y-111582108D01*
X131774622Y-111512731D01*
X131777922Y-111512320D01*
X131775286Y-111461214D01*
X131784647Y-111405114D01*
X131817615Y-111328635D01*
X131824773Y-111319806D01*
X131853418Y-111286748D01*
X131866732Y-111266031D01*
X131917049Y-111155851D01*
X131923991Y-111132209D01*
X131942115Y-111006154D01*
X131943000Y-110993782D01*
X131943000Y-110803094D01*
X131942780Y-110796919D01*
X131938443Y-110736291D01*
X131935151Y-110718046D01*
X131900147Y-110598832D01*
X131889914Y-110576425D01*
X131817700Y-110464056D01*
X131818740Y-110463387D01*
X131786543Y-110400366D01*
X131783270Y-110382108D01*
X131774622Y-110312731D01*
X131777922Y-110312320D01*
X131775286Y-110261214D01*
X131784647Y-110205114D01*
X131817615Y-110128635D01*
X131824773Y-110119806D01*
X131853418Y-110086748D01*
X131866732Y-110066031D01*
X131917049Y-109955851D01*
X131923991Y-109932209D01*
X131942115Y-109806154D01*
X131943000Y-109793782D01*
X131943000Y-109603094D01*
X131942780Y-109596919D01*
X131938443Y-109536291D01*
X131935151Y-109518046D01*
X131900147Y-109398832D01*
X131889914Y-109376425D01*
X131817700Y-109264056D01*
X131818740Y-109263387D01*
X131786543Y-109200366D01*
X131783270Y-109182108D01*
X131774959Y-109115431D01*
X131774622Y-109112731D01*
X131777922Y-109112320D01*
X131775286Y-109061214D01*
X131784647Y-109005114D01*
X131817615Y-108928635D01*
X131824773Y-108919806D01*
X131853418Y-108886748D01*
X131866732Y-108866031D01*
X131917049Y-108755851D01*
X131923991Y-108732209D01*
X131942115Y-108606154D01*
X131943000Y-108593782D01*
X131943000Y-108403094D01*
X131942780Y-108396919D01*
X131938443Y-108336291D01*
X131935151Y-108318046D01*
X131900147Y-108198832D01*
X131889914Y-108176425D01*
X131817700Y-108064056D01*
X131818740Y-108063387D01*
X131786543Y-108000366D01*
X131783270Y-107982108D01*
X131774622Y-107912731D01*
X131777922Y-107912320D01*
X131775286Y-107861214D01*
X131784647Y-107805114D01*
X131817615Y-107728635D01*
X131824773Y-107719806D01*
X131853418Y-107686748D01*
X131866732Y-107666031D01*
X131917049Y-107555851D01*
X131923991Y-107532209D01*
X131942115Y-107406154D01*
X131943000Y-107393782D01*
X131943000Y-107203094D01*
X131942780Y-107196919D01*
X131938443Y-107136291D01*
X131935151Y-107118046D01*
X131900147Y-106998832D01*
X131889914Y-106976425D01*
X131817700Y-106864056D01*
X131818740Y-106863387D01*
X131786543Y-106800366D01*
X131783270Y-106782108D01*
X131774622Y-106712731D01*
X131777922Y-106712320D01*
X131775286Y-106661214D01*
X131784647Y-106605114D01*
X131817615Y-106528635D01*
X131824773Y-106519806D01*
X131853418Y-106486748D01*
X131866732Y-106466031D01*
X131917049Y-106355851D01*
X131923991Y-106332209D01*
X131942115Y-106206154D01*
X131943000Y-106193782D01*
X131943000Y-106003094D01*
X131942780Y-105996919D01*
X131938443Y-105936291D01*
X131935151Y-105918046D01*
X131900147Y-105798832D01*
X131889914Y-105776425D01*
X131817700Y-105664056D01*
X131818740Y-105663387D01*
X131786543Y-105600366D01*
X131783270Y-105582108D01*
X131774622Y-105512731D01*
X131777922Y-105512320D01*
X131775286Y-105461214D01*
X131784315Y-105407104D01*
X131784315Y-105407099D01*
X131785500Y-105400000D01*
X131785500Y-105200000D01*
X131774622Y-105112730D01*
X131777922Y-105112319D01*
X131775286Y-105061214D01*
X131784315Y-105007104D01*
X131784315Y-105007099D01*
X131785500Y-105000000D01*
X131785500Y-104800000D01*
X131774622Y-104712730D01*
X131777922Y-104712319D01*
X131775286Y-104661214D01*
X131784315Y-104607104D01*
X131784315Y-104607099D01*
X131785500Y-104600000D01*
X131785500Y-104400000D01*
X131774622Y-104312730D01*
X131777922Y-104312319D01*
X131775286Y-104261214D01*
X131784315Y-104207104D01*
X131784315Y-104207099D01*
X131785500Y-104200000D01*
X131785500Y-104000000D01*
X131774622Y-103912730D01*
X131777922Y-103912319D01*
X131775286Y-103861214D01*
X131784315Y-103807104D01*
X131784315Y-103807099D01*
X131785500Y-103800000D01*
X131785500Y-103600000D01*
X131774622Y-103512730D01*
X131777922Y-103512319D01*
X131775286Y-103461214D01*
X131784315Y-103407104D01*
X131784315Y-103407099D01*
X131785500Y-103400000D01*
X131785500Y-103200000D01*
X131774622Y-103112730D01*
X131777922Y-103112319D01*
X131775286Y-103061214D01*
X131784647Y-103005114D01*
X131817615Y-102928635D01*
X131824773Y-102919806D01*
X131853418Y-102886748D01*
X131866732Y-102866031D01*
X131917049Y-102755851D01*
X131923991Y-102732209D01*
X131942115Y-102606154D01*
X131943000Y-102593782D01*
X131943000Y-102403094D01*
X131942780Y-102396919D01*
X131938443Y-102336291D01*
X131935151Y-102318046D01*
X131900147Y-102198832D01*
X131889914Y-102176425D01*
X131817700Y-102064056D01*
X131818740Y-102063387D01*
X131786543Y-102000366D01*
X131783270Y-101982108D01*
X131774622Y-101912731D01*
X131777922Y-101912320D01*
X131775286Y-101861214D01*
X131784647Y-101805114D01*
X131817615Y-101728635D01*
X131824773Y-101719806D01*
X131853418Y-101686748D01*
X131866732Y-101666031D01*
X131917049Y-101555851D01*
X131923991Y-101532209D01*
X131942115Y-101406154D01*
X131943000Y-101393782D01*
X131943000Y-101203094D01*
X131942780Y-101196919D01*
X131938443Y-101136291D01*
X131935151Y-101118046D01*
X131900147Y-100998832D01*
X131889914Y-100976425D01*
X131817700Y-100864056D01*
X131818740Y-100863387D01*
X131786543Y-100800366D01*
X131783270Y-100782108D01*
X131774622Y-100712731D01*
X131777922Y-100712320D01*
X131775286Y-100661214D01*
X131784647Y-100605114D01*
X131817615Y-100528635D01*
X131824773Y-100519806D01*
X131853418Y-100486748D01*
X131866732Y-100466031D01*
X131917049Y-100355851D01*
X131923991Y-100332209D01*
X131942115Y-100206154D01*
X131943000Y-100193782D01*
X131943000Y-100003094D01*
X131942780Y-99996919D01*
X131938443Y-99936291D01*
X131935151Y-99918046D01*
X131900147Y-99798832D01*
X131889914Y-99776425D01*
X131817700Y-99664056D01*
X131818740Y-99663387D01*
X131786543Y-99600366D01*
X131783270Y-99582108D01*
X131774622Y-99512731D01*
X131777922Y-99512320D01*
X131775286Y-99461214D01*
X131784647Y-99405114D01*
X131817615Y-99328635D01*
X131824773Y-99319806D01*
X131853418Y-99286748D01*
X131866732Y-99266031D01*
X131917049Y-99155851D01*
X131923991Y-99132209D01*
X131942115Y-99006154D01*
X131943000Y-98993782D01*
X131943000Y-98803094D01*
X131942780Y-98796919D01*
X131938443Y-98736291D01*
X131935151Y-98718046D01*
X131900147Y-98598832D01*
X131889914Y-98576425D01*
X131817700Y-98464056D01*
X131818740Y-98463387D01*
X131786543Y-98400366D01*
X131783270Y-98382108D01*
X131774622Y-98312731D01*
X131777922Y-98312320D01*
X131775286Y-98261214D01*
X131784647Y-98205114D01*
X131817615Y-98128635D01*
X131824773Y-98119806D01*
X131853418Y-98086748D01*
X131866732Y-98066031D01*
X131917049Y-97955851D01*
X131923991Y-97932209D01*
X131942115Y-97806154D01*
X131943000Y-97793782D01*
X131943000Y-97603094D01*
X131942780Y-97596919D01*
X131938443Y-97536291D01*
X131935151Y-97518046D01*
X131900147Y-97398832D01*
X131889914Y-97376425D01*
X131817700Y-97264056D01*
X131818740Y-97263387D01*
X131786543Y-97200366D01*
X131783270Y-97182108D01*
X131776698Y-97129388D01*
X131774622Y-97112731D01*
X131777922Y-97112320D01*
X131775286Y-97061214D01*
X131784647Y-97005114D01*
X131817615Y-96928635D01*
X131824773Y-96919806D01*
X131853418Y-96886748D01*
X131866732Y-96866031D01*
X131917049Y-96755851D01*
X131923991Y-96732209D01*
X131942115Y-96606154D01*
X131943000Y-96593782D01*
X131943000Y-96403094D01*
X131942780Y-96396919D01*
X131938443Y-96336288D01*
X131935151Y-96318046D01*
X131900147Y-96198832D01*
X131889914Y-96176425D01*
X131817700Y-96064056D01*
X131818740Y-96063387D01*
X131786543Y-96000366D01*
X131783270Y-95982108D01*
X131775617Y-95920711D01*
X131774622Y-95912731D01*
X131777922Y-95912320D01*
X131775286Y-95861214D01*
X131784647Y-95805114D01*
X131817615Y-95728635D01*
X131824773Y-95719806D01*
X131853418Y-95686748D01*
X131866732Y-95666031D01*
X131917049Y-95555851D01*
X131923991Y-95532209D01*
X131942115Y-95406154D01*
X131943000Y-95393782D01*
X131943000Y-95203094D01*
X131942780Y-95196919D01*
X131938443Y-95136291D01*
X131935151Y-95118046D01*
X131900147Y-94998832D01*
X131889914Y-94976425D01*
X131817700Y-94864056D01*
X131818740Y-94863387D01*
X131786543Y-94800366D01*
X131783270Y-94782108D01*
X131774622Y-94712731D01*
X131777922Y-94712320D01*
X131775286Y-94661214D01*
X131784647Y-94605114D01*
X131817615Y-94528635D01*
X131824773Y-94519806D01*
X131853418Y-94486748D01*
X131866732Y-94466031D01*
X131917049Y-94355851D01*
X131923991Y-94332209D01*
X131942115Y-94206154D01*
X131943000Y-94193782D01*
X131943000Y-94003094D01*
X131942780Y-93996919D01*
X131938443Y-93936291D01*
X131935151Y-93918046D01*
X131900147Y-93798832D01*
X131889914Y-93776425D01*
X131817700Y-93664056D01*
X131818740Y-93663387D01*
X131786543Y-93600366D01*
X131783270Y-93582108D01*
X131777994Y-93539781D01*
X131774622Y-93512730D01*
X131769560Y-93501190D01*
X131769559Y-93501186D01*
X131736695Y-93426266D01*
X131727613Y-93405560D01*
X131717851Y-93394956D01*
X131717850Y-93394954D01*
X131658118Y-93330068D01*
X131658116Y-93330067D01*
X131648353Y-93319461D01*
X131545431Y-93263762D01*
X131430000Y-93244500D01*
X130730000Y-93244500D01*
X130642730Y-93255378D01*
X130631190Y-93260440D01*
X130631186Y-93260441D01*
X130583648Y-93281294D01*
X130535560Y-93302387D01*
X130524956Y-93312149D01*
X130524954Y-93312150D01*
X130460068Y-93371882D01*
X130460067Y-93371884D01*
X130449461Y-93381647D01*
X130393762Y-93484569D01*
X130385118Y-93536368D01*
X130375353Y-93594887D01*
X130342384Y-93671365D01*
X130335228Y-93680191D01*
X130306585Y-93713248D01*
X130293268Y-93733969D01*
X130242951Y-93844149D01*
X130236009Y-93867791D01*
X130217885Y-93993846D01*
X130217000Y-94006218D01*
X128863000Y-94006218D01*
X128863000Y-94003094D01*
X128862780Y-93996919D01*
X128858443Y-93936291D01*
X128855151Y-93918046D01*
X128820147Y-93798832D01*
X128809914Y-93776425D01*
X128737700Y-93664056D01*
X128738740Y-93663387D01*
X128706543Y-93600366D01*
X128703270Y-93582108D01*
X128697994Y-93539781D01*
X128694622Y-93512730D01*
X128689560Y-93501190D01*
X128689559Y-93501186D01*
X128656695Y-93426266D01*
X128647613Y-93405560D01*
X128637851Y-93394956D01*
X128637850Y-93394954D01*
X128578118Y-93330068D01*
X128578116Y-93330067D01*
X128568353Y-93319461D01*
X128465431Y-93263762D01*
X128350000Y-93244500D01*
X127650000Y-93244500D01*
X127562730Y-93255378D01*
X127551190Y-93260440D01*
X127551186Y-93260441D01*
X127503648Y-93281294D01*
X127455560Y-93302387D01*
X127444956Y-93312149D01*
X127444954Y-93312150D01*
X127380068Y-93371882D01*
X127380067Y-93371884D01*
X127369461Y-93381647D01*
X127313762Y-93484569D01*
X127305118Y-93536368D01*
X127295353Y-93594887D01*
X127262384Y-93671365D01*
X127255228Y-93680191D01*
X127226585Y-93713248D01*
X127213268Y-93733969D01*
X127162951Y-93844149D01*
X127156009Y-93867791D01*
X127137885Y-93993846D01*
X127137000Y-94006218D01*
X125905874Y-94006218D01*
X125905874Y-92054382D01*
X159995671Y-92054382D01*
X159998259Y-92066508D01*
X159999097Y-92078795D01*
X159999500Y-92090632D01*
X159999500Y-97834914D01*
X160000376Y-97841028D01*
X160000376Y-97841034D01*
X160013060Y-97929604D01*
X160014818Y-97941877D01*
X160019949Y-97953163D01*
X160019950Y-97953165D01*
X160022512Y-97958799D01*
X160074140Y-98072349D01*
X160167697Y-98180926D01*
X160287967Y-98258882D01*
X160299841Y-98262433D01*
X160311097Y-98267634D01*
X160309929Y-98270162D01*
X160367281Y-98304385D01*
X160455782Y-98392886D01*
X160469389Y-98408198D01*
X160488189Y-98432045D01*
X160533537Y-98463387D01*
X160535794Y-98464947D01*
X160540241Y-98468124D01*
X160576397Y-98494830D01*
X160576401Y-98494832D01*
X160586857Y-98502555D01*
X160593669Y-98504947D01*
X160599608Y-98509052D01*
X160612014Y-98512975D01*
X160612013Y-98512975D01*
X160654820Y-98526513D01*
X160660006Y-98528243D01*
X160714648Y-98547432D01*
X160721862Y-98547715D01*
X160728744Y-98549892D01*
X160736469Y-98550500D01*
X160789319Y-98550500D01*
X160796150Y-98550634D01*
X160849984Y-98552749D01*
X160857459Y-98550767D01*
X160862309Y-98550500D01*
X160892066Y-98550500D01*
X160972928Y-98570431D01*
X161035265Y-98625657D01*
X161064797Y-98703527D01*
X161064295Y-98749263D01*
X161057885Y-98793846D01*
X161057000Y-98806218D01*
X161057000Y-98996906D01*
X161057220Y-99003081D01*
X161061557Y-99063709D01*
X161064849Y-99081954D01*
X161099853Y-99201168D01*
X161110086Y-99223575D01*
X161182300Y-99335944D01*
X161181260Y-99336613D01*
X161213457Y-99399634D01*
X161216730Y-99417892D01*
X161225378Y-99487269D01*
X161222078Y-99487680D01*
X161224714Y-99538786D01*
X161215685Y-99592896D01*
X161214500Y-99600000D01*
X161214500Y-99800000D01*
X161216730Y-99817892D01*
X161225378Y-99887270D01*
X161222078Y-99887681D01*
X161224714Y-99938786D01*
X161215353Y-99994886D01*
X161182385Y-100071365D01*
X161175227Y-100080194D01*
X161146582Y-100113252D01*
X161133268Y-100133969D01*
X161082951Y-100244149D01*
X161076009Y-100267791D01*
X161057885Y-100393846D01*
X161057000Y-100406218D01*
X161057000Y-100596906D01*
X161057220Y-100603081D01*
X161061557Y-100663709D01*
X161064849Y-100681954D01*
X161099853Y-100801168D01*
X161110086Y-100823575D01*
X161182300Y-100935944D01*
X161181260Y-100936613D01*
X161213457Y-100999634D01*
X161216730Y-101017892D01*
X161225378Y-101087269D01*
X161222078Y-101087680D01*
X161224714Y-101138786D01*
X161215353Y-101194886D01*
X161182385Y-101271365D01*
X161175227Y-101280194D01*
X161146582Y-101313252D01*
X161133268Y-101333969D01*
X161082951Y-101444149D01*
X161076009Y-101467791D01*
X161057885Y-101593846D01*
X161057000Y-101606218D01*
X161057000Y-101796906D01*
X161057220Y-101803081D01*
X161061557Y-101863709D01*
X161064849Y-101881954D01*
X161099853Y-102001168D01*
X161110086Y-102023575D01*
X161182300Y-102135944D01*
X161181260Y-102136613D01*
X161213457Y-102199634D01*
X161216730Y-102217892D01*
X161225378Y-102287269D01*
X161222078Y-102287680D01*
X161224714Y-102338786D01*
X161215685Y-102392896D01*
X161214500Y-102400000D01*
X161214500Y-102600000D01*
X161220003Y-102644149D01*
X161225378Y-102687270D01*
X161222078Y-102687681D01*
X161224714Y-102738786D01*
X161215353Y-102794886D01*
X161182385Y-102871365D01*
X161175227Y-102880194D01*
X161146582Y-102913252D01*
X161133268Y-102933969D01*
X161082951Y-103044149D01*
X161076009Y-103067791D01*
X161057885Y-103193846D01*
X161057000Y-103206218D01*
X161057000Y-103396906D01*
X161057220Y-103403081D01*
X161061557Y-103463709D01*
X161064849Y-103481954D01*
X161099853Y-103601168D01*
X161110086Y-103623575D01*
X161182300Y-103735944D01*
X161181260Y-103736613D01*
X161213457Y-103799634D01*
X161216730Y-103817892D01*
X161225378Y-103887269D01*
X161222078Y-103887680D01*
X161224714Y-103938786D01*
X161215685Y-103992896D01*
X161214500Y-104000000D01*
X161214500Y-104200000D01*
X161216730Y-104217892D01*
X161225378Y-104287270D01*
X161222078Y-104287681D01*
X161224714Y-104338786D01*
X161215685Y-104392896D01*
X161214500Y-104400000D01*
X161214500Y-104600000D01*
X161220003Y-104644149D01*
X161225378Y-104687270D01*
X161222078Y-104687681D01*
X161224714Y-104738786D01*
X161215353Y-104794886D01*
X161182385Y-104871365D01*
X161175227Y-104880194D01*
X161146582Y-104913252D01*
X161133268Y-104933969D01*
X161082951Y-105044149D01*
X161076009Y-105067791D01*
X161057885Y-105193846D01*
X161057000Y-105206218D01*
X161057000Y-105396906D01*
X161057220Y-105403081D01*
X161061557Y-105463709D01*
X161064849Y-105481954D01*
X161099853Y-105601168D01*
X161110086Y-105623575D01*
X161182300Y-105735944D01*
X161181260Y-105736613D01*
X161213457Y-105799634D01*
X161216730Y-105817892D01*
X161225378Y-105887269D01*
X161222078Y-105887680D01*
X161224714Y-105938786D01*
X161215685Y-105992896D01*
X161214500Y-106000000D01*
X161214500Y-106200000D01*
X161222130Y-106261214D01*
X161225378Y-106287270D01*
X161222078Y-106287681D01*
X161224714Y-106338786D01*
X161215685Y-106392896D01*
X161214500Y-106400000D01*
X161214500Y-106600000D01*
X161216730Y-106617892D01*
X161225378Y-106687270D01*
X161222078Y-106687681D01*
X161224714Y-106738786D01*
X161215353Y-106794886D01*
X161182385Y-106871365D01*
X161175227Y-106880194D01*
X161146582Y-106913252D01*
X161133268Y-106933969D01*
X161082951Y-107044149D01*
X161076009Y-107067791D01*
X161057885Y-107193846D01*
X161057000Y-107206218D01*
X161057000Y-107396906D01*
X161057220Y-107403081D01*
X161061557Y-107463709D01*
X161064849Y-107481954D01*
X161099853Y-107601168D01*
X161110086Y-107623575D01*
X161182300Y-107735944D01*
X161181260Y-107736613D01*
X161213457Y-107799634D01*
X161216730Y-107817892D01*
X161225378Y-107887269D01*
X161222078Y-107887680D01*
X161224714Y-107938786D01*
X161215685Y-107992896D01*
X161214500Y-108000000D01*
X161214500Y-108200000D01*
X161219374Y-108239100D01*
X161225378Y-108287270D01*
X161222078Y-108287681D01*
X161224714Y-108338786D01*
X161216005Y-108390980D01*
X161214500Y-108400000D01*
X161214500Y-108600000D01*
X161219449Y-108639702D01*
X161225378Y-108687270D01*
X161222078Y-108687681D01*
X161224714Y-108738786D01*
X161215353Y-108794886D01*
X161182385Y-108871365D01*
X161175227Y-108880194D01*
X161146582Y-108913252D01*
X161133268Y-108933969D01*
X161082951Y-109044149D01*
X161076009Y-109067791D01*
X161070135Y-109108642D01*
X161038899Y-109185845D01*
X160975363Y-109239688D01*
X160929302Y-109255023D01*
X160928967Y-109255084D01*
X160928849Y-109255106D01*
X160923344Y-109256024D01*
X160891176Y-109260861D01*
X160878928Y-109262702D01*
X160878927Y-109262702D01*
X160866065Y-109264636D01*
X160859557Y-109267761D01*
X160852455Y-109269058D01*
X160840912Y-109275054D01*
X160801061Y-109295755D01*
X160796210Y-109298179D01*
X160743971Y-109323265D01*
X160738670Y-109328165D01*
X160732264Y-109331493D01*
X160726372Y-109336525D01*
X160709974Y-109352922D01*
X160638707Y-109396004D01*
X160609653Y-109402394D01*
X160592083Y-109404708D01*
X160553557Y-109409779D01*
X160553554Y-109409780D01*
X160542250Y-109411268D01*
X160395250Y-109472158D01*
X160269018Y-109569018D01*
X160172158Y-109695250D01*
X160149217Y-109750634D01*
X160126220Y-109806154D01*
X160111268Y-109842250D01*
X160090500Y-110000000D01*
X160111268Y-110157750D01*
X160172158Y-110304750D01*
X160269018Y-110430982D01*
X160395250Y-110527842D01*
X160405786Y-110532206D01*
X160531709Y-110584366D01*
X160531711Y-110584366D01*
X160542250Y-110588732D01*
X160700000Y-110609500D01*
X160711310Y-110608011D01*
X160857750Y-110588732D01*
X160858060Y-110591087D01*
X160925261Y-110589732D01*
X160999769Y-110626939D01*
X161048451Y-110694511D01*
X161059266Y-110784240D01*
X161057885Y-110793850D01*
X161057000Y-110806218D01*
X161057000Y-110996906D01*
X161057220Y-111003081D01*
X161061557Y-111063709D01*
X161064849Y-111081954D01*
X161099853Y-111201168D01*
X161110086Y-111223575D01*
X161182300Y-111335944D01*
X161181260Y-111336613D01*
X161213457Y-111399634D01*
X161216730Y-111417892D01*
X161224504Y-111480254D01*
X161225378Y-111487269D01*
X161222078Y-111487680D01*
X161224714Y-111538786D01*
X161215353Y-111594886D01*
X161182385Y-111671365D01*
X161175227Y-111680194D01*
X161146582Y-111713252D01*
X161133268Y-111733969D01*
X161082951Y-111844149D01*
X161076009Y-111867791D01*
X161057885Y-111993846D01*
X161057000Y-112006218D01*
X161057000Y-112196906D01*
X161057220Y-112203081D01*
X161061557Y-112263709D01*
X161064849Y-112281954D01*
X161099853Y-112401168D01*
X161110086Y-112423575D01*
X161182300Y-112535944D01*
X161181260Y-112536613D01*
X161213457Y-112599634D01*
X161216730Y-112617892D01*
X161223793Y-112674550D01*
X161225378Y-112687269D01*
X161222078Y-112687680D01*
X161224714Y-112738786D01*
X161215353Y-112794886D01*
X161182385Y-112871365D01*
X161175227Y-112880194D01*
X161146582Y-112913252D01*
X161133268Y-112933969D01*
X161082951Y-113044149D01*
X161076009Y-113067791D01*
X161057885Y-113193846D01*
X161057000Y-113206218D01*
X161057000Y-113396906D01*
X161057220Y-113403081D01*
X161061557Y-113463709D01*
X161064849Y-113481954D01*
X161099853Y-113601168D01*
X161110086Y-113623575D01*
X161175574Y-113725478D01*
X161191704Y-113744092D01*
X161283248Y-113823415D01*
X161303969Y-113836732D01*
X161414149Y-113887049D01*
X161437791Y-113893991D01*
X161563846Y-113912115D01*
X161576218Y-113913000D01*
X162266906Y-113913000D01*
X162273081Y-113912780D01*
X162333709Y-113908443D01*
X162351954Y-113905151D01*
X162471168Y-113870147D01*
X162493575Y-113859914D01*
X162595478Y-113794426D01*
X162614092Y-113778296D01*
X162693415Y-113686752D01*
X162706732Y-113666031D01*
X162757049Y-113555851D01*
X162763991Y-113532209D01*
X162782115Y-113406154D01*
X162783000Y-113393782D01*
X162783000Y-113203094D01*
X162782780Y-113196919D01*
X162778443Y-113136291D01*
X162775151Y-113118046D01*
X162740147Y-112998832D01*
X162729914Y-112976425D01*
X162657700Y-112864056D01*
X162658740Y-112863387D01*
X162626543Y-112800366D01*
X162623270Y-112782108D01*
X162617870Y-112738786D01*
X162614622Y-112712731D01*
X162617922Y-112712320D01*
X162615286Y-112661214D01*
X162624647Y-112605114D01*
X162657615Y-112528635D01*
X162664773Y-112519806D01*
X162693418Y-112486748D01*
X162706732Y-112466031D01*
X162757049Y-112355851D01*
X162763991Y-112332209D01*
X162782115Y-112206154D01*
X162783000Y-112193782D01*
X162783000Y-112003094D01*
X162782780Y-111996919D01*
X162778443Y-111936291D01*
X162775151Y-111918046D01*
X162740147Y-111798832D01*
X162729914Y-111776425D01*
X162657700Y-111664056D01*
X162658740Y-111663387D01*
X162626543Y-111600366D01*
X162623270Y-111582108D01*
X162614622Y-111512731D01*
X162617922Y-111512320D01*
X162615286Y-111461214D01*
X162624647Y-111405114D01*
X162657615Y-111328635D01*
X162664773Y-111319806D01*
X162693418Y-111286748D01*
X162706732Y-111266031D01*
X162757049Y-111155851D01*
X162763991Y-111132209D01*
X162782115Y-111006154D01*
X162783000Y-110993782D01*
X162783000Y-110803094D01*
X162782780Y-110796919D01*
X162778443Y-110736291D01*
X162775151Y-110718046D01*
X162740147Y-110598832D01*
X162729914Y-110576425D01*
X162657700Y-110464056D01*
X162658740Y-110463387D01*
X162626543Y-110400366D01*
X162623270Y-110382108D01*
X162614622Y-110312731D01*
X162617922Y-110312320D01*
X162615286Y-110261214D01*
X162624315Y-110207104D01*
X162624315Y-110207099D01*
X162625500Y-110200000D01*
X162625500Y-110000000D01*
X162614622Y-109912730D01*
X162617922Y-109912319D01*
X162615286Y-109861214D01*
X162624647Y-109805114D01*
X162657615Y-109728635D01*
X162664773Y-109719806D01*
X162693418Y-109686748D01*
X162706732Y-109666031D01*
X162757049Y-109555851D01*
X162763991Y-109532209D01*
X162782115Y-109406154D01*
X162783000Y-109393782D01*
X162783000Y-109322932D01*
X162802931Y-109242070D01*
X162858157Y-109179733D01*
X162936027Y-109150201D01*
X163018701Y-109160239D01*
X163068101Y-109192178D01*
X163069018Y-109190982D01*
X163195250Y-109287842D01*
X163256595Y-109313252D01*
X163331709Y-109344366D01*
X163331711Y-109344366D01*
X163342250Y-109348732D01*
X163409655Y-109357606D01*
X163487218Y-109387919D01*
X163509976Y-109407079D01*
X163695783Y-109592886D01*
X163709391Y-109608200D01*
X163728189Y-109632045D01*
X163775812Y-109664959D01*
X163780258Y-109668137D01*
X163816391Y-109694825D01*
X163816393Y-109694826D01*
X163826857Y-109702555D01*
X163833669Y-109704947D01*
X163839608Y-109709052D01*
X163894891Y-109726535D01*
X163899989Y-109728236D01*
X163954648Y-109747431D01*
X163961858Y-109747714D01*
X163968744Y-109749892D01*
X163976469Y-109750500D01*
X164029328Y-109750500D01*
X164036160Y-109750634D01*
X164089984Y-109752749D01*
X164097460Y-109750767D01*
X164102308Y-109750500D01*
X164130693Y-109750500D01*
X164211555Y-109770431D01*
X164273892Y-109825657D01*
X164303424Y-109903527D01*
X164302320Y-109953137D01*
X164294500Y-110000000D01*
X164294500Y-110200000D01*
X164296730Y-110217892D01*
X164305378Y-110287270D01*
X164302078Y-110287681D01*
X164304714Y-110338786D01*
X164295353Y-110394886D01*
X164262385Y-110471365D01*
X164255227Y-110480194D01*
X164226582Y-110513252D01*
X164213268Y-110533969D01*
X164162951Y-110644149D01*
X164156009Y-110667791D01*
X164137885Y-110793846D01*
X164137000Y-110806218D01*
X164137000Y-110996906D01*
X164137220Y-111003081D01*
X164141557Y-111063709D01*
X164144849Y-111081954D01*
X164179853Y-111201168D01*
X164190086Y-111223575D01*
X164262300Y-111335944D01*
X164261260Y-111336613D01*
X164293457Y-111399634D01*
X164296730Y-111417892D01*
X164304504Y-111480254D01*
X164305378Y-111487269D01*
X164302078Y-111487680D01*
X164304714Y-111538786D01*
X164295353Y-111594886D01*
X164262385Y-111671365D01*
X164255227Y-111680194D01*
X164226582Y-111713252D01*
X164213268Y-111733969D01*
X164162951Y-111844149D01*
X164156009Y-111867791D01*
X164137885Y-111993846D01*
X164137000Y-112006218D01*
X164137000Y-112196906D01*
X164137220Y-112203081D01*
X164141557Y-112263709D01*
X164144849Y-112281954D01*
X164179853Y-112401168D01*
X164190086Y-112423575D01*
X164262300Y-112535944D01*
X164261260Y-112536613D01*
X164293457Y-112599634D01*
X164296730Y-112617892D01*
X164303793Y-112674550D01*
X164305378Y-112687269D01*
X164302078Y-112687680D01*
X164304714Y-112738786D01*
X164295353Y-112794886D01*
X164262385Y-112871365D01*
X164255227Y-112880194D01*
X164226582Y-112913252D01*
X164213268Y-112933969D01*
X164162951Y-113044149D01*
X164156009Y-113067791D01*
X164137885Y-113193846D01*
X164137000Y-113206218D01*
X164137000Y-113396906D01*
X164137220Y-113403081D01*
X164141557Y-113463709D01*
X164144849Y-113481954D01*
X164179853Y-113601168D01*
X164190086Y-113623575D01*
X164255574Y-113725478D01*
X164271704Y-113744092D01*
X164363248Y-113823415D01*
X164383969Y-113836732D01*
X164494149Y-113887049D01*
X164517791Y-113893991D01*
X164643846Y-113912115D01*
X164656218Y-113913000D01*
X165346906Y-113913000D01*
X165353081Y-113912780D01*
X165413709Y-113908443D01*
X165431954Y-113905151D01*
X165551168Y-113870147D01*
X165573575Y-113859914D01*
X165675478Y-113794426D01*
X165694092Y-113778296D01*
X165773415Y-113686752D01*
X165786732Y-113666031D01*
X165842220Y-113544529D01*
X165846170Y-113546333D01*
X165874573Y-113496720D01*
X165944800Y-113451953D01*
X166027787Y-113444950D01*
X166104522Y-113477315D01*
X166157428Y-113541633D01*
X166174500Y-113616797D01*
X166174500Y-117238426D01*
X166173609Y-117256010D01*
X166169506Y-117296403D01*
X166170307Y-117304875D01*
X166173728Y-117341065D01*
X166174500Y-117357441D01*
X166174500Y-121350500D01*
X166154569Y-121431362D01*
X166099343Y-121493699D01*
X166021473Y-121523231D01*
X166000500Y-121524500D01*
X165915714Y-121524500D01*
X165896923Y-121523482D01*
X165880480Y-121521696D01*
X165860791Y-121519557D01*
X165852321Y-121520298D01*
X165852319Y-121520298D01*
X165832439Y-121522037D01*
X165808912Y-121524096D01*
X165802981Y-121524500D01*
X165799007Y-121524500D01*
X165756065Y-121528711D01*
X165754368Y-121528868D01*
X165713576Y-121532437D01*
X165660438Y-121537086D01*
X165655237Y-121538597D01*
X165649842Y-121539126D01*
X165641690Y-121541587D01*
X165641691Y-121541587D01*
X165559493Y-121566403D01*
X165557748Y-121566920D01*
X165467305Y-121593196D01*
X165462498Y-121595688D01*
X165457307Y-121597255D01*
X165373939Y-121641583D01*
X165372417Y-121642381D01*
X165296307Y-121681832D01*
X165296305Y-121681834D01*
X165288749Y-121685750D01*
X165284512Y-121689132D01*
X165279730Y-121691675D01*
X165273138Y-121697052D01*
X165273134Y-121697054D01*
X165206667Y-121751263D01*
X165205247Y-121752409D01*
X165169720Y-121780769D01*
X165169713Y-121780776D01*
X165165924Y-121783800D01*
X165163096Y-121786628D01*
X165158683Y-121790397D01*
X165149815Y-121797630D01*
X165123874Y-121818787D01*
X165118449Y-121825345D01*
X165095283Y-121853348D01*
X165084250Y-121865474D01*
X164771328Y-122178396D01*
X164757319Y-122190965D01*
X164728997Y-122213736D01*
X164723532Y-122220249D01*
X164723531Y-122220250D01*
X164695547Y-122253600D01*
X164691610Y-122258113D01*
X164688804Y-122260919D01*
X164686112Y-122264196D01*
X164686106Y-122264203D01*
X164661375Y-122294313D01*
X164660361Y-122295535D01*
X164599721Y-122367802D01*
X164597112Y-122372548D01*
X164593671Y-122376737D01*
X164589648Y-122384241D01*
X164589646Y-122384243D01*
X164549100Y-122459861D01*
X164548230Y-122461464D01*
X164506930Y-122536586D01*
X164506928Y-122536591D01*
X164502831Y-122544043D01*
X164501193Y-122549207D01*
X164498632Y-122553983D01*
X164496144Y-122562122D01*
X164471069Y-122644138D01*
X164470527Y-122645878D01*
X164442019Y-122735747D01*
X164441415Y-122741134D01*
X164439831Y-122746314D01*
X164438971Y-122754782D01*
X164430304Y-122840107D01*
X164430114Y-122841880D01*
X164424500Y-122891929D01*
X164424500Y-122895936D01*
X164424045Y-122901718D01*
X164419506Y-122946403D01*
X164420307Y-122954875D01*
X164423728Y-122991065D01*
X164424500Y-123007441D01*
X164424500Y-125934286D01*
X164423482Y-125953077D01*
X164419557Y-125989209D01*
X164420298Y-125997679D01*
X164420298Y-125997681D01*
X164424095Y-126041075D01*
X164424500Y-126047019D01*
X164424500Y-126050993D01*
X164428711Y-126093935D01*
X164428868Y-126095632D01*
X164430452Y-126113740D01*
X164437086Y-126189562D01*
X164438597Y-126194763D01*
X164439126Y-126200158D01*
X164441586Y-126208306D01*
X164466397Y-126290485D01*
X164466912Y-126292225D01*
X164493195Y-126382695D01*
X164495689Y-126387507D01*
X164497255Y-126392693D01*
X164501248Y-126400202D01*
X164541545Y-126475990D01*
X164542349Y-126477523D01*
X164585750Y-126561250D01*
X164589131Y-126565485D01*
X164591675Y-126570270D01*
X164651321Y-126643405D01*
X164652382Y-126644720D01*
X164680767Y-126680277D01*
X164683800Y-126684076D01*
X164686628Y-126686904D01*
X164690397Y-126691317D01*
X164703091Y-126706881D01*
X164718787Y-126726126D01*
X164725345Y-126731551D01*
X164753348Y-126754717D01*
X164765474Y-126765750D01*
X165228399Y-127228675D01*
X165240966Y-127242683D01*
X165263736Y-127271003D01*
X165270262Y-127276479D01*
X165303614Y-127304465D01*
X165308116Y-127308392D01*
X165310919Y-127311195D01*
X165314199Y-127313889D01*
X165314201Y-127313891D01*
X165344200Y-127338533D01*
X165345600Y-127339696D01*
X165411282Y-127394809D01*
X165411288Y-127394813D01*
X165417802Y-127400279D01*
X165422548Y-127402888D01*
X165426737Y-127406329D01*
X165434241Y-127410352D01*
X165434243Y-127410354D01*
X165509861Y-127450900D01*
X165511406Y-127451739D01*
X165543077Y-127469150D01*
X165586586Y-127493070D01*
X165586591Y-127493072D01*
X165594043Y-127497169D01*
X165599207Y-127498807D01*
X165603983Y-127501368D01*
X165680131Y-127524649D01*
X165694138Y-127528931D01*
X165695878Y-127529473D01*
X165785747Y-127557981D01*
X165791134Y-127558585D01*
X165796314Y-127560169D01*
X165890127Y-127569698D01*
X165891880Y-127569886D01*
X165941929Y-127575500D01*
X165945936Y-127575500D01*
X165951718Y-127575955D01*
X165987934Y-127579634D01*
X165987937Y-127579634D01*
X165996403Y-127580494D01*
X166041064Y-127576272D01*
X166057441Y-127575500D01*
X167233480Y-127575500D01*
X167314342Y-127595431D01*
X167356517Y-127626463D01*
X167535281Y-127805227D01*
X167540732Y-127811218D01*
X167544929Y-127817831D01*
X167590262Y-127860402D01*
X167591442Y-127861510D01*
X167595367Y-127865313D01*
X167618014Y-127887960D01*
X167622327Y-127891305D01*
X167626440Y-127894931D01*
X167626432Y-127894940D01*
X167633163Y-127900690D01*
X167650267Y-127916751D01*
X167664707Y-127930311D01*
X167674305Y-127935587D01*
X167674306Y-127935588D01*
X167679854Y-127938638D01*
X167702672Y-127953627D01*
X167707668Y-127957502D01*
X167707670Y-127957503D01*
X167716324Y-127964216D01*
X167726374Y-127968565D01*
X167756045Y-127981405D01*
X167770752Y-127988609D01*
X167808694Y-128009468D01*
X167825432Y-128013765D01*
X167851261Y-128022609D01*
X167867122Y-128029473D01*
X167877936Y-128031186D01*
X167877937Y-128031186D01*
X167909879Y-128036245D01*
X167925932Y-128039570D01*
X167959895Y-128048290D01*
X167967844Y-128050331D01*
X167970530Y-128050500D01*
X167986186Y-128050500D01*
X168013406Y-128052642D01*
X168029411Y-128055177D01*
X168040307Y-128054147D01*
X168070721Y-128051272D01*
X168087096Y-128050500D01*
X168215710Y-128050500D01*
X168244347Y-128052873D01*
X168335000Y-128068000D01*
X168990000Y-128068000D01*
X169070862Y-128087931D01*
X169133199Y-128143157D01*
X169162731Y-128221027D01*
X169164000Y-128242000D01*
X169164000Y-128292500D01*
X169144069Y-128373362D01*
X169088843Y-128435699D01*
X169010973Y-128465231D01*
X168990000Y-128466500D01*
X167843129Y-128466500D01*
X167825787Y-128470775D01*
X167822000Y-128480760D01*
X167822000Y-128509406D01*
X167822220Y-128515581D01*
X167826557Y-128576209D01*
X167829849Y-128594454D01*
X167864853Y-128713668D01*
X167875086Y-128736075D01*
X167940571Y-128837974D01*
X167944391Y-128842382D01*
X167982281Y-128916546D01*
X167979109Y-129007781D01*
X167963465Y-129058319D01*
X167962447Y-129075689D01*
X167975601Y-129078500D01*
X169209871Y-129078500D01*
X169227213Y-129074225D01*
X169231000Y-129064240D01*
X169231000Y-128523383D01*
X169250931Y-128442521D01*
X169306157Y-128380184D01*
X169384027Y-128350652D01*
X169466701Y-128360690D01*
X169522104Y-128394687D01*
X169577521Y-128445112D01*
X169590799Y-128457194D01*
X169600013Y-128462197D01*
X169600016Y-128462199D01*
X169648026Y-128488266D01*
X169709579Y-128544366D01*
X169738010Y-128622644D01*
X169739000Y-128641180D01*
X169739000Y-129057371D01*
X169743275Y-129074713D01*
X169753260Y-129078500D01*
X170990974Y-129078500D01*
X171002379Y-129075689D01*
X172193493Y-129075689D01*
X172206648Y-129078500D01*
X173389871Y-129078500D01*
X173407213Y-129074225D01*
X173411000Y-129064240D01*
X173411000Y-128345629D01*
X173409307Y-128338760D01*
X173919000Y-128338760D01*
X173919000Y-129057371D01*
X173923275Y-129074713D01*
X173933260Y-129078500D01*
X175120038Y-129078500D01*
X175137212Y-129074267D01*
X175136150Y-129061453D01*
X175106639Y-128961186D01*
X175100297Y-128945487D01*
X175016584Y-128785358D01*
X175007310Y-128771187D01*
X174894090Y-128630369D01*
X174882247Y-128618275D01*
X174743827Y-128502127D01*
X174729860Y-128492563D01*
X174571514Y-128405512D01*
X174555956Y-128398844D01*
X174383722Y-128344208D01*
X174367164Y-128340688D01*
X174227667Y-128325042D01*
X174217978Y-128324500D01*
X173940129Y-128324500D01*
X173922787Y-128328775D01*
X173919000Y-128338760D01*
X173409307Y-128338760D01*
X173406725Y-128328287D01*
X173396740Y-128324500D01*
X173118246Y-128324500D01*
X173109788Y-128324913D01*
X172976705Y-128337962D01*
X172960095Y-128341251D01*
X172787126Y-128393474D01*
X172771461Y-128399931D01*
X172611928Y-128484756D01*
X172597818Y-128494131D01*
X172457799Y-128608328D01*
X172445784Y-128620259D01*
X172330611Y-128759479D01*
X172321136Y-128773526D01*
X172235201Y-128932461D01*
X172228636Y-128948077D01*
X172194511Y-129058317D01*
X172193493Y-129075689D01*
X171002379Y-129075689D01*
X171008149Y-129074267D01*
X171007087Y-129061457D01*
X170974818Y-128951817D01*
X170968476Y-128936119D01*
X170882505Y-128771674D01*
X170873227Y-128757495D01*
X170756952Y-128612876D01*
X170745109Y-128600783D01*
X170600514Y-128479454D01*
X170551382Y-128412209D01*
X170539127Y-128329834D01*
X170571054Y-128244629D01*
X170572943Y-128242000D01*
X170581327Y-128230333D01*
X170642313Y-128078626D01*
X170643826Y-128068000D01*
X170664548Y-127922392D01*
X170665351Y-127916751D01*
X170665500Y-127902500D01*
X170653729Y-127805227D01*
X170647118Y-127750594D01*
X170647117Y-127750590D01*
X170645857Y-127740178D01*
X170615315Y-127659351D01*
X170591772Y-127597044D01*
X170591770Y-127597041D01*
X170588062Y-127587227D01*
X170495451Y-127452477D01*
X170373371Y-127343708D01*
X170364107Y-127338803D01*
X170364104Y-127338801D01*
X170299253Y-127304465D01*
X170228869Y-127267199D01*
X170070289Y-127227366D01*
X170059802Y-127227311D01*
X170059801Y-127227311D01*
X170007523Y-127227037D01*
X169926767Y-127206682D01*
X169864720Y-127151130D01*
X169835771Y-127074561D01*
X169829622Y-127025230D01*
X169832922Y-127024819D01*
X169830286Y-126973714D01*
X169839315Y-126919604D01*
X169839315Y-126919599D01*
X169840500Y-126912500D01*
X169840500Y-126887000D01*
X169860431Y-126806138D01*
X169915657Y-126743801D01*
X169993527Y-126714269D01*
X170014500Y-126713000D01*
X170851202Y-126713000D01*
X170871653Y-126714206D01*
X170901808Y-126717775D01*
X170914599Y-126715439D01*
X170914600Y-126715439D01*
X170927954Y-126713000D01*
X170958807Y-126707366D01*
X170964156Y-126706476D01*
X170996324Y-126701639D01*
X171008572Y-126699798D01*
X171008573Y-126699798D01*
X171021435Y-126697864D01*
X171027943Y-126694739D01*
X171035045Y-126693442D01*
X171053076Y-126684076D01*
X171086439Y-126666745D01*
X171091290Y-126664321D01*
X171143529Y-126639235D01*
X171148830Y-126634335D01*
X171155236Y-126631007D01*
X171161128Y-126625975D01*
X171198515Y-126588588D01*
X171203441Y-126583853D01*
X171218135Y-126570270D01*
X171242986Y-126547298D01*
X171246871Y-126540609D01*
X171250107Y-126536996D01*
X171471684Y-126315419D01*
X171542955Y-126272335D01*
X171568851Y-126266390D01*
X171585915Y-126263825D01*
X171596072Y-126262298D01*
X171596073Y-126262298D01*
X171608935Y-126260364D01*
X171615443Y-126257239D01*
X171622545Y-126255942D01*
X171673949Y-126229240D01*
X171678790Y-126226821D01*
X171731029Y-126201735D01*
X171736330Y-126196835D01*
X171742736Y-126193507D01*
X171748628Y-126188475D01*
X171786015Y-126151088D01*
X171790941Y-126146353D01*
X171791266Y-126146053D01*
X171830486Y-126109798D01*
X171834371Y-126103109D01*
X171837607Y-126099496D01*
X175892891Y-122044213D01*
X175908205Y-122030605D01*
X175921830Y-122019864D01*
X175932045Y-122011811D01*
X175964998Y-121964132D01*
X175968139Y-121959738D01*
X176002555Y-121913142D01*
X176004946Y-121906332D01*
X176009052Y-121900392D01*
X176012975Y-121887989D01*
X176026526Y-121845145D01*
X176028254Y-121839965D01*
X176043120Y-121797630D01*
X176047432Y-121785352D01*
X176047715Y-121778138D01*
X176049892Y-121771256D01*
X176050500Y-121763531D01*
X176050500Y-121710681D01*
X176050634Y-121703850D01*
X176050914Y-121696713D01*
X176052749Y-121650016D01*
X176050767Y-121642541D01*
X176050500Y-121637691D01*
X176050500Y-119886298D01*
X176051706Y-119865847D01*
X176053746Y-119848607D01*
X176055275Y-119835692D01*
X176052938Y-119822896D01*
X176052833Y-119819552D01*
X176050500Y-119793787D01*
X176050500Y-119766742D01*
X176048506Y-119753474D01*
X176037298Y-119678929D01*
X176035364Y-119666065D01*
X175976735Y-119543971D01*
X175967906Y-119534420D01*
X175967904Y-119534417D01*
X175893628Y-119454066D01*
X175893627Y-119454065D01*
X175884798Y-119444514D01*
X175873553Y-119437982D01*
X175873550Y-119437980D01*
X175777534Y-119382210D01*
X175741891Y-119354787D01*
X175051463Y-118664359D01*
X175008379Y-118593088D01*
X175000500Y-118541322D01*
X175000500Y-118385502D01*
X175020431Y-118304640D01*
X175075657Y-118242303D01*
X175077005Y-118241450D01*
X175084000Y-118238553D01*
X175206814Y-118144314D01*
X175301053Y-118021500D01*
X175360294Y-117878480D01*
X175375500Y-117762979D01*
X175375500Y-117187021D01*
X175360294Y-117071520D01*
X175301053Y-116928500D01*
X175206814Y-116805686D01*
X175197763Y-116798741D01*
X175189702Y-116790680D01*
X175190646Y-116789736D01*
X175145967Y-116733869D01*
X175130134Y-116652106D01*
X175154112Y-116572351D01*
X175208509Y-116515357D01*
X175260453Y-116481301D01*
X175275860Y-116468419D01*
X175381497Y-116356905D01*
X175393526Y-116340826D01*
X175470678Y-116208001D01*
X175478683Y-116189590D01*
X175523552Y-116041443D01*
X175526933Y-116024010D01*
X175532655Y-115959894D01*
X175533000Y-115952143D01*
X175533000Y-115925129D01*
X175528725Y-115907787D01*
X175518740Y-115904000D01*
X173588129Y-115904000D01*
X173570787Y-115908275D01*
X173567000Y-115918260D01*
X173567000Y-115937833D01*
X173567586Y-115947908D01*
X173580958Y-116062609D01*
X173585579Y-116082157D01*
X173637987Y-116226539D01*
X173646980Y-116244497D01*
X173731201Y-116372955D01*
X173744081Y-116388360D01*
X173855595Y-116493997D01*
X173871674Y-116506026D01*
X173881644Y-116511817D01*
X173941557Y-116569664D01*
X173967724Y-116648728D01*
X173954150Y-116730897D01*
X173908822Y-116789204D01*
X173910298Y-116790680D01*
X173902237Y-116798741D01*
X173893186Y-116805686D01*
X173798947Y-116928500D01*
X173739706Y-117071520D01*
X173724500Y-117187021D01*
X173724500Y-117762979D01*
X173739706Y-117878480D01*
X173798947Y-118021500D01*
X173893186Y-118144314D01*
X174016000Y-118238553D01*
X174016694Y-118238840D01*
X174072565Y-118292508D01*
X174098936Y-118371504D01*
X174099500Y-118385502D01*
X174099500Y-118763702D01*
X174098294Y-118784153D01*
X174094725Y-118814308D01*
X174097061Y-118827099D01*
X174097061Y-118827100D01*
X174105130Y-118871280D01*
X174106024Y-118876656D01*
X174114636Y-118933935D01*
X174117761Y-118940443D01*
X174119058Y-118947545D01*
X174125054Y-118959088D01*
X174145755Y-118998939D01*
X174148179Y-119003790D01*
X174173265Y-119056029D01*
X174178165Y-119061330D01*
X174181493Y-119067736D01*
X174186525Y-119073628D01*
X174223912Y-119111015D01*
X174228647Y-119115941D01*
X174265202Y-119155486D01*
X174271891Y-119159371D01*
X174275504Y-119162607D01*
X174518724Y-119405827D01*
X174561808Y-119477098D01*
X174566837Y-119560228D01*
X174532657Y-119636173D01*
X174467099Y-119687535D01*
X174385181Y-119702547D01*
X174375658Y-119701253D01*
X174375615Y-119701636D01*
X174227667Y-119685042D01*
X174217978Y-119684500D01*
X173940129Y-119684500D01*
X173922787Y-119688775D01*
X173919000Y-119698760D01*
X173919000Y-121679371D01*
X173923275Y-121696713D01*
X173933260Y-121700500D01*
X174211754Y-121700500D01*
X174220212Y-121700087D01*
X174353295Y-121687038D01*
X174369905Y-121683749D01*
X174542874Y-121631526D01*
X174566408Y-121621826D01*
X174567347Y-121624105D01*
X174634802Y-121607096D01*
X174715769Y-121626596D01*
X174778400Y-121681489D01*
X174808346Y-121759201D01*
X174798748Y-121841928D01*
X174758766Y-121904131D01*
X173041061Y-123621835D01*
X171328315Y-125334581D01*
X171257044Y-125377665D01*
X171231149Y-125383610D01*
X171214085Y-125386175D01*
X171203928Y-125387702D01*
X171203927Y-125387702D01*
X171191065Y-125389636D01*
X171184557Y-125392761D01*
X171177455Y-125394058D01*
X171165912Y-125400054D01*
X171126061Y-125420755D01*
X171121210Y-125423179D01*
X171068971Y-125448265D01*
X171063670Y-125453165D01*
X171057264Y-125456493D01*
X171051371Y-125461526D01*
X171013984Y-125498913D01*
X171009058Y-125503648D01*
X170979069Y-125531369D01*
X170979068Y-125531371D01*
X170969514Y-125540202D01*
X170965629Y-125546891D01*
X170962388Y-125550509D01*
X170751859Y-125761037D01*
X170680588Y-125804122D01*
X170628823Y-125812000D01*
X170105519Y-125812000D01*
X170024657Y-125792069D01*
X169962320Y-125736843D01*
X169932788Y-125658973D01*
X169942826Y-125576299D01*
X169982482Y-125514963D01*
X170201457Y-125295988D01*
X170216771Y-125282380D01*
X170230482Y-125271571D01*
X170240696Y-125263519D01*
X170271852Y-125218439D01*
X170274982Y-125214059D01*
X170307522Y-125170005D01*
X170309788Y-125163551D01*
X170313679Y-125157922D01*
X170330210Y-125105651D01*
X170331905Y-125100571D01*
X170350053Y-125048893D01*
X170350322Y-125042058D01*
X170352385Y-125035533D01*
X170352700Y-125031531D01*
X170352700Y-124984950D01*
X170352834Y-124978118D01*
X170354582Y-124933623D01*
X170355093Y-124920627D01*
X170353020Y-124912808D01*
X170352700Y-124906999D01*
X170352700Y-124497147D01*
X170353906Y-124476696D01*
X170355958Y-124459355D01*
X170357487Y-124446440D01*
X170355151Y-124433650D01*
X170355151Y-124433646D01*
X170347649Y-124392570D01*
X170346752Y-124387180D01*
X170345976Y-124382018D01*
X170338616Y-124333063D01*
X170335654Y-124326895D01*
X170334425Y-124320165D01*
X170328427Y-124308619D01*
X170328426Y-124308615D01*
X170309192Y-124271588D01*
X170306749Y-124266699D01*
X170288684Y-124229080D01*
X170283051Y-124217349D01*
X170278407Y-124212326D01*
X170275253Y-124206253D01*
X170272646Y-124203201D01*
X170239689Y-124170244D01*
X170234954Y-124165318D01*
X170204746Y-124132639D01*
X170204745Y-124132639D01*
X170195917Y-124123088D01*
X170188922Y-124119025D01*
X170184594Y-124115149D01*
X170056488Y-123987043D01*
X170042877Y-123971725D01*
X170035832Y-123962788D01*
X170001425Y-123886946D01*
X170006204Y-123803801D01*
X170049075Y-123732402D01*
X170121327Y-123688758D01*
X170126074Y-123687298D01*
X170138937Y-123685364D01*
X170145445Y-123682239D01*
X170152547Y-123680942D01*
X170203951Y-123654240D01*
X170208792Y-123651821D01*
X170261031Y-123626735D01*
X170266332Y-123621835D01*
X170272738Y-123618507D01*
X170278630Y-123613475D01*
X170316017Y-123576088D01*
X170320943Y-123571353D01*
X170321268Y-123571053D01*
X170360488Y-123534798D01*
X170364373Y-123528109D01*
X170367609Y-123524496D01*
X172292886Y-121599219D01*
X172308200Y-121585611D01*
X172321830Y-121574866D01*
X172332045Y-121566813D01*
X172339441Y-121556112D01*
X172348342Y-121546633D01*
X172350305Y-121548476D01*
X172398305Y-121506010D01*
X172479181Y-121486136D01*
X172560029Y-121506123D01*
X172578730Y-121518673D01*
X172579148Y-121518063D01*
X172600140Y-121532437D01*
X172758486Y-121619488D01*
X172774044Y-121626156D01*
X172946278Y-121680792D01*
X172962836Y-121684312D01*
X173102333Y-121699958D01*
X173112022Y-121700500D01*
X173389871Y-121700500D01*
X173407213Y-121696225D01*
X173411000Y-121686240D01*
X173411000Y-119705629D01*
X173406725Y-119688287D01*
X173396740Y-119684500D01*
X173118246Y-119684500D01*
X173109788Y-119684913D01*
X172976705Y-119697962D01*
X172960095Y-119701251D01*
X172787126Y-119753474D01*
X172771461Y-119759931D01*
X172706188Y-119794637D01*
X172625434Y-119815001D01*
X172544467Y-119795505D01*
X172481834Y-119740615D01*
X172451884Y-119662905D01*
X172450500Y-119641004D01*
X172450500Y-115347857D01*
X173567000Y-115347857D01*
X173567000Y-115374871D01*
X173571275Y-115392213D01*
X173581260Y-115396000D01*
X174274871Y-115396000D01*
X174292213Y-115391725D01*
X174296000Y-115381740D01*
X174296000Y-114675629D01*
X174294307Y-114668760D01*
X174804000Y-114668760D01*
X174804000Y-115374871D01*
X174808275Y-115392213D01*
X174818260Y-115396000D01*
X175511871Y-115396000D01*
X175529213Y-115391725D01*
X175533000Y-115381740D01*
X175533000Y-115362167D01*
X175532414Y-115352092D01*
X175519042Y-115237391D01*
X175514421Y-115217843D01*
X175462013Y-115073461D01*
X175453020Y-115055503D01*
X175368799Y-114927045D01*
X175355919Y-114911640D01*
X175244405Y-114806003D01*
X175228326Y-114793974D01*
X175095501Y-114716822D01*
X175077090Y-114708817D01*
X174928943Y-114663948D01*
X174911510Y-114660567D01*
X174847394Y-114654845D01*
X174839643Y-114654500D01*
X174825129Y-114654500D01*
X174807787Y-114658775D01*
X174804000Y-114668760D01*
X174294307Y-114668760D01*
X174291725Y-114658287D01*
X174281740Y-114654500D01*
X174274667Y-114654500D01*
X174264592Y-114655086D01*
X174149891Y-114668458D01*
X174130343Y-114673079D01*
X173985961Y-114725487D01*
X173968003Y-114734480D01*
X173839545Y-114818701D01*
X173824140Y-114831581D01*
X173718503Y-114943095D01*
X173706474Y-114959174D01*
X173629322Y-115091999D01*
X173621317Y-115110410D01*
X173576448Y-115258557D01*
X173573067Y-115275990D01*
X173567345Y-115340106D01*
X173567000Y-115347857D01*
X172450500Y-115347857D01*
X172450500Y-109123798D01*
X172451706Y-109103347D01*
X172453560Y-109087680D01*
X172455275Y-109073192D01*
X172444866Y-109016193D01*
X172443973Y-109010828D01*
X172437298Y-108966428D01*
X172437298Y-108966427D01*
X172435364Y-108953565D01*
X172432239Y-108947057D01*
X172430942Y-108939955D01*
X172404240Y-108888551D01*
X172401814Y-108883697D01*
X172376735Y-108831471D01*
X172371835Y-108826170D01*
X172368507Y-108819764D01*
X172363475Y-108813871D01*
X172326076Y-108776472D01*
X172321341Y-108771546D01*
X172293630Y-108741568D01*
X172293629Y-108741567D01*
X172284798Y-108732014D01*
X172278109Y-108728129D01*
X172274500Y-108724896D01*
X171801463Y-108251859D01*
X171758379Y-108180588D01*
X171750500Y-108128822D01*
X171750500Y-107724521D01*
X171742800Y-107666031D01*
X171736783Y-107620327D01*
X171736782Y-107620324D01*
X171735294Y-107609020D01*
X171676053Y-107466000D01*
X171581814Y-107343186D01*
X171459000Y-107248947D01*
X171315980Y-107189706D01*
X171304676Y-107188218D01*
X171304673Y-107188217D01*
X171256688Y-107181900D01*
X171200479Y-107174500D01*
X170624521Y-107174500D01*
X170568312Y-107181900D01*
X170520327Y-107188217D01*
X170520324Y-107188218D01*
X170509020Y-107189706D01*
X170366000Y-107248947D01*
X170243186Y-107343186D01*
X170236241Y-107352237D01*
X170228180Y-107360298D01*
X170227236Y-107359354D01*
X170171369Y-107404033D01*
X170089606Y-107419866D01*
X170009851Y-107395888D01*
X169952857Y-107341491D01*
X169918801Y-107289547D01*
X169905919Y-107274140D01*
X169794405Y-107168503D01*
X169778326Y-107156474D01*
X169645501Y-107079322D01*
X169627090Y-107071317D01*
X169478943Y-107026448D01*
X169461510Y-107023067D01*
X169397394Y-107017345D01*
X169389643Y-107017000D01*
X169362629Y-107017000D01*
X169345287Y-107021275D01*
X169341500Y-107031260D01*
X169341500Y-108961871D01*
X169345775Y-108979213D01*
X169355760Y-108983000D01*
X169375333Y-108983000D01*
X169385408Y-108982414D01*
X169500109Y-108969042D01*
X169519657Y-108964421D01*
X169664039Y-108912013D01*
X169681997Y-108903020D01*
X169810455Y-108818799D01*
X169825860Y-108805919D01*
X169931497Y-108694405D01*
X169943526Y-108678326D01*
X169949317Y-108668356D01*
X170007164Y-108608443D01*
X170086228Y-108582276D01*
X170168397Y-108595850D01*
X170226704Y-108641178D01*
X170228180Y-108639702D01*
X170236241Y-108647763D01*
X170243186Y-108656814D01*
X170366000Y-108751053D01*
X170509020Y-108810294D01*
X170520324Y-108811782D01*
X170520327Y-108811783D01*
X170568312Y-108818100D01*
X170624521Y-108825500D01*
X171028823Y-108825500D01*
X171109685Y-108845431D01*
X171151860Y-108876463D01*
X171498537Y-109223140D01*
X171541621Y-109294411D01*
X171549500Y-109346177D01*
X171549500Y-111212869D01*
X171529569Y-111293731D01*
X171474343Y-111356068D01*
X171396473Y-111385600D01*
X171313799Y-111375562D01*
X171303217Y-111371145D01*
X171286148Y-111363350D01*
X171262509Y-111356409D01*
X171136454Y-111338285D01*
X171124082Y-111337400D01*
X170275129Y-111337400D01*
X170257787Y-111341675D01*
X170254000Y-111351660D01*
X170254000Y-114653671D01*
X170258275Y-114671013D01*
X170268260Y-114674800D01*
X171127206Y-114674800D01*
X171133381Y-114674580D01*
X171194009Y-114670243D01*
X171212255Y-114666951D01*
X171326479Y-114633412D01*
X171409680Y-114629754D01*
X171485052Y-114665181D01*
X171535326Y-114731576D01*
X171549500Y-114800364D01*
X171549500Y-115374344D01*
X171529569Y-115455206D01*
X171474343Y-115517543D01*
X171396473Y-115547075D01*
X171313799Y-115537037D01*
X171292686Y-115527373D01*
X171274522Y-115517543D01*
X171245731Y-115501962D01*
X171130300Y-115482700D01*
X168869700Y-115482700D01*
X168782430Y-115493578D01*
X168770890Y-115498640D01*
X168770886Y-115498641D01*
X168727795Y-115517543D01*
X168675260Y-115540587D01*
X168664656Y-115550349D01*
X168664654Y-115550350D01*
X168599768Y-115610082D01*
X168599767Y-115610084D01*
X168589161Y-115619847D01*
X168582300Y-115632525D01*
X168552528Y-115687539D01*
X168496513Y-115749168D01*
X168418274Y-115777707D01*
X168335734Y-115766618D01*
X168267802Y-115718440D01*
X168230040Y-115644211D01*
X168225500Y-115604723D01*
X168225500Y-114656492D01*
X168245431Y-114575630D01*
X168300657Y-114513293D01*
X168378527Y-114483761D01*
X168461201Y-114493799D01*
X168513445Y-114524991D01*
X168582948Y-114585215D01*
X168603669Y-114598532D01*
X168713849Y-114648849D01*
X168737491Y-114655791D01*
X168863546Y-114673915D01*
X168875918Y-114674800D01*
X169724871Y-114674800D01*
X169742213Y-114670525D01*
X169746000Y-114660540D01*
X169746000Y-111358529D01*
X169741725Y-111341187D01*
X169731740Y-111337400D01*
X168872794Y-111337400D01*
X168866619Y-111337620D01*
X168805991Y-111341957D01*
X168787746Y-111345249D01*
X168668532Y-111380253D01*
X168646125Y-111390486D01*
X168544222Y-111455974D01*
X168516202Y-111480254D01*
X168514098Y-111477825D01*
X168462974Y-111513944D01*
X168380413Y-111524884D01*
X168302226Y-111496204D01*
X168246323Y-111434473D01*
X168225500Y-111351934D01*
X168225500Y-109046390D01*
X168245431Y-108965528D01*
X168300657Y-108903191D01*
X168378527Y-108873659D01*
X168461201Y-108883697D01*
X168486895Y-108895930D01*
X168529504Y-108920679D01*
X168547910Y-108928683D01*
X168696057Y-108973552D01*
X168713490Y-108976933D01*
X168777606Y-108982655D01*
X168785357Y-108983000D01*
X168812371Y-108983000D01*
X168829713Y-108978725D01*
X168833500Y-108968740D01*
X168833500Y-107038129D01*
X168829225Y-107020787D01*
X168819240Y-107017000D01*
X168799667Y-107017000D01*
X168789592Y-107017586D01*
X168674891Y-107030958D01*
X168655343Y-107035579D01*
X168510961Y-107087987D01*
X168483962Y-107101507D01*
X168483145Y-107099876D01*
X168416352Y-107123402D01*
X168333940Y-107111396D01*
X168266547Y-107062467D01*
X168229612Y-106987824D01*
X168225500Y-106950220D01*
X168225500Y-101350267D01*
X173017859Y-101350267D01*
X173018852Y-101362786D01*
X173045789Y-101456725D01*
X173052028Y-101472483D01*
X173134614Y-101633177D01*
X173143792Y-101647420D01*
X173256024Y-101789021D01*
X173267789Y-101801204D01*
X173405386Y-101918308D01*
X173419300Y-101927978D01*
X173577016Y-102016122D01*
X173592538Y-102022904D01*
X173715907Y-102062989D01*
X173732970Y-102064228D01*
X173736000Y-102050519D01*
X173736000Y-101367129D01*
X173734307Y-101360260D01*
X174244000Y-101360260D01*
X174244000Y-102046677D01*
X174248275Y-102064019D01*
X174248501Y-102064105D01*
X174260523Y-102063193D01*
X174348131Y-102038732D01*
X174363918Y-102032609D01*
X174525194Y-101951143D01*
X174539503Y-101942062D01*
X174681877Y-101830827D01*
X174694148Y-101819141D01*
X174812204Y-101682372D01*
X174821973Y-101668523D01*
X174911221Y-101511419D01*
X174918106Y-101495955D01*
X174961320Y-101366047D01*
X174962667Y-101349141D01*
X174948685Y-101346000D01*
X174265129Y-101346000D01*
X174247787Y-101350275D01*
X174244000Y-101360260D01*
X173734307Y-101360260D01*
X173731725Y-101349787D01*
X173721740Y-101346000D01*
X173035168Y-101346000D01*
X173017859Y-101350267D01*
X168225500Y-101350267D01*
X168225500Y-98965714D01*
X168226518Y-98946923D01*
X168229524Y-98919250D01*
X168230443Y-98910791D01*
X168229328Y-98898040D01*
X168227289Y-98874740D01*
X168225904Y-98858912D01*
X168225500Y-98852981D01*
X168225500Y-98849007D01*
X168221289Y-98806065D01*
X168221132Y-98804368D01*
X168213656Y-98718920D01*
X168212914Y-98710438D01*
X168211403Y-98705237D01*
X168210874Y-98699842D01*
X168183601Y-98609508D01*
X168183086Y-98607767D01*
X168159179Y-98525476D01*
X168159178Y-98525475D01*
X168156805Y-98517305D01*
X168154311Y-98512493D01*
X168152745Y-98507307D01*
X168108455Y-98424010D01*
X168107651Y-98422477D01*
X168064250Y-98338750D01*
X168060869Y-98334515D01*
X168058325Y-98329730D01*
X168052950Y-98323139D01*
X168052947Y-98323135D01*
X168002445Y-98261214D01*
X167998780Y-98256720D01*
X167997650Y-98255319D01*
X167969228Y-98219715D01*
X167969221Y-98219708D01*
X167966201Y-98215924D01*
X167963376Y-98213099D01*
X167959596Y-98208673D01*
X167936598Y-98180476D01*
X167936595Y-98180473D01*
X167931213Y-98173874D01*
X167896657Y-98145287D01*
X167884532Y-98134255D01*
X167476463Y-97726186D01*
X167433379Y-97654915D01*
X167425500Y-97603149D01*
X167425500Y-96600677D01*
X167445431Y-96519815D01*
X167500657Y-96457478D01*
X167578527Y-96427946D01*
X167661201Y-96437984D01*
X167722537Y-96477640D01*
X169984272Y-98739375D01*
X169997880Y-98754689D01*
X170016678Y-98778534D01*
X170064301Y-98811448D01*
X170068747Y-98814626D01*
X170104880Y-98841314D01*
X170104882Y-98841315D01*
X170115346Y-98849044D01*
X170122158Y-98851436D01*
X170128097Y-98855541D01*
X170183380Y-98873024D01*
X170188478Y-98874725D01*
X170243137Y-98893920D01*
X170250347Y-98894203D01*
X170257233Y-98896381D01*
X170264958Y-98896989D01*
X170317817Y-98896989D01*
X170324649Y-98897123D01*
X170378473Y-98899238D01*
X170385949Y-98897256D01*
X170390797Y-98896989D01*
X172101812Y-98896989D01*
X172182674Y-98916920D01*
X172224849Y-98947952D01*
X173083537Y-99806640D01*
X173126621Y-99877911D01*
X173134500Y-99929677D01*
X173134500Y-100322000D01*
X173145378Y-100409270D01*
X173150444Y-100420820D01*
X173151068Y-100423085D01*
X173153320Y-100506336D01*
X173135789Y-100553104D01*
X173063016Y-100685478D01*
X173056344Y-100701044D01*
X173019288Y-100817860D01*
X173018158Y-100835081D01*
X173031590Y-100838000D01*
X174945297Y-100838000D01*
X174962334Y-100833801D01*
X174961201Y-100820694D01*
X174929026Y-100714126D01*
X174922569Y-100698461D01*
X174843529Y-100549807D01*
X174823165Y-100469053D01*
X174828295Y-100437774D01*
X174826238Y-100437431D01*
X174830937Y-100409270D01*
X174845500Y-100322000D01*
X174845500Y-99322000D01*
X174834622Y-99234730D01*
X174829560Y-99223190D01*
X174829559Y-99223186D01*
X174808706Y-99175648D01*
X174787613Y-99127560D01*
X174777851Y-99116956D01*
X174777850Y-99116954D01*
X174718118Y-99052068D01*
X174718116Y-99052067D01*
X174708353Y-99041461D01*
X174605431Y-98985762D01*
X174490000Y-98966500D01*
X173589678Y-98966500D01*
X173508816Y-98946569D01*
X173466641Y-98915537D01*
X172704702Y-98153598D01*
X172691094Y-98138284D01*
X172680353Y-98124659D01*
X172672300Y-98114444D01*
X172624621Y-98081491D01*
X172620227Y-98078350D01*
X172584095Y-98051663D01*
X172573631Y-98043934D01*
X172566821Y-98041543D01*
X172560881Y-98037437D01*
X172548480Y-98033515D01*
X172548478Y-98033514D01*
X172505634Y-98019963D01*
X172500456Y-98018236D01*
X172499773Y-98017996D01*
X172461033Y-98004392D01*
X172391344Y-97958799D01*
X172350825Y-97886039D01*
X172348759Y-97802782D01*
X172385622Y-97728103D01*
X172400563Y-97712458D01*
X172430486Y-97684798D01*
X172434371Y-97678109D01*
X172437612Y-97674491D01*
X172702092Y-97410012D01*
X172773363Y-97366927D01*
X172849888Y-97360820D01*
X172852836Y-97361244D01*
X172870610Y-97359481D01*
X172873569Y-97354131D01*
X172873750Y-97352767D01*
X172873750Y-97164710D01*
X172893681Y-97083848D01*
X172900774Y-97072839D01*
X172904289Y-97069603D01*
X172946722Y-96991194D01*
X173002736Y-96929564D01*
X173080976Y-96901025D01*
X173163516Y-96912114D01*
X173231448Y-96960292D01*
X173269210Y-97034520D01*
X173273750Y-97074009D01*
X173273750Y-97343121D01*
X173278025Y-97360463D01*
X173285747Y-97363392D01*
X173337459Y-97359693D01*
X173355704Y-97356401D01*
X173474918Y-97321397D01*
X173497325Y-97311164D01*
X173599228Y-97245676D01*
X173617842Y-97229546D01*
X173697165Y-97138002D01*
X173710482Y-97117281D01*
X173760799Y-97007101D01*
X173767741Y-96983459D01*
X173785865Y-96857404D01*
X173786750Y-96845032D01*
X173786750Y-96747379D01*
X173782475Y-96730037D01*
X173772490Y-96726250D01*
X173294879Y-96726250D01*
X173276169Y-96730862D01*
X173268633Y-96737538D01*
X173194890Y-96776241D01*
X173111609Y-96776241D01*
X173037866Y-96737538D01*
X172990557Y-96668998D01*
X172979250Y-96607297D01*
X172979250Y-96445003D01*
X172999181Y-96364141D01*
X173054407Y-96301804D01*
X173132277Y-96272272D01*
X173214951Y-96282310D01*
X173267147Y-96318338D01*
X173288010Y-96326250D01*
X173765621Y-96326250D01*
X173782963Y-96321975D01*
X173786750Y-96311990D01*
X173786750Y-96204344D01*
X173786530Y-96198169D01*
X173782193Y-96137541D01*
X173778901Y-96119296D01*
X173743897Y-96000082D01*
X173733664Y-95977675D01*
X173668176Y-95875772D01*
X173652046Y-95857158D01*
X173560502Y-95777835D01*
X173539781Y-95764518D01*
X173429601Y-95714201D01*
X173405959Y-95707259D01*
X173294661Y-95691256D01*
X173276890Y-95693019D01*
X173273931Y-95698368D01*
X173273750Y-95699733D01*
X173273750Y-95980326D01*
X173253819Y-96061188D01*
X173198593Y-96123525D01*
X173120723Y-96153057D01*
X173038049Y-96143019D01*
X172969509Y-96095709D01*
X172940406Y-96050222D01*
X172927157Y-96020017D01*
X172927154Y-96020013D01*
X172921363Y-96006810D01*
X172911597Y-95996201D01*
X172903712Y-95984133D01*
X172907051Y-95981952D01*
X172879637Y-95932073D01*
X172873750Y-95887194D01*
X172873750Y-95709379D01*
X172869475Y-95692037D01*
X172861753Y-95689108D01*
X172810041Y-95692807D01*
X172791796Y-95696099D01*
X172672582Y-95731103D01*
X172650175Y-95741336D01*
X172537806Y-95813550D01*
X172536429Y-95811407D01*
X172478241Y-95841139D01*
X172438451Y-95845750D01*
X172223750Y-95845750D01*
X172191245Y-95849802D01*
X172148992Y-95855068D01*
X172148989Y-95855069D01*
X172136480Y-95856628D01*
X172134177Y-95857638D01*
X172066096Y-95861160D01*
X171973750Y-95845750D01*
X171573750Y-95845750D01*
X171486480Y-95856628D01*
X171474940Y-95861690D01*
X171474936Y-95861691D01*
X171427398Y-95882544D01*
X171379310Y-95903637D01*
X171368706Y-95913399D01*
X171368704Y-95913400D01*
X171303818Y-95973132D01*
X171303817Y-95973134D01*
X171293211Y-95982897D01*
X171237512Y-96085819D01*
X171218250Y-96201250D01*
X171218250Y-96775500D01*
X171198319Y-96856362D01*
X171143093Y-96918699D01*
X171065223Y-96948231D01*
X171044250Y-96949500D01*
X170398677Y-96949500D01*
X170317815Y-96929569D01*
X170275640Y-96898537D01*
X169201463Y-95824359D01*
X169158379Y-95753087D01*
X169150500Y-95701322D01*
X169150500Y-95336299D01*
X169151706Y-95315848D01*
X169153746Y-95298608D01*
X169155275Y-95285693D01*
X169152939Y-95272903D01*
X169152939Y-95272898D01*
X169144869Y-95228712D01*
X169143972Y-95223321D01*
X169137298Y-95178930D01*
X169135364Y-95166065D01*
X169132239Y-95159557D01*
X169130942Y-95152455D01*
X169122546Y-95136291D01*
X169104234Y-95101040D01*
X169101791Y-95096150D01*
X169082364Y-95055692D01*
X169082362Y-95055689D01*
X169076735Y-95043971D01*
X169071837Y-95038672D01*
X169068508Y-95032264D01*
X169063475Y-95026372D01*
X169026087Y-94988984D01*
X169021352Y-94984058D01*
X168993627Y-94954065D01*
X168993626Y-94954064D01*
X168984798Y-94944514D01*
X168978109Y-94940629D01*
X168974496Y-94937393D01*
X168183822Y-94146718D01*
X168170214Y-94131404D01*
X168159473Y-94117779D01*
X168151420Y-94107564D01*
X168103741Y-94074611D01*
X168099347Y-94071470D01*
X168052751Y-94037054D01*
X168045941Y-94034663D01*
X168040001Y-94030557D01*
X168027600Y-94026635D01*
X168027598Y-94026634D01*
X167984754Y-94013083D01*
X167979574Y-94011355D01*
X167956049Y-94003094D01*
X167924961Y-93992177D01*
X167917747Y-93991894D01*
X167910865Y-93989717D01*
X167903140Y-93989109D01*
X167850290Y-93989109D01*
X167843459Y-93988975D01*
X167789625Y-93986860D01*
X167782150Y-93988842D01*
X167777300Y-93989109D01*
X165878248Y-93989109D01*
X165797386Y-93969178D01*
X165735049Y-93913952D01*
X165705517Y-93836082D01*
X165704897Y-93803614D01*
X165705500Y-93800000D01*
X165705500Y-93600000D01*
X165694622Y-93512730D01*
X165689560Y-93501190D01*
X165689559Y-93501186D01*
X165656695Y-93426266D01*
X165647613Y-93405560D01*
X165637851Y-93394956D01*
X165637850Y-93394954D01*
X165578118Y-93330068D01*
X165578116Y-93330067D01*
X165568353Y-93319461D01*
X165465431Y-93263762D01*
X165350000Y-93244500D01*
X164650000Y-93244500D01*
X164562730Y-93255378D01*
X164551190Y-93260440D01*
X164551186Y-93260441D01*
X164503648Y-93281294D01*
X164455560Y-93302387D01*
X164444956Y-93312149D01*
X164444954Y-93312150D01*
X164380068Y-93371882D01*
X164380067Y-93371884D01*
X164369461Y-93381647D01*
X164313762Y-93484569D01*
X164294500Y-93600000D01*
X164294500Y-93800000D01*
X164302950Y-93867791D01*
X164305378Y-93887270D01*
X164302078Y-93887681D01*
X164304714Y-93938786D01*
X164295805Y-93992177D01*
X164294500Y-94000000D01*
X164294500Y-94200000D01*
X164295168Y-94205357D01*
X164305378Y-94287270D01*
X164302078Y-94287681D01*
X164304714Y-94338786D01*
X164295685Y-94392896D01*
X164294500Y-94400000D01*
X164294500Y-94600000D01*
X164295168Y-94605357D01*
X164305378Y-94687270D01*
X164302078Y-94687681D01*
X164304714Y-94738786D01*
X164295685Y-94792896D01*
X164294500Y-94800000D01*
X164294500Y-95000000D01*
X164303724Y-95074001D01*
X164305378Y-95087270D01*
X164302078Y-95087681D01*
X164304714Y-95138786D01*
X164295685Y-95192896D01*
X164294500Y-95200000D01*
X164294500Y-95400000D01*
X164302130Y-95461214D01*
X164305378Y-95487270D01*
X164302078Y-95487681D01*
X164304714Y-95538786D01*
X164295685Y-95592896D01*
X164294500Y-95600000D01*
X164294500Y-95800000D01*
X164302130Y-95861214D01*
X164305378Y-95887270D01*
X164302078Y-95887681D01*
X164304714Y-95938786D01*
X164296842Y-95985963D01*
X164294500Y-96000000D01*
X164294500Y-96200000D01*
X164295553Y-96208449D01*
X164305378Y-96287270D01*
X164302078Y-96287681D01*
X164304714Y-96338786D01*
X164295685Y-96392896D01*
X164294500Y-96400000D01*
X164294500Y-96600000D01*
X164295410Y-96607297D01*
X164305378Y-96687270D01*
X164302078Y-96687681D01*
X164304714Y-96738786D01*
X164295685Y-96792896D01*
X164294500Y-96800000D01*
X164294500Y-97000000D01*
X164302130Y-97061214D01*
X164305378Y-97087270D01*
X164302078Y-97087681D01*
X164304714Y-97138786D01*
X164295685Y-97192896D01*
X164294500Y-97200000D01*
X164294500Y-97400000D01*
X164295748Y-97410012D01*
X164305378Y-97487270D01*
X164302078Y-97487681D01*
X164304714Y-97538786D01*
X164295685Y-97592896D01*
X164294500Y-97600000D01*
X164294500Y-97800000D01*
X164298081Y-97828729D01*
X164305378Y-97887270D01*
X164302078Y-97887681D01*
X164304714Y-97938786D01*
X164301375Y-97958799D01*
X164294500Y-98000000D01*
X164294500Y-98200000D01*
X164300999Y-98252141D01*
X164305378Y-98287270D01*
X164302078Y-98287681D01*
X164304714Y-98338786D01*
X164295687Y-98392886D01*
X164294500Y-98400000D01*
X164294500Y-98600000D01*
X164295168Y-98605357D01*
X164305378Y-98687270D01*
X164302078Y-98687681D01*
X164304714Y-98738786D01*
X164295353Y-98794886D01*
X164262385Y-98871365D01*
X164255227Y-98880194D01*
X164226582Y-98913252D01*
X164213268Y-98933969D01*
X164162951Y-99044149D01*
X164156009Y-99067791D01*
X164137885Y-99193846D01*
X164137000Y-99206218D01*
X164137000Y-99396906D01*
X164137220Y-99403081D01*
X164141557Y-99463709D01*
X164144849Y-99481954D01*
X164179853Y-99601168D01*
X164190086Y-99623575D01*
X164262300Y-99735944D01*
X164261260Y-99736613D01*
X164293457Y-99799634D01*
X164296730Y-99817892D01*
X164304212Y-99877911D01*
X164305378Y-99887269D01*
X164302078Y-99887680D01*
X164304714Y-99938786D01*
X164295353Y-99994886D01*
X164262385Y-100071365D01*
X164255227Y-100080194D01*
X164226582Y-100113252D01*
X164213268Y-100133969D01*
X164162951Y-100244149D01*
X164156009Y-100267791D01*
X164137885Y-100393846D01*
X164137000Y-100406218D01*
X164137000Y-100596906D01*
X164137220Y-100603081D01*
X164141557Y-100663709D01*
X164144849Y-100681954D01*
X164179853Y-100801168D01*
X164190086Y-100823575D01*
X164262300Y-100935944D01*
X164261260Y-100936613D01*
X164293457Y-100999634D01*
X164296730Y-101017892D01*
X164305378Y-101087269D01*
X164302078Y-101087680D01*
X164304714Y-101138786D01*
X164295353Y-101194886D01*
X164262385Y-101271365D01*
X164255227Y-101280194D01*
X164226582Y-101313252D01*
X164213268Y-101333969D01*
X164162951Y-101444149D01*
X164156009Y-101467791D01*
X164137885Y-101593846D01*
X164137000Y-101606218D01*
X164137000Y-101796906D01*
X164137220Y-101803081D01*
X164141557Y-101863709D01*
X164144849Y-101881954D01*
X164179853Y-102001168D01*
X164190086Y-102023575D01*
X164262300Y-102135944D01*
X164261260Y-102136613D01*
X164293457Y-102199634D01*
X164296730Y-102217892D01*
X164305378Y-102287269D01*
X164302078Y-102287680D01*
X164304714Y-102338786D01*
X164295353Y-102394886D01*
X164262385Y-102471365D01*
X164255227Y-102480194D01*
X164226582Y-102513252D01*
X164213268Y-102533969D01*
X164162951Y-102644149D01*
X164156009Y-102667791D01*
X164137885Y-102793846D01*
X164137000Y-102806218D01*
X164137000Y-102996906D01*
X164137220Y-103003081D01*
X164141557Y-103063709D01*
X164144849Y-103081954D01*
X164179853Y-103201168D01*
X164190086Y-103223575D01*
X164262300Y-103335944D01*
X164261260Y-103336613D01*
X164293457Y-103399634D01*
X164296730Y-103417892D01*
X164305378Y-103487269D01*
X164302078Y-103487680D01*
X164304714Y-103538786D01*
X164295685Y-103592896D01*
X164294500Y-103600000D01*
X164294500Y-103800000D01*
X164296730Y-103817892D01*
X164305378Y-103887270D01*
X164302078Y-103887681D01*
X164304714Y-103938786D01*
X164295685Y-103992896D01*
X164294500Y-104000000D01*
X164294500Y-104200000D01*
X164296730Y-104217892D01*
X164305378Y-104287270D01*
X164302078Y-104287681D01*
X164304714Y-104338786D01*
X164295353Y-104394886D01*
X164262385Y-104471365D01*
X164255227Y-104480194D01*
X164226582Y-104513252D01*
X164213268Y-104533969D01*
X164162951Y-104644149D01*
X164156009Y-104667791D01*
X164137885Y-104793846D01*
X164137000Y-104806218D01*
X164137000Y-104996906D01*
X164137220Y-105003081D01*
X164141557Y-105063709D01*
X164144849Y-105081954D01*
X164179853Y-105201168D01*
X164190086Y-105223575D01*
X164262300Y-105335944D01*
X164261260Y-105336613D01*
X164293457Y-105399634D01*
X164296730Y-105417892D01*
X164305378Y-105487269D01*
X164302078Y-105487680D01*
X164304714Y-105538786D01*
X164295685Y-105592896D01*
X164294500Y-105600000D01*
X164294500Y-105800000D01*
X164296730Y-105817892D01*
X164305378Y-105887270D01*
X164302078Y-105887681D01*
X164304714Y-105938786D01*
X164295685Y-105992896D01*
X164294500Y-106000000D01*
X164294500Y-106200000D01*
X164302130Y-106261214D01*
X164305378Y-106287270D01*
X164302078Y-106287681D01*
X164304714Y-106338786D01*
X164295353Y-106394886D01*
X164262385Y-106471365D01*
X164255227Y-106480194D01*
X164226582Y-106513252D01*
X164213268Y-106533969D01*
X164162951Y-106644149D01*
X164156009Y-106667791D01*
X164137885Y-106793846D01*
X164137000Y-106806218D01*
X164137000Y-106996906D01*
X164137220Y-107003081D01*
X164141557Y-107063709D01*
X164144849Y-107081954D01*
X164179853Y-107201168D01*
X164190086Y-107223575D01*
X164262300Y-107335944D01*
X164261260Y-107336613D01*
X164293457Y-107399634D01*
X164296730Y-107417892D01*
X164305378Y-107487269D01*
X164302078Y-107487680D01*
X164304714Y-107538786D01*
X164295685Y-107592896D01*
X164294500Y-107600000D01*
X164294500Y-107800000D01*
X164296730Y-107817892D01*
X164305378Y-107887270D01*
X164302078Y-107887681D01*
X164304714Y-107938786D01*
X164295685Y-107992896D01*
X164294500Y-108000000D01*
X164294500Y-108200000D01*
X164304977Y-108284049D01*
X164295201Y-108366755D01*
X164248110Y-108435445D01*
X164174491Y-108474383D01*
X164091210Y-108474648D01*
X164017345Y-108436179D01*
X163994269Y-108411496D01*
X163937927Y-108338069D01*
X163930982Y-108329018D01*
X163804750Y-108232158D01*
X163729278Y-108200896D01*
X163668291Y-108175634D01*
X163668289Y-108175634D01*
X163657750Y-108171268D01*
X163500000Y-108150500D01*
X163342250Y-108171268D01*
X163331711Y-108175634D01*
X163331709Y-108175634D01*
X163270722Y-108200896D01*
X163195250Y-108232158D01*
X163069018Y-108329018D01*
X162972158Y-108455250D01*
X162967795Y-108465784D01*
X162960255Y-108483987D01*
X162910896Y-108551066D01*
X162836019Y-108587524D01*
X162752775Y-108585008D01*
X162680235Y-108544095D01*
X162635018Y-108474158D01*
X162625500Y-108417399D01*
X162625500Y-108400000D01*
X162614622Y-108312730D01*
X162617922Y-108312319D01*
X162615286Y-108261214D01*
X162624315Y-108207104D01*
X162624315Y-108207099D01*
X162625500Y-108200000D01*
X162625500Y-108000000D01*
X162614622Y-107912730D01*
X162617922Y-107912319D01*
X162615286Y-107861214D01*
X162624647Y-107805114D01*
X162657615Y-107728635D01*
X162664773Y-107719806D01*
X162693418Y-107686748D01*
X162706732Y-107666031D01*
X162757049Y-107555851D01*
X162763991Y-107532209D01*
X162782115Y-107406154D01*
X162783000Y-107393782D01*
X162783000Y-107203094D01*
X162782780Y-107196919D01*
X162778443Y-107136291D01*
X162775151Y-107118046D01*
X162740147Y-106998832D01*
X162729914Y-106976425D01*
X162657700Y-106864056D01*
X162658740Y-106863387D01*
X162626543Y-106800366D01*
X162623270Y-106782108D01*
X162614622Y-106712731D01*
X162617922Y-106712320D01*
X162615286Y-106661214D01*
X162624315Y-106607104D01*
X162624315Y-106607099D01*
X162625500Y-106600000D01*
X162625500Y-106400000D01*
X162614622Y-106312730D01*
X162617922Y-106312319D01*
X162615286Y-106261214D01*
X162624315Y-106207104D01*
X162624315Y-106207099D01*
X162625500Y-106200000D01*
X162625500Y-106000000D01*
X162614622Y-105912730D01*
X162617922Y-105912319D01*
X162615286Y-105861214D01*
X162624647Y-105805114D01*
X162657615Y-105728635D01*
X162664773Y-105719806D01*
X162693418Y-105686748D01*
X162706732Y-105666031D01*
X162757049Y-105555851D01*
X162763991Y-105532209D01*
X162782115Y-105406154D01*
X162783000Y-105393782D01*
X162783000Y-105203094D01*
X162782780Y-105196919D01*
X162778443Y-105136291D01*
X162775151Y-105118046D01*
X162740147Y-104998832D01*
X162729914Y-104976425D01*
X162657700Y-104864056D01*
X162658740Y-104863387D01*
X162626543Y-104800366D01*
X162623270Y-104782108D01*
X162614622Y-104712731D01*
X162617922Y-104712320D01*
X162615286Y-104661214D01*
X162624315Y-104607104D01*
X162624315Y-104607099D01*
X162625500Y-104600000D01*
X162625500Y-104400000D01*
X162614622Y-104312730D01*
X162617922Y-104312319D01*
X162615286Y-104261214D01*
X162624315Y-104207104D01*
X162624315Y-104207099D01*
X162625500Y-104200000D01*
X162625500Y-104000000D01*
X162614622Y-103912730D01*
X162617922Y-103912319D01*
X162615286Y-103861214D01*
X162624647Y-103805114D01*
X162657615Y-103728635D01*
X162664773Y-103719806D01*
X162693418Y-103686748D01*
X162706732Y-103666031D01*
X162757049Y-103555851D01*
X162763991Y-103532209D01*
X162782115Y-103406154D01*
X162783000Y-103393782D01*
X162783000Y-103203094D01*
X162782780Y-103196919D01*
X162778443Y-103136291D01*
X162775151Y-103118046D01*
X162740147Y-102998832D01*
X162729914Y-102976425D01*
X162657700Y-102864056D01*
X162658740Y-102863387D01*
X162626543Y-102800366D01*
X162623270Y-102782108D01*
X162614622Y-102712731D01*
X162617922Y-102712320D01*
X162615286Y-102661214D01*
X162624315Y-102607104D01*
X162624315Y-102607099D01*
X162625500Y-102600000D01*
X162625500Y-102400000D01*
X162614622Y-102312730D01*
X162617922Y-102312319D01*
X162615286Y-102261214D01*
X162624647Y-102205114D01*
X162657615Y-102128635D01*
X162664773Y-102119806D01*
X162693418Y-102086748D01*
X162706732Y-102066031D01*
X162757049Y-101955851D01*
X162763991Y-101932209D01*
X162782115Y-101806154D01*
X162783000Y-101793782D01*
X162783000Y-101603094D01*
X162782780Y-101596919D01*
X162778443Y-101536291D01*
X162775151Y-101518046D01*
X162740147Y-101398832D01*
X162729914Y-101376425D01*
X162657700Y-101264056D01*
X162658740Y-101263387D01*
X162626543Y-101200366D01*
X162623270Y-101182108D01*
X162614622Y-101112731D01*
X162617922Y-101112320D01*
X162615286Y-101061214D01*
X162624647Y-101005114D01*
X162657615Y-100928635D01*
X162664773Y-100919806D01*
X162693418Y-100886748D01*
X162706732Y-100866031D01*
X162757049Y-100755851D01*
X162763991Y-100732209D01*
X162782115Y-100606154D01*
X162783000Y-100593782D01*
X162783000Y-100403094D01*
X162782780Y-100396919D01*
X162778443Y-100336291D01*
X162775151Y-100318046D01*
X162740147Y-100198832D01*
X162729914Y-100176425D01*
X162657700Y-100064056D01*
X162658740Y-100063387D01*
X162626543Y-100000366D01*
X162623270Y-99982108D01*
X162614622Y-99912731D01*
X162617922Y-99912320D01*
X162615286Y-99861214D01*
X162624315Y-99807104D01*
X162624315Y-99807099D01*
X162625500Y-99800000D01*
X162625500Y-99600000D01*
X162614622Y-99512730D01*
X162617922Y-99512319D01*
X162615286Y-99461214D01*
X162624647Y-99405114D01*
X162657615Y-99328635D01*
X162664773Y-99319806D01*
X162693418Y-99286748D01*
X162706732Y-99266031D01*
X162757049Y-99155851D01*
X162763991Y-99132209D01*
X162782115Y-99006154D01*
X162783000Y-98993782D01*
X162783000Y-98803094D01*
X162782780Y-98796919D01*
X162778443Y-98736291D01*
X162775151Y-98718046D01*
X162740147Y-98598832D01*
X162729914Y-98576425D01*
X162657700Y-98464056D01*
X162658740Y-98463387D01*
X162626543Y-98400366D01*
X162623270Y-98382108D01*
X162614622Y-98312731D01*
X162617922Y-98312320D01*
X162615286Y-98261214D01*
X162624315Y-98207104D01*
X162624315Y-98207099D01*
X162625500Y-98200000D01*
X162625500Y-98000000D01*
X162614622Y-97912730D01*
X162617922Y-97912319D01*
X162615286Y-97861214D01*
X162624315Y-97807104D01*
X162624315Y-97807099D01*
X162625500Y-97800000D01*
X162625500Y-97600000D01*
X162614622Y-97512730D01*
X162617922Y-97512319D01*
X162615286Y-97461214D01*
X162624315Y-97407104D01*
X162624315Y-97407099D01*
X162625500Y-97400000D01*
X162625500Y-97200000D01*
X162614622Y-97112730D01*
X162617922Y-97112319D01*
X162615286Y-97061214D01*
X162624315Y-97007104D01*
X162624315Y-97007099D01*
X162625500Y-97000000D01*
X162625500Y-96800000D01*
X162614622Y-96712730D01*
X162617922Y-96712319D01*
X162615286Y-96661214D01*
X162624315Y-96607104D01*
X162624315Y-96607099D01*
X162625500Y-96600000D01*
X162625500Y-96400000D01*
X162614622Y-96312730D01*
X162617922Y-96312319D01*
X162615286Y-96261214D01*
X162624315Y-96207104D01*
X162624315Y-96207099D01*
X162625500Y-96200000D01*
X162625500Y-96000000D01*
X162614622Y-95912730D01*
X162617922Y-95912319D01*
X162615286Y-95861214D01*
X162624315Y-95807104D01*
X162624315Y-95807099D01*
X162625500Y-95800000D01*
X162625500Y-95600000D01*
X162614622Y-95512730D01*
X162617922Y-95512319D01*
X162615286Y-95461214D01*
X162624315Y-95407104D01*
X162624315Y-95407099D01*
X162625500Y-95400000D01*
X162625500Y-95200000D01*
X162614622Y-95112730D01*
X162617922Y-95112319D01*
X162615286Y-95061214D01*
X162624315Y-95007104D01*
X162624315Y-95007099D01*
X162625500Y-95000000D01*
X162625500Y-94800000D01*
X162614622Y-94712730D01*
X162617922Y-94712319D01*
X162615286Y-94661214D01*
X162624647Y-94605114D01*
X162657615Y-94528635D01*
X162664773Y-94519806D01*
X162693418Y-94486748D01*
X162706732Y-94466031D01*
X162757049Y-94355851D01*
X162763991Y-94332209D01*
X162782115Y-94206154D01*
X162783000Y-94193782D01*
X162783000Y-94003094D01*
X162782780Y-93996919D01*
X162778443Y-93936291D01*
X162775151Y-93918046D01*
X162740147Y-93798832D01*
X162729914Y-93776425D01*
X162657700Y-93664056D01*
X162658740Y-93663387D01*
X162626543Y-93600366D01*
X162623270Y-93582108D01*
X162617994Y-93539781D01*
X162614622Y-93512730D01*
X162609560Y-93501190D01*
X162609559Y-93501186D01*
X162576695Y-93426266D01*
X162567613Y-93405560D01*
X162557851Y-93394956D01*
X162557850Y-93394954D01*
X162498118Y-93330068D01*
X162498116Y-93330067D01*
X162488353Y-93319461D01*
X162385431Y-93263762D01*
X162270000Y-93244500D01*
X161570000Y-93244500D01*
X161482730Y-93255378D01*
X161471190Y-93260440D01*
X161471186Y-93260441D01*
X161423648Y-93281294D01*
X161375560Y-93302387D01*
X161358612Y-93317989D01*
X161292347Y-93378990D01*
X161219356Y-93419093D01*
X161136090Y-93420682D01*
X161061622Y-93383392D01*
X161013014Y-93315768D01*
X161000500Y-93250974D01*
X161000500Y-92299388D01*
X161020431Y-92218526D01*
X161051463Y-92176351D01*
X161866351Y-91361463D01*
X161937622Y-91318379D01*
X161989388Y-91310500D01*
X166865500Y-91310500D01*
X166946362Y-91330431D01*
X167008699Y-91385657D01*
X167038231Y-91463527D01*
X167039500Y-91484500D01*
X167039500Y-91652468D01*
X167038940Y-91666420D01*
X167038864Y-91667369D01*
X167036128Y-91679459D01*
X167038049Y-91710426D01*
X167039166Y-91728425D01*
X167039500Y-91739200D01*
X167039500Y-91754914D01*
X167040820Y-91764130D01*
X167042243Y-91778021D01*
X167045003Y-91822509D01*
X167049212Y-91834168D01*
X167050827Y-91841965D01*
X167053060Y-91849603D01*
X167054818Y-91861877D01*
X167059950Y-91873163D01*
X167059951Y-91873168D01*
X167073273Y-91902469D01*
X167078539Y-91915404D01*
X167093670Y-91957318D01*
X167100980Y-91967324D01*
X167104716Y-91974350D01*
X167109009Y-91981063D01*
X167114140Y-91992349D01*
X167122231Y-92001739D01*
X167122233Y-92001742D01*
X167143238Y-92026118D01*
X167151927Y-92037062D01*
X167152748Y-92038185D01*
X167159191Y-92047005D01*
X167169406Y-92057220D01*
X167178185Y-92066676D01*
X167207697Y-92100926D01*
X167218099Y-92107668D01*
X167227376Y-92115761D01*
X167236031Y-92123845D01*
X170044595Y-94932409D01*
X170054065Y-94942672D01*
X170054678Y-94943392D01*
X170061292Y-94953875D01*
X170070584Y-94962081D01*
X170098062Y-94986349D01*
X170105917Y-94993731D01*
X170117031Y-95004845D01*
X170121972Y-95008548D01*
X170121981Y-95008556D01*
X170124481Y-95010429D01*
X170135307Y-95019243D01*
X170168719Y-95048751D01*
X170179942Y-95054020D01*
X170186598Y-95058392D01*
X170193577Y-95062213D01*
X170203497Y-95069648D01*
X170215107Y-95074000D01*
X170215108Y-95074001D01*
X170245249Y-95085301D01*
X170258115Y-95090723D01*
X170287232Y-95104393D01*
X170287235Y-95104394D01*
X170298456Y-95109662D01*
X170310704Y-95111569D01*
X170318322Y-95113898D01*
X170326094Y-95115607D01*
X170337701Y-95119958D01*
X170350059Y-95120876D01*
X170350067Y-95120878D01*
X170382162Y-95123263D01*
X170396031Y-95124855D01*
X170401557Y-95125715D01*
X170401559Y-95125715D01*
X170408205Y-95126750D01*
X170422643Y-95126750D01*
X170435537Y-95127228D01*
X170468272Y-95129661D01*
X170468275Y-95129661D01*
X170480632Y-95130579D01*
X170492754Y-95127991D01*
X170505047Y-95127153D01*
X170516884Y-95126750D01*
X171182378Y-95126750D01*
X171263240Y-95146681D01*
X171310394Y-95182903D01*
X171345632Y-95221182D01*
X171345634Y-95221183D01*
X171355397Y-95231789D01*
X171458319Y-95287488D01*
X171573750Y-95306750D01*
X171973750Y-95306750D01*
X172061020Y-95295872D01*
X172072560Y-95290810D01*
X172072564Y-95290809D01*
X172120102Y-95269956D01*
X172168190Y-95248863D01*
X172178794Y-95239101D01*
X172178796Y-95239100D01*
X172243682Y-95179368D01*
X172243683Y-95179366D01*
X172254289Y-95169603D01*
X172269486Y-95141522D01*
X172325498Y-95079895D01*
X172403737Y-95051356D01*
X172486277Y-95062445D01*
X172554210Y-95110622D01*
X172568178Y-95129170D01*
X172570347Y-95132490D01*
X172576137Y-95145690D01*
X172585899Y-95156294D01*
X172585900Y-95156296D01*
X172645632Y-95221182D01*
X172645634Y-95221183D01*
X172655397Y-95231789D01*
X172758319Y-95287488D01*
X172873750Y-95306750D01*
X173273750Y-95306750D01*
X173361020Y-95295872D01*
X173372560Y-95290810D01*
X173372564Y-95290809D01*
X173420102Y-95269956D01*
X173468190Y-95248863D01*
X173478794Y-95239101D01*
X173478796Y-95239100D01*
X173543682Y-95179368D01*
X173543683Y-95179366D01*
X173554289Y-95169603D01*
X173609988Y-95066681D01*
X173629250Y-94951250D01*
X173629250Y-94301250D01*
X173618372Y-94213980D01*
X173613310Y-94202439D01*
X173613308Y-94202433D01*
X173576106Y-94117623D01*
X173561876Y-94035566D01*
X173587409Y-93956294D01*
X173612413Y-93924690D01*
X173716636Y-93820467D01*
X173731950Y-93806859D01*
X173745585Y-93796110D01*
X173755795Y-93788061D01*
X173763837Y-93776425D01*
X173788722Y-93740421D01*
X173791897Y-93735978D01*
X173818577Y-93699856D01*
X173818579Y-93699853D01*
X173826305Y-93689392D01*
X173828696Y-93682582D01*
X173832802Y-93676642D01*
X173836994Y-93663387D01*
X173850276Y-93621395D01*
X173852004Y-93616215D01*
X173866870Y-93573880D01*
X173871182Y-93561602D01*
X173871465Y-93554388D01*
X173873642Y-93547506D01*
X173874250Y-93539781D01*
X173874250Y-93486931D01*
X173874384Y-93480100D01*
X173875988Y-93439262D01*
X173876499Y-93426266D01*
X173874517Y-93418791D01*
X173874250Y-93413941D01*
X173874250Y-93367003D01*
X173894181Y-93286141D01*
X173949407Y-93223804D01*
X173956324Y-93219430D01*
X173965200Y-93215753D01*
X174088014Y-93121514D01*
X174182253Y-92998700D01*
X174241494Y-92855680D01*
X174256700Y-92740179D01*
X174256700Y-92164221D01*
X174247012Y-92090632D01*
X174242983Y-92060027D01*
X174242982Y-92060024D01*
X174241494Y-92048720D01*
X174182253Y-91905700D01*
X174088014Y-91782886D01*
X173965200Y-91688647D01*
X173962080Y-91687355D01*
X173905175Y-91632696D01*
X173878803Y-91553700D01*
X173892163Y-91471497D01*
X173942194Y-91404918D01*
X173958988Y-91393326D01*
X173965200Y-91390753D01*
X174088014Y-91296514D01*
X174182253Y-91173700D01*
X174241494Y-91030680D01*
X174256700Y-90915179D01*
X174256700Y-90339221D01*
X174241494Y-90223720D01*
X174182253Y-90080700D01*
X174088014Y-89957886D01*
X173965200Y-89863647D01*
X173822180Y-89804406D01*
X173810876Y-89802918D01*
X173810873Y-89802917D01*
X173762888Y-89796600D01*
X173706679Y-89789200D01*
X173155721Y-89789200D01*
X173040220Y-89804406D01*
X173029680Y-89808772D01*
X173026130Y-89809723D01*
X172942865Y-89811400D01*
X172868358Y-89774190D01*
X172819678Y-89706618D01*
X172807976Y-89624162D01*
X172830406Y-89554653D01*
X172830901Y-89553796D01*
X172837842Y-89544750D01*
X172888432Y-89422617D01*
X172937790Y-89355539D01*
X173012668Y-89319081D01*
X173071896Y-89316695D01*
X173148271Y-89326750D01*
X173699229Y-89326750D01*
X173757663Y-89319057D01*
X173803423Y-89313033D01*
X173803426Y-89313032D01*
X173814730Y-89311544D01*
X173957750Y-89252303D01*
X174080564Y-89158064D01*
X174174803Y-89035250D01*
X174234044Y-88892230D01*
X174238408Y-88859087D01*
X174248506Y-88782377D01*
X174249250Y-88776729D01*
X174249250Y-88200771D01*
X174241850Y-88144562D01*
X174235533Y-88096577D01*
X174235532Y-88096574D01*
X174234044Y-88085270D01*
X174174803Y-87942250D01*
X174080564Y-87819436D01*
X173957750Y-87725197D01*
X173954630Y-87723905D01*
X173897725Y-87669246D01*
X173871353Y-87590250D01*
X173884713Y-87508047D01*
X173934744Y-87441468D01*
X173951538Y-87429876D01*
X173957750Y-87427303D01*
X174080564Y-87333064D01*
X174174803Y-87210250D01*
X174234044Y-87067230D01*
X174237658Y-87039784D01*
X174248506Y-86957377D01*
X174249250Y-86951729D01*
X174249250Y-86375771D01*
X174239000Y-86297916D01*
X174235533Y-86271577D01*
X174235532Y-86271574D01*
X174234044Y-86260270D01*
X174174803Y-86117250D01*
X174080564Y-85994436D01*
X173957750Y-85900197D01*
X173814730Y-85840956D01*
X173803426Y-85839468D01*
X173803423Y-85839467D01*
X173755438Y-85833150D01*
X173699229Y-85825750D01*
X173148271Y-85825750D01*
X173092062Y-85833150D01*
X173044077Y-85839467D01*
X173044074Y-85839468D01*
X173032770Y-85840956D01*
X172889750Y-85900197D01*
X172766936Y-85994436D01*
X172672697Y-86117250D01*
X172668333Y-86127784D01*
X172668332Y-86127787D01*
X172625648Y-86230837D01*
X172576290Y-86297916D01*
X172501413Y-86334374D01*
X172464893Y-86338250D01*
X171305613Y-86338250D01*
X171224751Y-86318319D01*
X171167570Y-86270175D01*
X171093001Y-86172995D01*
X171086056Y-86163944D01*
X170967125Y-86072685D01*
X170955849Y-86068014D01*
X170839168Y-86019683D01*
X170839166Y-86019683D01*
X170828627Y-86015317D01*
X170717979Y-86000750D01*
X170129521Y-86000750D01*
X170018873Y-86015317D01*
X170008334Y-86019683D01*
X170008332Y-86019683D01*
X169891651Y-86068014D01*
X169880375Y-86072685D01*
X169761444Y-86163944D01*
X169670185Y-86282875D01*
X169665820Y-86293413D01*
X169629348Y-86381465D01*
X169612817Y-86421373D01*
X169598250Y-86532021D01*
X169598250Y-87045479D01*
X169612817Y-87156127D01*
X169617183Y-87166666D01*
X169617183Y-87166668D01*
X169665514Y-87283349D01*
X169670185Y-87294625D01*
X169761444Y-87413556D01*
X169793570Y-87438207D01*
X169845588Y-87503244D01*
X169861425Y-87585006D01*
X169837450Y-87664762D01*
X169793570Y-87714293D01*
X169761444Y-87738944D01*
X169670185Y-87857875D01*
X169665820Y-87868413D01*
X169630871Y-87952788D01*
X169612817Y-87996373D01*
X169598250Y-88107021D01*
X169598250Y-88409362D01*
X169578319Y-88490224D01*
X169547287Y-88532399D01*
X169117591Y-88962095D01*
X169107328Y-88971565D01*
X169106608Y-88972178D01*
X169096125Y-88978792D01*
X169087919Y-88988084D01*
X169063651Y-89015562D01*
X169056269Y-89023417D01*
X169045155Y-89034531D01*
X169041452Y-89039472D01*
X169041444Y-89039481D01*
X169039571Y-89041981D01*
X169030757Y-89052807D01*
X169001249Y-89086219D01*
X168995980Y-89097442D01*
X168991608Y-89104098D01*
X168987787Y-89111077D01*
X168980352Y-89120997D01*
X168976000Y-89132607D01*
X168975999Y-89132608D01*
X168964699Y-89162749D01*
X168959277Y-89175615D01*
X168945607Y-89204732D01*
X168945606Y-89204735D01*
X168940338Y-89215956D01*
X168938431Y-89228204D01*
X168936102Y-89235822D01*
X168934393Y-89243594D01*
X168930042Y-89255201D01*
X168929124Y-89267559D01*
X168929122Y-89267567D01*
X168926737Y-89299662D01*
X168925145Y-89313531D01*
X168924653Y-89316695D01*
X168923250Y-89325705D01*
X168923250Y-89340143D01*
X168922772Y-89353036D01*
X168919421Y-89398132D01*
X168922009Y-89410258D01*
X168922847Y-89422545D01*
X168923250Y-89434382D01*
X168923250Y-91296218D01*
X168922690Y-91310170D01*
X168922614Y-91311119D01*
X168919878Y-91323209D01*
X168920646Y-91335582D01*
X168922916Y-91372175D01*
X168923250Y-91382950D01*
X168923250Y-91398664D01*
X168924146Y-91404918D01*
X168924570Y-91407880D01*
X168925993Y-91421773D01*
X168927744Y-91449994D01*
X168928753Y-91466259D01*
X168932962Y-91477918D01*
X168934577Y-91485715D01*
X168936810Y-91493353D01*
X168938568Y-91505627D01*
X168943700Y-91516913D01*
X168943701Y-91516918D01*
X168957023Y-91546219D01*
X168962289Y-91559154D01*
X168963912Y-91563649D01*
X168977420Y-91601068D01*
X168984730Y-91611074D01*
X168988466Y-91618100D01*
X168992759Y-91624813D01*
X168997890Y-91636099D01*
X169005981Y-91645489D01*
X169005983Y-91645492D01*
X169026988Y-91669868D01*
X169035677Y-91680812D01*
X169042941Y-91690755D01*
X169053156Y-91700970D01*
X169061935Y-91710426D01*
X169091447Y-91744676D01*
X169101849Y-91751418D01*
X169111126Y-91759511D01*
X169119781Y-91767595D01*
X169547287Y-92195101D01*
X169590371Y-92266372D01*
X169598250Y-92318138D01*
X169598250Y-92620479D01*
X169599564Y-92630457D01*
X169590357Y-92713226D01*
X169543740Y-92782238D01*
X169470390Y-92821680D01*
X169387113Y-92822518D01*
X169312985Y-92784559D01*
X169304015Y-92776201D01*
X168091463Y-91563649D01*
X168048379Y-91492378D01*
X168040500Y-91440612D01*
X168040500Y-91177532D01*
X168041060Y-91163580D01*
X168041136Y-91162631D01*
X168043872Y-91150541D01*
X168040834Y-91101572D01*
X168040500Y-91090800D01*
X168040500Y-91075086D01*
X168039179Y-91065864D01*
X168037757Y-91051977D01*
X168035765Y-91019862D01*
X168035764Y-91019859D01*
X168034997Y-91007491D01*
X168030788Y-90995832D01*
X168029173Y-90988035D01*
X168026940Y-90980397D01*
X168025182Y-90968123D01*
X168020050Y-90956837D01*
X168020049Y-90956832D01*
X168006727Y-90927531D01*
X168001461Y-90914596D01*
X167990538Y-90884339D01*
X167986330Y-90872682D01*
X167979020Y-90862676D01*
X167975284Y-90855650D01*
X167970991Y-90848937D01*
X167965860Y-90837651D01*
X167957769Y-90828261D01*
X167957767Y-90828258D01*
X167936762Y-90803882D01*
X167928073Y-90792938D01*
X167924777Y-90788426D01*
X167924774Y-90788423D01*
X167920809Y-90782995D01*
X167910594Y-90772780D01*
X167901815Y-90763324D01*
X167880393Y-90738463D01*
X167872303Y-90729074D01*
X167861901Y-90722332D01*
X167852624Y-90714239D01*
X167843969Y-90706155D01*
X167641655Y-90503841D01*
X167632185Y-90493578D01*
X167631572Y-90492858D01*
X167624958Y-90482375D01*
X167588187Y-90449900D01*
X167580333Y-90442519D01*
X167569219Y-90431405D01*
X167564278Y-90427702D01*
X167564269Y-90427694D01*
X167561769Y-90425821D01*
X167550943Y-90417007D01*
X167546675Y-90413238D01*
X167517531Y-90387499D01*
X167506308Y-90382230D01*
X167499652Y-90377858D01*
X167492673Y-90374037D01*
X167482753Y-90366602D01*
X167471143Y-90362250D01*
X167471142Y-90362249D01*
X167441001Y-90350949D01*
X167428135Y-90345527D01*
X167399018Y-90331857D01*
X167399015Y-90331856D01*
X167387794Y-90326588D01*
X167375546Y-90324681D01*
X167367928Y-90322352D01*
X167360156Y-90320643D01*
X167348549Y-90316292D01*
X167336191Y-90315374D01*
X167336183Y-90315372D01*
X167304088Y-90312987D01*
X167290219Y-90311395D01*
X167284693Y-90310535D01*
X167284691Y-90310535D01*
X167278045Y-90309500D01*
X167263607Y-90309500D01*
X167250713Y-90309022D01*
X167205618Y-90305671D01*
X167193492Y-90308259D01*
X167181205Y-90309097D01*
X167169368Y-90309500D01*
X161777531Y-90309500D01*
X161763579Y-90308940D01*
X161762630Y-90308864D01*
X161750540Y-90306128D01*
X161701571Y-90309166D01*
X161690799Y-90309500D01*
X161675086Y-90309500D01*
X161668963Y-90310377D01*
X161668961Y-90310377D01*
X161665866Y-90310820D01*
X161651976Y-90312243D01*
X161619867Y-90314235D01*
X161619866Y-90314235D01*
X161607490Y-90315003D01*
X161595825Y-90319214D01*
X161588024Y-90320830D01*
X161580397Y-90323060D01*
X161568123Y-90324818D01*
X161527544Y-90343268D01*
X161514617Y-90348530D01*
X161484344Y-90359459D01*
X161484339Y-90359462D01*
X161472682Y-90363670D01*
X161462675Y-90370981D01*
X161455645Y-90374719D01*
X161448937Y-90379009D01*
X161437651Y-90384140D01*
X161428261Y-90392231D01*
X161428258Y-90392233D01*
X161403882Y-90413238D01*
X161392938Y-90421927D01*
X161388426Y-90425223D01*
X161388423Y-90425226D01*
X161382995Y-90429191D01*
X161372780Y-90439406D01*
X161363324Y-90448185D01*
X161329074Y-90477697D01*
X161322332Y-90488099D01*
X161314239Y-90497376D01*
X161306155Y-90506031D01*
X160193841Y-91618345D01*
X160183578Y-91627815D01*
X160182858Y-91628428D01*
X160172375Y-91635042D01*
X160164169Y-91644334D01*
X160139901Y-91671812D01*
X160132519Y-91679667D01*
X160121405Y-91690781D01*
X160117702Y-91695722D01*
X160117694Y-91695731D01*
X160115821Y-91698231D01*
X160107007Y-91709057D01*
X160077499Y-91742469D01*
X160072230Y-91753692D01*
X160067858Y-91760348D01*
X160064037Y-91767327D01*
X160056602Y-91777247D01*
X160052250Y-91788857D01*
X160052249Y-91788858D01*
X160040949Y-91818999D01*
X160035527Y-91831865D01*
X160021857Y-91860982D01*
X160021856Y-91860985D01*
X160016588Y-91872206D01*
X160014681Y-91884454D01*
X160012352Y-91892072D01*
X160010643Y-91899844D01*
X160006292Y-91911451D01*
X160005374Y-91923809D01*
X160005372Y-91923817D01*
X160002987Y-91955912D01*
X160001395Y-91969781D01*
X160000772Y-91973783D01*
X159999500Y-91981955D01*
X159999500Y-91996393D01*
X159999022Y-92009286D01*
X159995671Y-92054382D01*
X125905874Y-92054382D01*
X125905874Y-82106635D01*
X126946361Y-82106635D01*
X126978062Y-82451632D01*
X127048614Y-82790822D01*
X127157109Y-83119844D01*
X127302154Y-83434470D01*
X127304710Y-83438683D01*
X127304711Y-83438684D01*
X127479317Y-83726427D01*
X127481882Y-83730654D01*
X127693985Y-84004588D01*
X127935734Y-84252751D01*
X127957677Y-84270679D01*
X128200205Y-84468833D01*
X128200212Y-84468838D01*
X128204022Y-84471951D01*
X128208158Y-84474611D01*
X128208163Y-84474615D01*
X128491245Y-84656700D01*
X128491253Y-84656704D01*
X128495400Y-84659372D01*
X128806121Y-84812603D01*
X128810749Y-84814265D01*
X128810757Y-84814268D01*
X129127550Y-84928008D01*
X129127555Y-84928009D01*
X129132191Y-84929674D01*
X129136983Y-84930802D01*
X129136992Y-84930805D01*
X129341124Y-84978871D01*
X129469418Y-85009080D01*
X129813466Y-85049801D01*
X129818404Y-85049823D01*
X129818411Y-85049823D01*
X129985817Y-85050553D01*
X130159913Y-85051313D01*
X130306664Y-85035241D01*
X130499403Y-85014133D01*
X130499409Y-85014132D01*
X130504303Y-85013596D01*
X130509103Y-85012510D01*
X130509108Y-85012509D01*
X130648485Y-84980971D01*
X130842210Y-84937135D01*
X130846851Y-84935514D01*
X130846859Y-84935512D01*
X131035554Y-84869616D01*
X131169289Y-84822914D01*
X131481336Y-84672401D01*
X131485495Y-84669777D01*
X131485502Y-84669773D01*
X131770163Y-84490164D01*
X131774338Y-84487530D01*
X132044529Y-84270679D01*
X132288434Y-84024636D01*
X132301451Y-84008125D01*
X132499856Y-83756448D01*
X132502919Y-83752563D01*
X132685226Y-83457959D01*
X132833010Y-83144610D01*
X132944373Y-82816547D01*
X132948942Y-82795503D01*
X133016834Y-82482814D01*
X133016835Y-82482810D01*
X133017882Y-82477986D01*
X133052592Y-82133279D01*
X133053174Y-82106635D01*
X133055426Y-82003400D01*
X133055426Y-82003395D01*
X133055500Y-82000000D01*
X133042168Y-81765204D01*
X133036139Y-81659038D01*
X133036139Y-81659037D01*
X133035859Y-81654108D01*
X132977188Y-81312662D01*
X132880241Y-80980053D01*
X132857419Y-80925628D01*
X132748171Y-80665101D01*
X132748167Y-80665093D01*
X132746265Y-80660557D01*
X132721379Y-80616120D01*
X134127299Y-80616120D01*
X134167468Y-80815334D01*
X134246874Y-81002403D01*
X134251881Y-81009661D01*
X134297392Y-81075633D01*
X134362273Y-81169685D01*
X134508952Y-81310345D01*
X134680919Y-81418638D01*
X134689169Y-81421739D01*
X134826930Y-81473520D01*
X134871149Y-81490141D01*
X134900016Y-81494713D01*
X135016190Y-81513113D01*
X135071871Y-81521932D01*
X135217623Y-81515313D01*
X135266078Y-81513113D01*
X135274886Y-81512713D01*
X135283428Y-81510552D01*
X135283432Y-81510551D01*
X135376350Y-81487039D01*
X135471901Y-81462861D01*
X135654868Y-81374411D01*
X135816312Y-81250978D01*
X135827303Y-81238335D01*
X135893286Y-81162430D01*
X135949639Y-81097603D01*
X136049403Y-80920551D01*
X136091739Y-80788689D01*
X136108834Y-80735444D01*
X136108835Y-80735440D01*
X136111527Y-80727055D01*
X136113483Y-80709055D01*
X136124535Y-80607310D01*
X136133475Y-80525020D01*
X136133500Y-80518000D01*
X136131212Y-80495469D01*
X136113853Y-80324582D01*
X136112963Y-80315816D01*
X136064495Y-80161154D01*
X136054828Y-80130305D01*
X136054827Y-80130303D01*
X136052191Y-80121891D01*
X135953666Y-79944148D01*
X135821412Y-79789845D01*
X135814449Y-79784444D01*
X135814447Y-79784442D01*
X135667802Y-79670693D01*
X135660834Y-79665288D01*
X135652923Y-79661395D01*
X135652921Y-79661394D01*
X135486401Y-79579456D01*
X135486399Y-79579455D01*
X135478489Y-79575563D01*
X135300243Y-79529133D01*
X135290358Y-79526558D01*
X135290356Y-79526558D01*
X135281827Y-79524336D01*
X135078882Y-79513700D01*
X134877942Y-79544090D01*
X134687218Y-79614263D01*
X134514499Y-79721353D01*
X134508095Y-79727409D01*
X134421259Y-79809526D01*
X134366841Y-79860986D01*
X134361785Y-79868207D01*
X134361784Y-79868208D01*
X134257213Y-80017552D01*
X134250277Y-80027457D01*
X134169567Y-80213967D01*
X134167766Y-80222588D01*
X134167765Y-80222591D01*
X134129927Y-80403712D01*
X134128008Y-80412897D01*
X134127977Y-80421710D01*
X134127977Y-80421712D01*
X134127895Y-80445195D01*
X134127299Y-80616120D01*
X132721379Y-80616120D01*
X132576983Y-80358281D01*
X132412863Y-80130305D01*
X132377453Y-80081118D01*
X132377452Y-80081117D01*
X132374569Y-80077112D01*
X132141628Y-79820663D01*
X131881154Y-79592233D01*
X131660351Y-79439057D01*
X131600545Y-79397568D01*
X131600542Y-79397566D01*
X131596494Y-79394758D01*
X131477230Y-79330675D01*
X131295658Y-79233113D01*
X131295654Y-79233111D01*
X131291310Y-79230777D01*
X130969524Y-79102397D01*
X130964763Y-79101099D01*
X130964760Y-79101098D01*
X130640044Y-79012570D01*
X130640036Y-79012568D01*
X130635274Y-79011270D01*
X130371297Y-78970640D01*
X130297737Y-78959318D01*
X130297735Y-78959318D01*
X130292857Y-78958567D01*
X130287927Y-78958373D01*
X130287924Y-78958373D01*
X130034913Y-78948432D01*
X129946674Y-78944965D01*
X129766249Y-78958373D01*
X129606088Y-78970275D01*
X129606087Y-78970275D01*
X129601177Y-78970640D01*
X129260808Y-79035261D01*
X129121176Y-79078618D01*
X128934661Y-79136532D01*
X128934655Y-79136534D01*
X128929941Y-79137998D01*
X128612832Y-79277530D01*
X128484171Y-79352563D01*
X128317826Y-79449572D01*
X128317821Y-79449575D01*
X128313557Y-79452062D01*
X128230396Y-79514161D01*
X128039916Y-79656398D01*
X128039911Y-79656402D01*
X128035962Y-79659351D01*
X128032368Y-79662732D01*
X127811918Y-79870112D01*
X127783619Y-79896733D01*
X127559769Y-80161154D01*
X127367292Y-80449217D01*
X127208662Y-80757216D01*
X127206916Y-80761825D01*
X127206914Y-80761829D01*
X127156777Y-80894163D01*
X127085918Y-81081193D01*
X127000638Y-81416983D01*
X126953919Y-81760268D01*
X126946361Y-82106635D01*
X125905874Y-82106635D01*
X125905874Y-81633975D01*
X125908954Y-81606664D01*
X125909178Y-81606051D01*
X125910119Y-81596571D01*
X125912280Y-81424386D01*
X125912503Y-81417478D01*
X125912689Y-81413942D01*
X125916465Y-81341886D01*
X125917179Y-81332817D01*
X125919048Y-81315041D01*
X125934325Y-81169685D01*
X125943262Y-81084656D01*
X125944451Y-81075626D01*
X125953572Y-81018035D01*
X125955232Y-81009077D01*
X125956651Y-81002403D01*
X126007111Y-80765004D01*
X126009235Y-80756161D01*
X126024334Y-80699814D01*
X126026920Y-80691082D01*
X126104021Y-80453788D01*
X126107062Y-80445200D01*
X126127976Y-80390718D01*
X126131462Y-80382303D01*
X126214424Y-80195967D01*
X126232937Y-80154386D01*
X126236837Y-80146209D01*
X126263350Y-80094175D01*
X126267689Y-80086184D01*
X126392439Y-79870112D01*
X126397198Y-79862345D01*
X126428970Y-79813420D01*
X126434130Y-79805913D01*
X126501689Y-79712925D01*
X126580787Y-79604056D01*
X126586310Y-79596858D01*
X126623047Y-79551492D01*
X126628962Y-79544566D01*
X126795893Y-79359171D01*
X126802163Y-79352563D01*
X126843439Y-79311287D01*
X126850047Y-79305017D01*
X127035440Y-79138088D01*
X127042366Y-79132173D01*
X127080740Y-79101098D01*
X127087732Y-79095436D01*
X127094930Y-79089913D01*
X127257829Y-78971560D01*
X127296787Y-78943256D01*
X127304294Y-78938096D01*
X127353219Y-78906324D01*
X127360986Y-78901565D01*
X127577057Y-78776816D01*
X127585063Y-78772469D01*
X127637039Y-78745986D01*
X127645261Y-78742064D01*
X127873204Y-78640577D01*
X127881620Y-78637091D01*
X127936069Y-78616190D01*
X127944657Y-78613149D01*
X128181962Y-78536045D01*
X128190693Y-78533459D01*
X128247029Y-78518363D01*
X128255884Y-78516236D01*
X128499988Y-78464350D01*
X128508895Y-78462700D01*
X128531312Y-78459150D01*
X128566507Y-78453576D01*
X128575535Y-78452387D01*
X128823683Y-78426306D01*
X128832763Y-78425592D01*
X128908352Y-78421630D01*
X128915258Y-78421406D01*
X129059753Y-78419593D01*
X129066819Y-78418326D01*
X129066825Y-78418325D01*
X129070124Y-78417733D01*
X129100843Y-78415000D01*
X144826000Y-78415000D01*
X144906862Y-78434931D01*
G37*
G04 #@! TD.AperFunction*
G04 #@! TA.AperFunction,Conductor*
G36*
X168461201Y-118221053D02*
G01*
X168529741Y-118268363D01*
X168558845Y-118313852D01*
X168566295Y-118330838D01*
X168566298Y-118330843D01*
X168572087Y-118344040D01*
X168581849Y-118354644D01*
X168581850Y-118354646D01*
X168641582Y-118419532D01*
X168641584Y-118419533D01*
X168651347Y-118430139D01*
X168754269Y-118485838D01*
X168869700Y-118505100D01*
X171130300Y-118505100D01*
X171217570Y-118494222D01*
X171229114Y-118489158D01*
X171229119Y-118489157D01*
X171305605Y-118455607D01*
X171387662Y-118441377D01*
X171466933Y-118466910D01*
X171525258Y-118526358D01*
X171549275Y-118606102D01*
X171549500Y-118614951D01*
X171549500Y-120996324D01*
X171529569Y-121077186D01*
X171498537Y-121119361D01*
X171155439Y-121462459D01*
X171084168Y-121505543D01*
X171001038Y-121510572D01*
X170925093Y-121476392D01*
X170873731Y-121410834D01*
X170858719Y-121328916D01*
X170879343Y-121256663D01*
X170962848Y-121102223D01*
X170969409Y-121086616D01*
X171006535Y-120966681D01*
X171007553Y-120949311D01*
X170994399Y-120946500D01*
X169760129Y-120946500D01*
X169742787Y-120950775D01*
X169739000Y-120960760D01*
X169739000Y-121383219D01*
X169719069Y-121464081D01*
X169663843Y-121526418D01*
X169644811Y-121537835D01*
X169602502Y-121559672D01*
X169519380Y-121632184D01*
X169445348Y-121670319D01*
X169362068Y-121669682D01*
X169288624Y-121630417D01*
X169241840Y-121561517D01*
X169231000Y-121501062D01*
X169231000Y-119680629D01*
X169229307Y-119673760D01*
X169739000Y-119673760D01*
X169739000Y-120417371D01*
X169743275Y-120434713D01*
X169753260Y-120438500D01*
X170990974Y-120438500D01*
X171008149Y-120434267D01*
X171007087Y-120421457D01*
X170974818Y-120311817D01*
X170968476Y-120296119D01*
X170882505Y-120131674D01*
X170873227Y-120117495D01*
X170756952Y-119972876D01*
X170745109Y-119960783D01*
X170602952Y-119841499D01*
X170588984Y-119831935D01*
X170426365Y-119742535D01*
X170410801Y-119735865D01*
X170233925Y-119679756D01*
X170217357Y-119676235D01*
X170072994Y-119660041D01*
X170063308Y-119659500D01*
X169760129Y-119659500D01*
X169742787Y-119663775D01*
X169739000Y-119673760D01*
X169229307Y-119673760D01*
X169226725Y-119663287D01*
X169216740Y-119659500D01*
X168913247Y-119659500D01*
X168904792Y-119659913D01*
X168766850Y-119673439D01*
X168750241Y-119676728D01*
X168572597Y-119730361D01*
X168556938Y-119736815D01*
X168481189Y-119777092D01*
X168400435Y-119797456D01*
X168319467Y-119777961D01*
X168256834Y-119723070D01*
X168226884Y-119645360D01*
X168225500Y-119623459D01*
X168225500Y-118383746D01*
X168245431Y-118302884D01*
X168300657Y-118240547D01*
X168378527Y-118211015D01*
X168461201Y-118221053D01*
G37*
G04 #@! TD.AperFunction*
M02*
