M48
; DRILL file {KiCad (5.99.0-10613-g4d227d2d2b)} date Thu Jun 17 11:01:36 2021
; FORMAT={-:-/ absolute / inch / decimal}
; #@! TF.CreationDate,2021-06-17T11:01:36+05:30
; #@! TF.GenerationSoftware,Kicad,Pcbnew,(5.99.0-10613-g4d227d2d2b)
; #@! TF.FileFunction,Plated,1,2,PTH
FMAT,2
INCH
; #@! TA.AperFunction,Plated,PTH,ViaDrill
T1C0.0100
; #@! TA.AperFunction,Plated,PTH,ComponentDrill
T2C0.0236
; #@! TA.AperFunction,Plated,PTH,ComponentDrill
T3C0.0256
%
G90
G05
T1
X5.0Y-3.622
X5.0Y-3.98
X5.07Y-3.47
X5.0787Y-4.5669
X5.16Y-4.95
X5.1669Y-4.8713
X5.25Y-4.424
X5.25Y-4.424
X5.25Y-4.45
X5.25Y-4.45
X5.2559Y-3.6417
X5.2559Y-3.8386
X5.4331Y-5.1181
X5.4724Y-3.2352
X5.6693Y-3.1496
X5.6693Y-3.2283
X5.6693Y-3.3071
X5.7283Y-3.3858
X5.7874Y-5.1181
X5.8071Y-3.3858
X5.8858Y-3.3858
X5.9646Y-3.3858
X6.0433Y-3.3858
X6.1024Y-5.1181
X6.122Y-3.3858
X6.1811Y-3.1496
X6.1811Y-3.2283
X6.1811Y-3.3071
X6.3268Y-4.3307
X6.4173Y-4.7638
X6.437Y-4.2819
X6.5748Y-3.622
X6.5774Y-4.9049
X6.5774Y-4.9049
X6.5958Y-4.8865
X6.5958Y-4.8865
X6.6535Y-4.3307
X6.7323Y-3.1693
X6.7323Y-3.8976
X6.7323Y-3.9961
X6.7323Y-4.0748
X6.7839Y-3.5134
X6.8169Y-4.498
X6.8513Y-3.7983
X6.9094Y-3.5433
T3
X6.85Y-3.93
X6.85Y-3.98
T2
G00X6.651Y-4.7517
M15
G01X6.6943Y-4.7517
M16
G05
G00X6.651Y-5.0918
M15
G01X6.6943Y-5.0918
M16
G05
G00X6.8215Y-4.7517
M15
G01X6.853Y-4.7517
M16
G05
G00X6.8215Y-5.0918
M15
G01X6.853Y-5.0918
M16
G05
T0
M30
